<svg width="228" height="59" viewBox="0 0 228 59" fill="none" xmlns="http://www.w3.org/2000/svg">
<path d="M29.835 57.7229C29.3986 57.7768 28.9645 57.8308 28.5372 57.8803C28.0457 57.9388 27.6001 57.5969 27.5404 57.1154C27.4807 56.6362 27.8275 56.202 28.3144 56.1412C28.3167 56.1412 28.319 56.1412 28.3213 56.1412C29.0931 56.049 29.8786 55.9522 30.6779 55.8465C30.6802 55.8465 30.6803 55.8465 30.6825 55.8465C31.1695 55.7858 31.6174 56.121 31.684 56.6002C31.7483 57.0794 31.4061 57.5204 30.9145 57.5856C30.5516 57.6328 30.191 57.6779 29.835 57.7229ZM33.2757 57.2639C32.7934 57.3246 32.3478 56.9939 32.2766 56.5192C32.2054 56.04 32.5453 55.5968 33.0346 55.527C33.8086 55.4168 34.5942 55.302 35.3889 55.1828C35.885 55.1063 36.3352 55.437 36.411 55.9162C36.4868 56.3955 36.1515 56.8432 35.6645 56.9152C34.8629 57.0367 34.0728 57.1536 33.2941 57.2639C33.2849 57.2616 33.2803 57.2616 33.2757 57.2639ZM26.1714 58.1458C26.1645 58.1458 26.1576 58.1481 26.153 58.1481C25.3422 58.2335 24.5383 58.31 23.7643 58.3775C23.2727 58.4203 22.8363 58.0648 22.7927 57.5834C22.749 57.1019 23.1142 56.6812 23.6035 56.6317C24.3684 56.5642 25.1631 56.4877 25.9647 56.4044C26.4562 56.3527 26.8972 56.7014 26.9501 57.1829C26.9983 57.6576 26.6515 58.0851 26.1714 58.1458ZM37.9959 56.5484C37.5204 56.6092 37.0771 56.2875 36.999 55.8195C36.9186 55.3425 37.2494 54.8903 37.7386 54.8138C38.5127 54.6901 39.2959 54.5619 40.0884 54.4291C40.5684 54.3459 41.0393 54.6676 41.122 55.1446C41.2047 55.6215 40.8785 56.076 40.3916 56.157C39.5946 56.2897 38.8067 56.4202 38.028 56.5439C38.0166 56.5462 38.0074 56.5484 37.9959 56.5484ZM21.4168 58.562C21.4007 58.5643 21.3824 58.5665 21.364 58.5665C20.5394 58.6228 19.7309 58.67 18.9614 58.7038C18.4676 58.7263 18.0496 58.3528 18.0266 57.8691C18.0036 57.3854 18.3849 56.9759 18.8787 56.9534C19.6344 56.9197 20.4292 56.8747 21.24 56.8184C21.7338 56.7847 22.161 57.1491 22.1955 57.6306C22.2276 58.0963 21.8831 58.5035 21.4168 58.562ZM42.7045 55.7588C42.2337 55.8172 41.795 55.5045 41.71 55.0433C41.6227 54.5663 41.9466 54.1119 42.4335 54.0264C43.2076 53.8914 43.9885 53.7519 44.7787 53.6079C45.2656 53.5179 45.7319 53.8329 45.8215 54.3099C45.911 54.7868 45.5918 55.2435 45.1048 55.3313C44.3124 55.4753 43.5268 55.6148 42.7482 55.752C42.7344 55.7543 42.7206 55.7565 42.7045 55.7588ZM16.6485 58.7713C16.6163 58.7758 16.5818 58.778 16.5474 58.778C15.709 58.7915 14.8936 58.7893 14.1264 58.7735C13.6326 58.7623 13.2398 58.3618 13.2513 57.8781C13.2628 57.3944 13.6717 57.0097 14.1655 57.0209C14.9097 57.0367 15.7021 57.0389 16.5175 57.0254C17.0114 57.0164 17.4179 57.4034 17.4271 57.8871C17.4363 58.3393 17.0964 58.7173 16.6485 58.7713ZM47.4017 54.9061C46.9377 54.9646 46.499 54.6586 46.4095 54.2019C46.3153 53.7272 46.6346 53.2682 47.1192 53.176C47.8933 53.0297 48.6719 52.8812 49.4598 52.7305C49.949 52.636 50.4153 52.9465 50.5117 53.4212C50.6082 53.8959 50.2912 54.3571 49.8066 54.4516C49.0165 54.6046 48.2332 54.7531 47.4568 54.8993C47.4408 54.9016 47.4201 54.9038 47.4017 54.9061ZM52.0897 53.9994C51.628 54.0579 51.1939 53.7564 51.0998 53.3042C51.001 52.8295 51.3157 52.3683 51.798 52.2715C52.5721 52.1185 53.3507 51.9611 54.134 51.8013C54.6209 51.7023 55.0918 52.0083 55.1928 52.4808C55.2939 52.9555 54.9815 53.4189 54.4992 53.5179C53.7136 53.6777 52.9304 53.8352 52.1563 53.9904C52.1334 53.9926 52.1104 53.9971 52.0897 53.9994ZM56.7662 53.0477C56.3091 53.104 55.875 52.8092 55.7785 52.3593C55.6752 51.8868 55.9853 51.4211 56.4676 51.3199C57.2417 51.1601 58.018 50.9959 58.799 50.8294C59.279 50.7259 59.7591 51.0274 59.8624 51.4998C59.9681 51.9723 59.6603 52.4403 59.178 52.5415C58.3947 52.708 57.6138 52.8722 56.8397 53.032C56.8145 53.041 56.7892 53.0455 56.7662 53.0477ZM11.8801 58.6588C11.8204 58.6655 11.7606 58.6678 11.6986 58.6633C10.8327 58.6003 10.0127 58.5125 9.2593 58.4023C8.77006 58.3303 8.43472 57.8848 8.50822 57.4056C8.58172 56.9264 9.03651 56.5957 9.52575 56.6677C10.2332 56.7712 11.0095 56.8544 11.8318 56.9129C12.3257 56.9489 12.6955 57.3696 12.6587 57.8511C12.6243 58.2763 12.2912 58.607 11.8801 58.6588ZM61.4335 52.0578C60.9787 52.114 60.5469 51.8238 60.4482 51.3784C60.3425 50.9059 60.6457 50.4379 61.128 50.3344C61.8998 50.168 62.6762 49.997 63.4548 49.826C63.9395 49.7202 64.4149 50.0172 64.5252 50.4897C64.6331 50.9621 64.3299 51.4301 63.8476 51.5359C63.0666 51.7091 62.288 51.8778 61.5139 52.0443C61.4887 52.051 61.4611 52.0533 61.4335 52.0578ZM66.0939 51.0319C65.6415 51.0881 65.2119 50.8002 65.1086 50.3569C64.9983 49.8845 65.2992 49.4143 65.7816 49.3063C66.5533 49.133 67.3274 48.9598 68.106 48.7821C68.5884 48.6718 69.0684 48.9666 69.1787 49.439C69.2912 49.9115 68.9903 50.3817 68.508 50.4919C67.7271 50.6697 66.9507 50.8429 66.1766 51.0161C66.1514 51.0251 66.1238 51.0296 66.0939 51.0319ZM70.7475 49.9767C70.2996 50.033 69.8701 49.7495 69.7644 49.3085C69.6519 48.8383 69.9505 48.3659 70.4305 48.2556C71.2023 48.0779 71.9763 47.8979 72.7527 47.7179C73.235 47.6054 73.7151 47.8979 73.8299 48.3681C73.9448 48.8383 73.6485 49.3108 73.1661 49.4233C72.3875 49.6055 71.6111 49.7855 70.8394 49.9632C70.8095 49.9677 70.7773 49.9722 70.7475 49.9767ZM7.17142 57.9343C7.05657 57.9478 6.93943 57.9411 6.82229 57.9096C5.90582 57.6621 5.09732 57.3584 4.41743 57.0052C3.98102 56.7779 3.81563 56.247 4.04532 55.8195C4.27731 55.392 4.81938 55.23 5.25579 55.455C5.82083 55.7475 6.50531 56.004 7.29545 56.2177C7.7732 56.346 8.05342 56.8274 7.9225 57.2954C7.82144 57.6486 7.51825 57.8916 7.17142 57.9343ZM75.3941 48.8923C74.9462 48.9486 74.519 48.6673 74.411 48.2286C74.2939 47.7584 74.5902 47.2837 75.0703 47.1712C75.8397 46.989 76.6138 46.8045 77.3901 46.62C77.8702 46.5053 78.3548 46.7932 78.472 47.2634C78.5891 47.7337 78.2951 48.2084 77.8151 48.3231C77.0387 48.5076 76.2646 48.6921 75.4929 48.8743C75.4584 48.8833 75.4263 48.8878 75.3941 48.8923ZM80.0339 47.7831C79.5883 47.8394 79.1633 47.5604 79.0531 47.124C78.9336 46.6537 79.2277 46.179 79.7077 46.062C80.4772 45.8753 81.2489 45.6886 82.023 45.4996C82.5008 45.3826 82.9877 45.6683 83.1071 46.1385C83.2266 46.6087 82.9349 47.0835 82.4548 47.2005C81.6808 47.3894 80.9067 47.5784 80.1349 47.7652C80.1005 47.7719 80.0683 47.7786 80.0339 47.7831ZM84.6667 46.6515C84.2234 46.7077 83.7985 46.431 83.686 45.9968C83.5642 45.5266 83.8559 45.0519 84.336 44.9326C85.1054 44.7436 85.8772 44.5524 86.649 44.3589C87.129 44.2397 87.616 44.5232 87.7377 44.9911C87.8594 45.4613 87.57 45.9383 87.09 46.0575C86.3159 46.251 85.5442 46.4423 84.7724 46.6312C84.7379 46.6402 84.7035 46.647 84.6667 46.6515ZM89.2973 45.4973C88.8563 45.5536 88.4314 45.2791 88.3188 44.8449C88.1971 44.3769 88.4842 43.8977 88.9642 43.7785C89.7337 43.585 90.5032 43.3893 91.2749 43.1958C91.7527 43.0743 92.2419 43.3555 92.366 43.8257C92.49 44.2937 92.2029 44.7729 91.7228 44.8944C90.9511 45.0901 90.1793 45.2859 89.4075 45.4793C89.3685 45.4861 89.3318 45.4928 89.2973 45.4973ZM93.9118 44.3274C93.4731 44.3837 93.0481 44.1114 92.9333 43.6795C92.8093 43.2115 93.0941 42.7323 93.5741 42.6108C94.3413 42.4151 95.1108 42.2171 95.8779 42.0191C96.3557 41.8976 96.8449 42.1766 96.9713 42.6446C97.0976 43.1125 96.8105 43.5917 96.3327 43.7155C95.5633 43.9135 94.7938 44.1115 94.0243 44.3072C93.9876 44.3162 93.9508 44.3229 93.9118 44.3274ZM3.12656 55.6328C2.81188 55.671 2.48803 55.5473 2.2882 55.2773C2.23537 55.2053 2.18483 55.1333 2.13659 55.0591C1.69559 54.3819 1.33497 53.6979 1.06164 53.023C0.880186 52.573 1.10528 52.0646 1.56466 51.8868C2.02405 51.7091 2.54314 51.9296 2.7246 52.3795C2.95429 52.9487 3.26437 53.5337 3.64336 54.1141C3.67322 54.1591 3.70309 54.2019 3.73524 54.2446C4.02465 54.6361 3.93737 55.1851 3.53541 55.4685C3.41368 55.5608 3.27126 55.6148 3.12656 55.6328ZM98.5263 43.1395C98.0876 43.1935 97.6649 42.9236 97.5478 42.4938C97.4215 42.0259 97.7063 41.5467 98.184 41.4229C98.9535 41.2227 99.723 41.0225 100.492 40.8222C100.972 40.6962 101.459 40.9752 101.588 41.4432C101.717 41.9111 101.432 42.3903 100.954 42.5163C100.185 42.7188 99.4129 42.919 98.6434 43.1193C98.6044 43.126 98.5653 43.1328 98.5263 43.1395ZM103.148 41.9291C102.711 41.9831 102.289 41.7154 102.171 41.2879C102.043 40.82 102.325 40.3385 102.803 40.2125C103.575 40.01 104.344 39.8053 105.116 39.6006C105.596 39.4746 106.085 39.7513 106.214 40.217C106.343 40.685 106.06 41.1664 105.585 41.2924C104.813 41.4972 104.041 41.7019 103.269 41.9044C103.228 41.9179 103.187 41.9246 103.148 41.9291ZM107.764 40.7052C107.328 40.7592 106.908 40.4937 106.788 40.0663C106.657 39.5983 106.94 39.1169 107.415 38.9909C108.182 38.7861 108.95 38.5814 109.717 38.3744C110.192 38.2462 110.686 38.5207 110.817 38.9886C110.948 39.4566 110.668 39.938 110.19 40.0663C109.423 40.2733 108.653 40.478 107.886 40.6827C107.847 40.6917 107.806 40.7007 107.764 40.7052ZM112.372 39.4678C111.938 39.5218 111.518 39.2563 111.396 38.8311C111.265 38.3654 111.543 37.8817 112.021 37.7535C112.788 37.5465 113.555 37.3373 114.32 37.1303C114.795 37.002 115.289 37.2743 115.422 37.74C115.553 38.2057 115.275 38.6894 114.8 38.8199C114.033 39.0291 113.266 39.2361 112.498 39.4453C112.455 39.4543 112.413 39.4611 112.372 39.4678ZM116.973 38.2169C116.539 38.2709 116.118 38.0077 115.999 37.5825C115.866 37.1168 116.144 36.6331 116.621 36.5026C117.388 36.2933 118.156 36.0819 118.921 35.8726C119.396 35.7421 119.89 36.0144 120.023 36.4801C120.156 36.9458 119.878 37.4295 119.403 37.56C118.638 37.7715 117.871 37.9807 117.101 38.1899C117.058 38.2012 117.016 38.2102 116.973 38.2169ZM121.571 36.9525C121.139 37.0065 120.719 36.7433 120.597 36.3203C120.464 35.8546 120.74 35.3709 121.215 35.2382C121.982 35.0267 122.747 34.813 123.512 34.6015C123.987 34.4687 124.481 34.741 124.617 35.2044C124.752 35.6701 124.477 36.1538 124.001 36.2866C123.236 36.4981 122.469 36.7118 121.702 36.9233C121.658 36.9368 121.615 36.9458 121.571 36.9525ZM126.165 35.6746C125.733 35.7286 125.315 35.4676 125.191 35.0447C125.056 34.579 125.331 34.0953 125.807 33.9603C126.574 33.7466 127.339 33.5328 128.101 33.3168C128.574 33.1841 129.073 33.4518 129.208 33.9175C129.344 34.3832 129.071 34.8692 128.595 35.0019C127.83 35.2157 127.065 35.4317 126.298 35.6454C126.255 35.6611 126.211 35.6701 126.165 35.6746ZM1.44752 51.3086C1.43604 51.3109 1.42456 51.3109 1.41537 51.3131C0.923836 51.3559 0.487414 51.0026 0.443773 50.5189C0.363381 49.6573 0.423108 48.7933 0.622939 47.9451C0.73319 47.4727 1.21324 47.178 1.69559 47.2882C2.17794 47.3962 2.47883 47.8664 2.36628 48.3389C2.21009 49.0048 2.16186 49.6842 2.22388 50.3592C2.26752 50.8316 1.92068 51.2501 1.44752 51.3086ZM130.756 34.3855C130.327 34.4395 129.909 34.1808 129.785 33.7578C129.647 33.2921 129.923 32.8061 130.398 32.6734C131.165 32.4574 131.93 32.2414 132.69 32.0254C133.168 31.8904 133.662 32.1582 133.8 32.6239C133.938 33.0896 133.664 33.5756 133.189 33.7105C132.426 33.9265 131.661 34.1425 130.894 34.3585C130.846 34.372 130.802 34.3787 130.756 34.3855ZM135.346 33.0851C134.916 33.1391 134.498 32.8804 134.374 32.4596C134.236 31.9939 134.51 31.508 134.983 31.373C135.75 31.1548 136.515 30.9365 137.275 30.7183C137.751 30.5833 138.247 30.8488 138.384 31.3145C138.522 31.7802 138.251 32.2662 137.776 32.4011C137.013 32.6194 136.248 32.8376 135.481 33.0559C135.438 33.0694 135.392 33.0806 135.346 33.0851ZM139.93 31.7735C139.501 31.8275 139.085 31.5687 138.959 31.1503C138.821 30.6845 139.092 30.1986 139.565 30.0636C140.332 29.8431 141.095 29.6226 141.855 29.4044C142.331 29.2672 142.827 29.5326 142.967 29.9983C143.107 30.4641 142.836 30.95 142.36 31.0873C141.6 31.3077 140.835 31.526 140.068 31.7465C140.022 31.76 139.976 31.769 139.93 31.7735ZM144.513 30.4528C144.085 30.5068 143.667 30.2503 143.541 29.8319C143.401 29.3684 143.672 28.8802 144.145 28.743C144.912 28.5202 145.675 28.2997 146.435 28.0793C146.908 27.942 147.407 28.2052 147.547 28.671C147.687 29.1344 147.418 29.6226 146.943 29.7599C146.182 29.9803 145.42 30.2031 144.653 30.4258C144.607 30.4371 144.559 30.4461 144.513 30.4528ZM149.09 29.1209C148.663 29.1749 148.247 28.9184 148.121 28.5022C147.981 28.0388 148.25 27.5505 148.723 27.4111C149.49 27.1861 150.253 26.9633 151.011 26.7406C151.484 26.6011 151.982 26.8644 152.125 27.3301C152.267 27.7935 151.998 28.2817 151.523 28.4212C150.765 28.644 150.002 28.8667 149.233 29.0917C149.187 29.1052 149.139 29.1142 149.09 29.1209ZM2.45587 46.8607C2.27441 46.8832 2.08607 46.8517 1.9138 46.7595C1.47968 46.5278 1.3212 45.9945 1.55778 45.5693C1.94366 44.8786 2.4306 44.1879 3.00713 43.5153C3.3241 43.144 3.88914 43.0968 4.26813 43.4073C4.64712 43.7177 4.69535 44.2712 4.37837 44.6424C3.87765 45.2274 3.45731 45.8213 3.12886 46.4085C2.98645 46.6672 2.73149 46.827 2.45587 46.8607ZM153.668 27.78C153.241 27.834 152.825 27.5798 152.699 27.1636C152.556 26.7001 152.825 26.2119 153.298 26.0724C154.065 25.8474 154.828 25.6224 155.584 25.3975C156.057 25.258 156.555 25.519 156.7 25.9824C156.842 26.4459 156.574 26.9363 156.101 27.0758C155.343 27.2986 154.58 27.5236 153.813 27.7508C153.765 27.762 153.716 27.7733 153.668 27.78ZM158.241 26.4279C157.816 26.4819 157.401 26.2277 157.272 25.8114C157.13 25.348 157.396 24.8598 157.869 24.718C158.639 24.4908 159.399 24.2636 160.155 24.0386C160.628 23.8991 161.126 24.1601 161.271 24.6235C161.416 25.087 161.147 25.5752 160.676 25.717C159.92 25.9419 159.158 26.1692 158.388 26.3964C158.338 26.4121 158.289 26.4211 158.241 26.4279ZM162.812 25.0668C162.387 25.1207 161.974 24.8665 161.843 24.4526C161.698 23.9891 161.965 23.5009 162.438 23.3591C163.207 23.1297 163.967 22.9024 164.721 22.6752C165.192 22.5335 165.695 22.7944 165.839 23.2557C165.984 23.7191 165.718 24.2096 165.247 24.3513C164.493 24.5785 163.731 24.8058 162.961 25.0352C162.911 25.051 162.86 25.06 162.812 25.0668ZM167.381 23.6966C166.956 23.7506 166.542 23.4986 166.414 23.0847C166.269 22.6212 166.533 22.1307 167.006 21.989C167.776 21.7573 168.538 21.5278 169.289 21.3006C169.763 21.1588 170.263 21.4176 170.408 21.8788C170.553 22.3422 170.289 22.8327 169.815 22.9744C169.064 23.2017 168.302 23.4311 167.532 23.6629C167.479 23.6809 167.429 23.6899 167.381 23.6966ZM5.46941 43.279C5.18918 43.315 4.89517 43.2183 4.69075 42.9955C4.36 42.6356 4.38986 42.0821 4.75737 41.7581C5.33619 41.2474 5.98392 40.7322 6.67988 40.2305C7.07724 39.9425 7.63769 40.0258 7.9317 40.4172C8.2257 40.8065 8.14071 41.3554 7.74105 41.6434C7.09332 42.1114 6.49153 42.5883 5.95635 43.0608C5.81394 43.1845 5.64397 43.2565 5.46941 43.279ZM171.945 22.3175C171.522 22.3715 171.109 22.1195 170.978 21.7078C170.831 21.2466 171.097 20.7539 171.568 20.6121C172.34 20.3781 173.1 20.1464 173.849 19.9192C174.32 19.7774 174.823 20.0339 174.97 20.4951C175.117 20.9586 174.852 21.449 174.379 21.593C173.631 21.8203 172.868 22.052 172.096 22.286C172.048 22.2995 171.997 22.3107 171.945 22.3175ZM176.509 20.9293C176.086 20.9833 175.672 20.7336 175.542 20.3196C175.395 19.8584 175.659 19.3657 176.13 19.2217C176.904 18.9855 177.664 18.7538 178.41 18.5243C178.884 18.3803 179.384 18.6368 179.531 19.098C179.678 19.5592 179.416 20.0519 178.943 20.1959C178.197 20.4254 177.437 20.6571 176.662 20.8933C176.612 20.9113 176.561 20.9226 176.509 20.9293ZM181.07 19.5322C180.648 19.5862 180.236 19.3365 180.103 18.9248C179.954 18.4635 180.218 17.9708 180.689 17.8268C181.468 17.5884 182.228 17.3544 182.967 17.1249C183.438 16.9787 183.941 17.2351 184.091 17.6986C184.24 18.1598 183.978 18.6525 183.505 18.7988C182.763 19.0282 182.003 19.2622 181.224 19.5007C181.174 19.5142 181.123 19.5255 181.07 19.5322ZM9.29836 40.4937C8.96301 40.5365 8.61846 40.3903 8.42782 40.091C8.16368 39.6816 8.29001 39.1394 8.70805 38.8829C9.36726 38.4779 10.0747 38.0684 10.812 37.6702C11.2438 37.4363 11.7882 37.5892 12.0294 38.0144C12.2682 38.4374 12.1121 38.9706 11.6779 39.2046C10.9705 39.5871 10.2929 39.9785 9.66126 40.3655C9.54641 40.4352 9.42239 40.478 9.29836 40.4937ZM185.63 18.1238C185.209 18.1756 184.796 17.9281 184.665 17.5186C184.516 17.0574 184.777 16.5647 185.248 16.4185C186.034 16.1755 186.792 15.9392 187.527 15.712C187.998 15.5658 188.501 15.82 188.65 16.2812C188.799 16.7424 188.54 17.2351 188.069 17.3814C187.334 17.6109 186.574 17.8471 185.788 18.0901C185.735 18.1058 185.682 18.1171 185.63 18.1238ZM190.189 16.7064C189.769 16.7582 189.357 16.5129 189.224 16.1035C189.075 15.6423 189.334 15.1496 189.805 15.0011C190.602 14.7513 191.363 14.5151 192.084 14.2879C192.555 14.1394 193.058 14.3936 193.209 14.8548C193.361 15.316 193.101 15.8088 192.631 15.9572C191.909 16.1845 191.149 16.4207 190.35 16.6704C190.295 16.6884 190.242 16.6997 190.189 16.7064ZM13.4764 38.2214C13.1089 38.2687 12.7345 38.0842 12.56 37.74C12.3417 37.3058 12.5232 36.7793 12.9642 36.5656C13.6625 36.2258 14.3998 35.8861 15.1578 35.5531C15.6079 35.3552 16.1385 35.5509 16.3407 35.9919C16.5428 36.4328 16.343 36.9525 15.8928 37.1505C15.1555 37.4745 14.4388 37.8075 13.7589 38.1359C13.6694 38.1809 13.5729 38.2102 13.4764 38.2214ZM194.748 15.2755C194.328 15.3273 193.917 15.0821 193.784 14.6748C193.632 14.2136 193.892 13.7209 194.362 13.5724C195.194 13.3115 195.954 13.0707 196.641 12.8525C197.112 12.704 197.615 12.956 197.769 13.4172C197.92 13.8784 197.663 14.3711 197.192 14.5219C196.505 14.7401 195.743 14.9808 194.909 15.2418C194.856 15.2576 194.801 15.2688 194.748 15.2755ZM199.312 13.8312C198.894 13.8829 198.483 13.6399 198.348 13.2327C198.194 12.7715 198.451 12.2765 198.922 12.1281C200.33 11.6803 201.081 11.4374 201.081 11.4374C201.549 11.2866 202.057 11.5364 202.211 11.9953C202.365 12.4543 202.11 12.9515 201.641 13.1022C201.641 13.1022 200.888 13.3452 199.475 13.7952C199.422 13.8132 199.367 13.8244 199.312 13.8312ZM17.836 36.2956C17.4455 36.3451 17.0527 36.1336 16.8965 35.7601C16.7082 35.3124 16.9264 34.7995 17.3812 34.615C18.1024 34.3225 18.8581 34.03 19.6252 33.742C20.0869 33.5688 20.6037 33.796 20.7806 34.2483C20.9575 34.7005 20.7255 35.2067 20.2638 35.3799C19.5104 35.6611 18.7708 35.9491 18.0633 36.2371C17.9898 36.2663 17.9118 36.2866 17.836 36.2956ZM22.3011 34.6195C21.8923 34.6712 21.4903 34.4395 21.3456 34.0435C21.1802 33.5868 21.4214 33.0873 21.8877 32.9231C22.6273 32.6644 23.3922 32.4057 24.1662 32.1537C24.6371 31.9984 25.1424 32.2482 25.2986 32.7071C25.4548 33.1661 25.2021 33.6633 24.7336 33.8163C23.971 34.066 23.2153 34.3203 22.4895 34.5745C22.4275 34.597 22.3632 34.6105 22.3011 34.6195ZM26.8398 33.1346C26.4172 33.1863 26.006 32.9389 25.8728 32.5271C25.7258 32.0659 25.9877 31.5732 26.4585 31.4292C27.2073 31.1998 27.9814 30.968 28.7623 30.743C29.2355 30.6058 29.7339 30.8713 29.874 31.3347C30.0141 31.7982 29.7431 32.2864 29.2699 32.4237C28.5005 32.6464 27.7356 32.8759 26.996 33.1031C26.9432 33.1166 26.8904 33.1278 26.8398 33.1346ZM31.4267 31.805C30.9926 31.859 30.5723 31.5957 30.4529 31.1705C30.3196 30.7048 30.5976 30.2211 31.073 30.0906C31.8356 29.8814 32.6165 29.6744 33.3952 29.4719C33.873 29.3482 34.3622 29.6271 34.4885 30.0951C34.6149 30.563 34.33 31.0423 33.8523 31.166C33.0828 31.3662 32.3111 31.571 31.5554 31.778C31.5117 31.7915 31.4681 31.8005 31.4267 31.805ZM36.055 30.6058C35.6117 30.662 35.1845 30.3853 35.0742 29.9489C34.9548 29.4786 35.2465 29.0039 35.7243 28.8847C36.4914 28.6957 37.2793 28.509 38.0602 28.3267C38.5426 28.2165 39.0226 28.5067 39.1375 28.9769C39.2523 29.4471 38.9537 29.9196 38.4737 30.0321C37.6996 30.2121 36.9186 30.3988 36.1584 30.5833C36.1239 30.5946 36.0895 30.6013 36.055 30.6058ZM40.7131 29.5236C40.2606 29.5799 39.8288 29.2919 39.7278 28.8464C39.6198 28.374 39.923 27.906 40.4054 27.8003C41.1886 27.627 41.981 27.4606 42.7574 27.2986C43.242 27.1973 43.7152 27.5011 43.8186 27.9758C43.9196 28.4505 43.6118 28.9139 43.1272 29.0152C42.3577 29.1749 41.5745 29.3414 40.7958 29.5124C40.7706 29.5169 40.7407 29.5214 40.7131 29.5236ZM45.4057 28.5562C44.9417 28.6147 44.5053 28.311 44.4157 27.8565C44.3216 27.3818 44.6362 26.9206 45.1209 26.8284C46.6162 26.5404 47.4775 26.3964 47.512 26.3896C47.992 26.3064 48.4606 26.6281 48.5456 27.1073C48.6283 27.5843 48.3021 28.0365 47.8152 28.1198C47.806 28.122 46.9378 28.266 45.4677 28.5495C45.4448 28.5517 45.4264 28.554 45.4057 28.5562Z" fill="#B7EE81"/>
<path d="M29.835 57.7229C29.3986 57.7768 28.9645 57.8308 28.5372 57.8803C28.0457 57.9388 27.6001 57.5969 27.5404 57.1154C27.4807 56.6362 27.8275 56.202 28.3144 56.1412C28.3167 56.1412 28.319 56.1412 28.3213 56.1412C29.0931 56.049 29.8786 55.9522 30.6779 55.8465C30.6802 55.8465 30.6803 55.8465 30.6825 55.8465C31.1695 55.7858 31.6174 56.121 31.684 56.6002C31.7483 57.0794 31.4061 57.5204 30.9145 57.5856C30.5516 57.6328 30.191 57.6779 29.835 57.7229ZM33.2757 57.2639C32.7934 57.3246 32.3478 56.9939 32.2766 56.5192C32.2054 56.04 32.5453 55.5968 33.0346 55.527C33.8086 55.4168 34.5942 55.302 35.3889 55.1828C35.885 55.1063 36.3352 55.437 36.411 55.9162C36.4868 56.3955 36.1515 56.8432 35.6645 56.9152C34.8629 57.0367 34.0728 57.1536 33.2941 57.2639C33.2849 57.2616 33.2803 57.2616 33.2757 57.2639ZM26.1714 58.1458C26.1645 58.1458 26.1576 58.1481 26.153 58.1481C25.3422 58.2335 24.5383 58.31 23.7643 58.3775C23.2727 58.4203 22.8363 58.0648 22.7927 57.5834C22.749 57.1019 23.1142 56.6812 23.6035 56.6317C24.3684 56.5642 25.1631 56.4877 25.9647 56.4044C26.4562 56.3527 26.8972 56.7014 26.9501 57.1829C26.9983 57.6576 26.6515 58.0851 26.1714 58.1458ZM37.9959 56.5484C37.5204 56.6092 37.0771 56.2875 36.999 55.8195C36.9186 55.3425 37.2494 54.8903 37.7386 54.8138C38.5127 54.6901 39.2959 54.5619 40.0884 54.4291C40.5684 54.3459 41.0393 54.6676 41.122 55.1446C41.2047 55.6215 40.8785 56.076 40.3916 56.157C39.5946 56.2897 38.8067 56.4202 38.028 56.5439C38.0166 56.5462 38.0074 56.5484 37.9959 56.5484ZM21.4168 58.562C21.4007 58.5643 21.3824 58.5665 21.364 58.5665C20.5394 58.6228 19.7309 58.67 18.9614 58.7038C18.4676 58.7263 18.0496 58.3528 18.0266 57.8691C18.0036 57.3854 18.3849 56.9759 18.8787 56.9534C19.6344 56.9197 20.4292 56.8747 21.24 56.8184C21.7338 56.7847 22.161 57.1491 22.1955 57.6306C22.2276 58.0963 21.8831 58.5035 21.4168 58.562ZM42.7045 55.7588C42.2337 55.8172 41.795 55.5045 41.71 55.0433C41.6227 54.5663 41.9466 54.1119 42.4335 54.0264C43.2076 53.8914 43.9885 53.7519 44.7787 53.6079C45.2656 53.5179 45.7319 53.8329 45.8215 54.3099C45.911 54.7868 45.5918 55.2435 45.1048 55.3313C44.3124 55.4753 43.5268 55.6148 42.7482 55.752C42.7344 55.7543 42.7206 55.7565 42.7045 55.7588ZM16.6485 58.7713C16.6163 58.7758 16.5818 58.778 16.5474 58.778C15.709 58.7915 14.8936 58.7893 14.1264 58.7735C13.6326 58.7623 13.2398 58.3618 13.2513 57.8781C13.2628 57.3944 13.6717 57.0097 14.1655 57.0209C14.9097 57.0367 15.7021 57.0389 16.5175 57.0254C17.0114 57.0164 17.4179 57.4034 17.4271 57.8871C17.4363 58.3393 17.0964 58.7173 16.6485 58.7713ZM47.4017 54.9061C46.9377 54.9646 46.499 54.6586 46.4095 54.2019C46.3153 53.7272 46.6346 53.2682 47.1192 53.176C47.8933 53.0297 48.6719 52.8812 49.4598 52.7305C49.949 52.636 50.4153 52.9465 50.5117 53.4212C50.6082 53.8959 50.2912 54.3571 49.8066 54.4516C49.0165 54.6046 48.2332 54.7531 47.4568 54.8993C47.4408 54.9016 47.4201 54.9038 47.4017 54.9061ZM52.0897 53.9994C51.628 54.0579 51.1939 53.7564 51.0998 53.3042C51.001 52.8295 51.3157 52.3683 51.798 52.2715C52.5721 52.1185 53.3507 51.9611 54.134 51.8013C54.6209 51.7023 55.0918 52.0083 55.1928 52.4808C55.2939 52.9555 54.9815 53.4189 54.4992 53.5179C53.7136 53.6777 52.9304 53.8352 52.1563 53.9904C52.1334 53.9926 52.1104 53.9971 52.0897 53.9994ZM56.7662 53.0477C56.3091 53.104 55.875 52.8092 55.7785 52.3593C55.6752 51.8868 55.9853 51.4211 56.4676 51.3199C57.2417 51.1601 58.018 50.9959 58.799 50.8294C59.279 50.7259 59.7591 51.0274 59.8624 51.4998C59.9681 51.9723 59.6603 52.4403 59.178 52.5415C58.3947 52.708 57.6138 52.8722 56.8397 53.032C56.8145 53.041 56.7892 53.0455 56.7662 53.0477ZM11.8801 58.6588C11.8204 58.6655 11.7606 58.6678 11.6986 58.6633C10.8327 58.6003 10.0127 58.5125 9.2593 58.4023C8.77006 58.3303 8.43472 57.8848 8.50822 57.4056C8.58172 56.9264 9.03651 56.5957 9.52575 56.6677C10.2332 56.7712 11.0095 56.8544 11.8318 56.9129C12.3257 56.9489 12.6955 57.3696 12.6587 57.8511C12.6243 58.2763 12.2912 58.607 11.8801 58.6588ZM61.4335 52.0578C60.9787 52.114 60.5469 51.8238 60.4482 51.3784C60.3425 50.9059 60.6457 50.4379 61.128 50.3344C61.8998 50.168 62.6762 49.997 63.4548 49.826C63.9395 49.7202 64.4149 50.0172 64.5252 50.4897C64.6331 50.9621 64.3299 51.4301 63.8476 51.5359C63.0666 51.7091 62.288 51.8778 61.5139 52.0443C61.4887 52.051 61.4611 52.0533 61.4335 52.0578ZM66.0939 51.0319C65.6415 51.0881 65.2119 50.8002 65.1086 50.3569C64.9983 49.8845 65.2992 49.4143 65.7816 49.3063C66.5533 49.133 67.3274 48.9598 68.106 48.7821C68.5884 48.6718 69.0684 48.9666 69.1787 49.439C69.2912 49.9115 68.9903 50.3817 68.508 50.4919C67.7271 50.6697 66.9507 50.8429 66.1766 51.0161C66.1514 51.0251 66.1238 51.0296 66.0939 51.0319ZM70.7475 49.9767C70.2996 50.033 69.8701 49.7495 69.7644 49.3085C69.6519 48.8383 69.9505 48.3659 70.4305 48.2556C71.2023 48.0779 71.9763 47.8979 72.7527 47.7179C73.235 47.6054 73.7151 47.8979 73.8299 48.3681C73.9448 48.8383 73.6485 49.3108 73.1661 49.4233C72.3875 49.6055 71.6111 49.7855 70.8394 49.9632C70.8095 49.9677 70.7773 49.9722 70.7475 49.9767ZM7.17142 57.9343C7.05657 57.9478 6.93943 57.9411 6.82229 57.9096C5.90582 57.6621 5.09732 57.3584 4.41743 57.0052C3.98102 56.7779 3.81563 56.247 4.04532 55.8195C4.27731 55.392 4.81938 55.23 5.25579 55.455C5.82083 55.7475 6.50531 56.004 7.29545 56.2177C7.7732 56.346 8.05342 56.8274 7.9225 57.2954C7.82144 57.6486 7.51825 57.8916 7.17142 57.9343ZM75.3941 48.8923C74.9462 48.9486 74.519 48.6673 74.411 48.2286C74.2939 47.7584 74.5902 47.2837 75.0703 47.1712C75.8397 46.989 76.6138 46.8045 77.3901 46.62C77.8702 46.5053 78.3548 46.7932 78.472 47.2634C78.5891 47.7337 78.2951 48.2084 77.8151 48.3231C77.0387 48.5076 76.2646 48.6921 75.4929 48.8743C75.4584 48.8833 75.4263 48.8878 75.3941 48.8923ZM80.0339 47.7831C79.5883 47.8394 79.1633 47.5604 79.0531 47.124C78.9336 46.6537 79.2277 46.179 79.7077 46.062C80.4772 45.8753 81.2489 45.6886 82.023 45.4996C82.5008 45.3826 82.9877 45.6683 83.1071 46.1385C83.2266 46.6087 82.9349 47.0835 82.4548 47.2005C81.6808 47.3894 80.9067 47.5784 80.1349 47.7652C80.1005 47.7719 80.0683 47.7786 80.0339 47.7831ZM84.6667 46.6515C84.2234 46.7077 83.7985 46.431 83.686 45.9968C83.5642 45.5266 83.8559 45.0519 84.336 44.9326C85.1054 44.7436 85.8772 44.5524 86.649 44.3589C87.129 44.2397 87.616 44.5232 87.7377 44.9911C87.8594 45.4613 87.57 45.9383 87.09 46.0575C86.3159 46.251 85.5442 46.4423 84.7724 46.6312C84.7379 46.6402 84.7035 46.647 84.6667 46.6515ZM89.2973 45.4973C88.8563 45.5536 88.4314 45.2791 88.3188 44.8449C88.1971 44.3769 88.4842 43.8977 88.9642 43.7785C89.7337 43.585 90.5032 43.3893 91.2749 43.1958C91.7527 43.0743 92.2419 43.3555 92.366 43.8257C92.49 44.2937 92.2029 44.7729 91.7228 44.8944C90.9511 45.0901 90.1793 45.2859 89.4075 45.4793C89.3685 45.4861 89.3318 45.4928 89.2973 45.4973ZM93.9118 44.3274C93.4731 44.3837 93.0481 44.1114 92.9333 43.6795C92.8093 43.2115 93.0941 42.7323 93.5741 42.6108C94.3413 42.4151 95.1108 42.2171 95.8779 42.0191C96.3557 41.8976 96.8449 42.1766 96.9713 42.6446C97.0976 43.1125 96.8105 43.5917 96.3327 43.7155C95.5633 43.9135 94.7938 44.1115 94.0243 44.3072C93.9876 44.3162 93.9508 44.3229 93.9118 44.3274ZM3.12656 55.6328C2.81188 55.671 2.48803 55.5473 2.2882 55.2773C2.23537 55.2053 2.18483 55.1333 2.13659 55.0591C1.69559 54.3819 1.33497 53.6979 1.06164 53.023C0.880186 52.573 1.10528 52.0646 1.56466 51.8868C2.02405 51.7091 2.54314 51.9296 2.7246 52.3795C2.95429 52.9487 3.26437 53.5337 3.64336 54.1141C3.67322 54.1591 3.70309 54.2019 3.73524 54.2446C4.02465 54.6361 3.93737 55.1851 3.53541 55.4685C3.41368 55.5608 3.27126 55.6148 3.12656 55.6328ZM98.5263 43.1395C98.0876 43.1935 97.6649 42.9236 97.5478 42.4938C97.4215 42.0259 97.7063 41.5467 98.184 41.4229C98.9535 41.2227 99.723 41.0225 100.492 40.8222C100.972 40.6962 101.459 40.9752 101.588 41.4432C101.717 41.9111 101.432 42.3903 100.954 42.5163C100.185 42.7188 99.4129 42.919 98.6434 43.1193C98.6044 43.126 98.5653 43.1328 98.5263 43.1395ZM103.148 41.9291C102.711 41.9831 102.289 41.7154 102.171 41.2879C102.043 40.82 102.325 40.3385 102.803 40.2125C103.575 40.01 104.344 39.8053 105.116 39.6006C105.596 39.4746 106.085 39.7513 106.214 40.217C106.343 40.685 106.06 41.1664 105.585 41.2924C104.813 41.4972 104.041 41.7019 103.269 41.9044C103.228 41.9179 103.187 41.9246 103.148 41.9291ZM107.764 40.7052C107.328 40.7592 106.908 40.4937 106.788 40.0663C106.657 39.5983 106.94 39.1169 107.415 38.9909C108.182 38.7861 108.95 38.5814 109.717 38.3744C110.192 38.2462 110.686 38.5207 110.817 38.9886C110.948 39.4566 110.668 39.938 110.19 40.0663C109.423 40.2733 108.653 40.478 107.886 40.6827C107.847 40.6917 107.806 40.7007 107.764 40.7052ZM112.372 39.4678C111.938 39.5218 111.518 39.2563 111.396 38.8311C111.265 38.3654 111.543 37.8817 112.021 37.7535C112.788 37.5465 113.555 37.3373 114.32 37.1303C114.795 37.002 115.289 37.2743 115.422 37.74C115.553 38.2057 115.275 38.6894 114.8 38.8199C114.033 39.0291 113.266 39.2361 112.498 39.4453C112.455 39.4543 112.413 39.4611 112.372 39.4678ZM116.973 38.2169C116.539 38.2709 116.118 38.0077 115.999 37.5825C115.866 37.1168 116.144 36.6331 116.621 36.5026C117.388 36.2933 118.156 36.0819 118.921 35.8726C119.396 35.7421 119.89 36.0144 120.023 36.4801C120.156 36.9458 119.878 37.4295 119.403 37.56C118.638 37.7715 117.871 37.9807 117.101 38.1899C117.058 38.2012 117.016 38.2102 116.973 38.2169ZM121.571 36.9525C121.139 37.0065 120.719 36.7433 120.597 36.3203C120.464 35.8546 120.74 35.3709 121.215 35.2382C121.982 35.0267 122.747 34.813 123.512 34.6015C123.987 34.4687 124.481 34.741 124.617 35.2044C124.752 35.6701 124.477 36.1538 124.001 36.2866C123.236 36.4981 122.469 36.7118 121.702 36.9233C121.658 36.9368 121.615 36.9458 121.571 36.9525ZM126.165 35.6746C125.733 35.7286 125.315 35.4676 125.191 35.0447C125.056 34.579 125.331 34.0953 125.807 33.9603C126.574 33.7466 127.339 33.5328 128.101 33.3168C128.574 33.1841 129.073 33.4518 129.208 33.9175C129.344 34.3832 129.071 34.8692 128.595 35.0019C127.83 35.2157 127.065 35.4317 126.298 35.6454C126.255 35.6611 126.211 35.6701 126.165 35.6746ZM1.44752 51.3086C1.43604 51.3109 1.42456 51.3109 1.41537 51.3131C0.923836 51.3559 0.487414 51.0026 0.443773 50.5189C0.363381 49.6573 0.423108 48.7933 0.622939 47.9451C0.73319 47.4727 1.21324 47.178 1.69559 47.2882C2.17794 47.3962 2.47883 47.8664 2.36628 48.3389C2.21009 49.0048 2.16186 49.6842 2.22388 50.3592C2.26752 50.8316 1.92068 51.2501 1.44752 51.3086ZM130.756 34.3855C130.327 34.4395 129.909 34.1808 129.785 33.7578C129.647 33.2921 129.923 32.8061 130.398 32.6734C131.165 32.4574 131.93 32.2414 132.69 32.0254C133.168 31.8904 133.662 32.1582 133.8 32.6239C133.938 33.0896 133.664 33.5756 133.189 33.7105C132.426 33.9265 131.661 34.1425 130.894 34.3585C130.846 34.372 130.802 34.3787 130.756 34.3855ZM135.346 33.0851C134.916 33.1391 134.498 32.8804 134.374 32.4596C134.236 31.9939 134.51 31.508 134.983 31.373C135.75 31.1548 136.515 30.9365 137.275 30.7183C137.751 30.5833 138.247 30.8488 138.384 31.3145C138.522 31.7802 138.251 32.2662 137.776 32.4011C137.013 32.6194 136.248 32.8376 135.481 33.0559C135.438 33.0694 135.392 33.0806 135.346 33.0851ZM139.93 31.7735C139.501 31.8275 139.085 31.5687 138.959 31.1503C138.821 30.6845 139.092 30.1986 139.565 30.0636C140.332 29.8431 141.095 29.6226 141.855 29.4044C142.331 29.2672 142.827 29.5326 142.967 29.9983C143.107 30.4641 142.836 30.95 142.36 31.0873C141.6 31.3077 140.835 31.526 140.068 31.7465C140.022 31.76 139.976 31.769 139.93 31.7735ZM144.513 30.4528C144.085 30.5068 143.667 30.2503 143.541 29.8319C143.401 29.3684 143.672 28.8802 144.145 28.743C144.912 28.5202 145.675 28.2997 146.435 28.0793C146.908 27.942 147.407 28.2052 147.547 28.671C147.687 29.1344 147.418 29.6226 146.943 29.7599C146.182 29.9803 145.42 30.2031 144.653 30.4258C144.607 30.4371 144.559 30.4461 144.513 30.4528ZM149.09 29.1209C148.663 29.1749 148.247 28.9184 148.121 28.5022C147.981 28.0388 148.25 27.5505 148.723 27.4111C149.49 27.1861 150.253 26.9633 151.011 26.7406C151.484 26.6011 151.982 26.8644 152.125 27.3301C152.267 27.7935 151.998 28.2817 151.523 28.4212C150.765 28.644 150.002 28.8667 149.233 29.0917C149.187 29.1052 149.139 29.1142 149.09 29.1209ZM2.45587 46.8607C2.27441 46.8832 2.08607 46.8517 1.9138 46.7595C1.47968 46.5278 1.3212 45.9945 1.55778 45.5693C1.94366 44.8786 2.4306 44.1879 3.00713 43.5153C3.3241 43.144 3.88914 43.0968 4.26813 43.4073C4.64712 43.7177 4.69535 44.2712 4.37837 44.6424C3.87765 45.2274 3.45731 45.8213 3.12886 46.4085C2.98645 46.6672 2.73149 46.827 2.45587 46.8607ZM153.668 27.78C153.241 27.834 152.825 27.5798 152.699 27.1636C152.556 26.7001 152.825 26.2119 153.298 26.0724C154.065 25.8474 154.828 25.6224 155.584 25.3975C156.057 25.258 156.555 25.519 156.7 25.9824C156.842 26.4459 156.574 26.9363 156.101 27.0758C155.343 27.2986 154.58 27.5236 153.813 27.7508C153.765 27.762 153.716 27.7733 153.668 27.78ZM158.241 26.4279C157.816 26.4819 157.401 26.2277 157.272 25.8114C157.13 25.348 157.396 24.8598 157.869 24.718C158.639 24.4908 159.399 24.2636 160.155 24.0386C160.628 23.8991 161.126 24.1601 161.271 24.6235C161.416 25.087 161.147 25.5752 160.676 25.717C159.92 25.9419 159.158 26.1692 158.388 26.3964C158.338 26.4121 158.289 26.4211 158.241 26.4279ZM162.812 25.0668C162.387 25.1207 161.974 24.8665 161.843 24.4526C161.698 23.9891 161.965 23.5009 162.438 23.3591C163.207 23.1297 163.967 22.9024 164.721 22.6752C165.192 22.5335 165.695 22.7944 165.839 23.2557C165.984 23.7191 165.718 24.2096 165.247 24.3513C164.493 24.5785 163.731 24.8058 162.961 25.0352C162.911 25.051 162.86 25.06 162.812 25.0668ZM167.381 23.6966C166.956 23.7506 166.542 23.4986 166.414 23.0847C166.269 22.6212 166.533 22.1307 167.006 21.989C167.776 21.7573 168.538 21.5278 169.289 21.3006C169.763 21.1588 170.263 21.4176 170.408 21.8788C170.553 22.3422 170.289 22.8327 169.815 22.9744C169.064 23.2017 168.302 23.4311 167.532 23.6629C167.479 23.6809 167.429 23.6899 167.381 23.6966ZM5.46941 43.279C5.18918 43.315 4.89517 43.2183 4.69075 42.9955C4.36 42.6356 4.38986 42.0821 4.75737 41.7581C5.33619 41.2474 5.98392 40.7322 6.67988 40.2305C7.07724 39.9425 7.63769 40.0258 7.9317 40.4172C8.2257 40.8065 8.14071 41.3554 7.74105 41.6434C7.09332 42.1114 6.49153 42.5883 5.95635 43.0608C5.81394 43.1845 5.64397 43.2565 5.46941 43.279ZM171.945 22.3175C171.522 22.3715 171.109 22.1195 170.978 21.7078C170.831 21.2466 171.097 20.7539 171.568 20.6121C172.34 20.3781 173.1 20.1464 173.849 19.9192C174.32 19.7774 174.823 20.0339 174.97 20.4951C175.117 20.9586 174.852 21.449 174.379 21.593C173.631 21.8203 172.868 22.052 172.096 22.286C172.048 22.2995 171.997 22.3107 171.945 22.3175ZM176.509 20.9293C176.086 20.9833 175.672 20.7336 175.542 20.3196C175.395 19.8584 175.659 19.3657 176.13 19.2217C176.904 18.9855 177.664 18.7538 178.41 18.5243C178.884 18.3803 179.384 18.6368 179.531 19.098C179.678 19.5592 179.416 20.0519 178.943 20.1959C178.197 20.4254 177.437 20.6571 176.662 20.8933C176.612 20.9113 176.561 20.9226 176.509 20.9293ZM181.07 19.5322C180.648 19.5862 180.236 19.3365 180.103 18.9248C179.954 18.4635 180.218 17.9708 180.689 17.8268C181.468 17.5884 182.228 17.3544 182.967 17.1249C183.438 16.9787 183.941 17.2351 184.091 17.6986C184.24 18.1598 183.978 18.6525 183.505 18.7988C182.763 19.0282 182.003 19.2622 181.224 19.5007C181.174 19.5142 181.123 19.5255 181.07 19.5322ZM9.29836 40.4937C8.96301 40.5365 8.61846 40.3903 8.42782 40.091C8.16368 39.6816 8.29001 39.1394 8.70805 38.8829C9.36726 38.4779 10.0747 38.0684 10.812 37.6702C11.2438 37.4363 11.7882 37.5892 12.0294 38.0144C12.2682 38.4374 12.1121 38.9706 11.6779 39.2046C10.9705 39.5871 10.2929 39.9785 9.66126 40.3655C9.54641 40.4352 9.42239 40.478 9.29836 40.4937ZM185.63 18.1238C185.209 18.1756 184.796 17.9281 184.665 17.5186C184.516 17.0574 184.777 16.5647 185.248 16.4185C186.034 16.1755 186.792 15.9392 187.527 15.712C187.998 15.5658 188.501 15.82 188.65 16.2812C188.799 16.7424 188.54 17.2351 188.069 17.3814C187.334 17.6109 186.574 17.8471 185.788 18.0901C185.735 18.1058 185.682 18.1171 185.63 18.1238ZM190.189 16.7064C189.769 16.7582 189.357 16.5129 189.224 16.1035C189.075 15.6423 189.334 15.1496 189.805 15.0011C190.602 14.7513 191.363 14.5151 192.084 14.2879C192.555 14.1394 193.058 14.3936 193.209 14.8548C193.361 15.316 193.101 15.8088 192.631 15.9572C191.909 16.1845 191.149 16.4207 190.35 16.6704C190.295 16.6884 190.242 16.6997 190.189 16.7064ZM13.4764 38.2214C13.1089 38.2687 12.7345 38.0842 12.56 37.74C12.3417 37.3058 12.5232 36.7793 12.9642 36.5656C13.6625 36.2258 14.3998 35.8861 15.1578 35.5531C15.6079 35.3552 16.1385 35.5509 16.3407 35.9919C16.5428 36.4328 16.343 36.9525 15.8928 37.1505C15.1555 37.4745 14.4388 37.8075 13.7589 38.1359C13.6694 38.1809 13.5729 38.2102 13.4764 38.2214ZM194.748 15.2755C194.328 15.3273 193.917 15.0821 193.784 14.6748C193.632 14.2136 193.892 13.7209 194.362 13.5724C195.194 13.3115 195.954 13.0707 196.641 12.8525C197.112 12.704 197.615 12.956 197.769 13.4172C197.92 13.8784 197.663 14.3711 197.192 14.5219C196.505 14.7401 195.743 14.9808 194.909 15.2418C194.856 15.2576 194.801 15.2688 194.748 15.2755ZM199.312 13.8312C198.894 13.8829 198.483 13.6399 198.348 13.2327C198.194 12.7715 198.451 12.2765 198.922 12.1281C200.33 11.6803 201.081 11.4374 201.081 11.4374C201.549 11.2866 202.057 11.5364 202.211 11.9953C202.365 12.4543 202.11 12.9515 201.641 13.1022C201.641 13.1022 200.888 13.3452 199.475 13.7952C199.422 13.8132 199.367 13.8244 199.312 13.8312ZM17.836 36.2956C17.4455 36.3451 17.0527 36.1336 16.8965 35.7601C16.7082 35.3124 16.9264 34.7995 17.3812 34.615C18.1024 34.3225 18.8581 34.03 19.6252 33.742C20.0869 33.5688 20.6037 33.796 20.7806 34.2483C20.9575 34.7005 20.7255 35.2067 20.2638 35.3799C19.5104 35.6611 18.7708 35.9491 18.0633 36.2371C17.9898 36.2663 17.9118 36.2866 17.836 36.2956ZM22.3011 34.6195C21.8923 34.6712 21.4903 34.4395 21.3456 34.0435C21.1802 33.5868 21.4214 33.0873 21.8877 32.9231C22.6273 32.6644 23.3922 32.4057 24.1662 32.1537C24.6371 31.9984 25.1424 32.2482 25.2986 32.7071C25.4548 33.1661 25.2021 33.6633 24.7336 33.8163C23.971 34.066 23.2153 34.3203 22.4895 34.5745C22.4275 34.597 22.3632 34.6105 22.3011 34.6195ZM26.8398 33.1346C26.4172 33.1863 26.006 32.9389 25.8728 32.5271C25.7258 32.0659 25.9877 31.5732 26.4585 31.4292C27.2073 31.1998 27.9814 30.968 28.7623 30.743C29.2355 30.6058 29.7339 30.8713 29.874 31.3347C30.0141 31.7982 29.7431 32.2864 29.2699 32.4237C28.5005 32.6464 27.7356 32.8759 26.996 33.1031C26.9432 33.1166 26.8904 33.1278 26.8398 33.1346ZM31.4267 31.805C30.9926 31.859 30.5723 31.5957 30.4529 31.1705C30.3196 30.7048 30.5976 30.2211 31.073 30.0906C31.8356 29.8814 32.6165 29.6744 33.3952 29.4719C33.873 29.3482 34.3622 29.6271 34.4885 30.0951C34.6149 30.563 34.33 31.0423 33.8523 31.166C33.0828 31.3662 32.3111 31.571 31.5554 31.778C31.5117 31.7915 31.4681 31.8005 31.4267 31.805ZM36.055 30.6058C35.6117 30.662 35.1845 30.3853 35.0742 29.9489C34.9548 29.4786 35.2465 29.0039 35.7243 28.8847C36.4914 28.6957 37.2793 28.509 38.0602 28.3267C38.5426 28.2165 39.0226 28.5067 39.1375 28.9769C39.2523 29.4471 38.9537 29.9196 38.4737 30.0321C37.6996 30.2121 36.9186 30.3988 36.1584 30.5833C36.1239 30.5946 36.0895 30.6013 36.055 30.6058ZM40.7131 29.5236C40.2606 29.5799 39.8288 29.2919 39.7278 28.8464C39.6198 28.374 39.923 27.906 40.4054 27.8003C41.1886 27.627 41.981 27.4606 42.7574 27.2986C43.242 27.1973 43.7152 27.5011 43.8186 27.9758C43.9196 28.4505 43.6118 28.9139 43.1272 29.0152C42.3577 29.1749 41.5745 29.3414 40.7958 29.5124C40.7706 29.5169 40.7407 29.5214 40.7131 29.5236ZM45.4057 28.5562C44.9417 28.6147 44.5053 28.311 44.4157 27.8565C44.3216 27.3818 44.6362 26.9206 45.1209 26.8284C46.6162 26.5404 47.4775 26.3964 47.512 26.3896C47.992 26.3064 48.4606 26.6281 48.5456 27.1073C48.6283 27.5843 48.3021 28.0365 47.8152 28.1198C47.806 28.122 46.9378 28.266 45.4677 28.5495C45.4448 28.5517 45.4264 28.554 45.4057 28.5562Z" fill="white" fill-opacity="0.5"/>
<path d="M185.383 38.7758L227.906 7.77881L186.394 15.3947L190.525 21.8678L183.112 32.257L185.383 38.7758Z" fill="#B7EE81"/>
<path d="M185.383 38.7758L227.906 7.77881L186.394 15.3947L190.525 21.8678L183.112 32.257L185.383 38.7758Z" fill="black" fill-opacity="0.2"/>
<path d="M227.906 7.77881L180.985 22.331L149.101 50.3414L227.906 7.77881Z" fill="#B7EE81"/>
<path d="M227.906 7.77881L180.985 22.331L149.101 50.3414L227.906 7.77881Z" fill="white" fill-opacity="0.5"/>
<path d="M186.394 15.3948L227.906 7.77886L182.51 0.75415L186.394 15.3948Z" fill="#B7EE81"/>
<path d="M186.394 15.3948L227.906 7.77886L182.51 0.75415L186.394 15.3948Z" fill="white" fill-opacity="0.5"/>
</svg>
