<svg width="229" height="67" viewBox="0 0 229 67" fill="none" xmlns="http://www.w3.org/2000/svg">
<path d="M199.203 64.9897C199.642 65.0511 200.078 65.1125 200.508 65.1688C201.002 65.2353 201.451 64.8464 201.511 64.2988C201.571 63.7538 201.222 63.26 200.732 63.1909C200.73 63.1909 200.728 63.1909 200.725 63.1909C199.949 63.086 199.159 62.976 198.355 62.8557C198.353 62.8557 198.353 62.8557 198.351 62.8557C197.861 62.7867 197.41 63.1679 197.343 63.7129C197.279 64.2579 197.623 64.7594 198.117 64.8336C198.482 64.8873 198.845 64.9385 199.203 64.9897ZM195.742 64.4677C196.228 64.5368 196.676 64.1607 196.747 63.6208C196.819 63.0758 196.477 62.5717 195.985 62.4924C195.207 62.367 194.417 62.2365 193.617 62.1009C193.118 62.0139 192.666 62.3901 192.589 62.9351C192.513 63.4801 192.85 63.9892 193.34 64.0711C194.146 64.2093 194.941 64.3423 195.724 64.4677C195.733 64.4651 195.738 64.4651 195.742 64.4677ZM202.887 65.4707C202.894 65.4707 202.901 65.4733 202.906 65.4733C203.721 65.5705 204.53 65.6575 205.308 65.7343C205.803 65.7829 206.242 65.3786 206.285 64.8311C206.329 64.2835 205.962 63.805 205.47 63.7487C204.701 63.672 203.902 63.585 203.095 63.4903C202.601 63.4314 202.157 63.828 202.104 64.3756C202.056 64.9155 202.405 65.4016 202.887 65.4707ZM190.995 63.654C191.474 63.7231 191.919 63.3572 191.998 62.825C192.079 62.2826 191.746 61.7683 191.254 61.6813C190.476 61.5406 189.688 61.3947 188.891 61.2438C188.408 61.1491 187.935 61.515 187.851 62.0574C187.768 62.5999 188.096 63.1167 188.586 63.2088C189.388 63.3598 190.18 63.5082 190.963 63.6489C190.975 63.6515 190.984 63.654 190.995 63.654ZM207.669 65.9441C207.685 65.9466 207.704 65.9492 207.722 65.9492C208.552 66.0132 209.365 66.0669 210.139 66.1053C210.635 66.1309 211.056 65.7061 211.079 65.156C211.102 64.6059 210.718 64.1402 210.222 64.1146C209.462 64.0762 208.662 64.0251 207.847 63.9611C207.35 63.9227 206.921 64.3372 206.886 64.8848C206.854 65.4144 207.2 65.8775 207.669 65.9441ZM186.26 62.7559C186.733 62.8225 187.175 62.4668 187.26 61.9423C187.348 61.3998 187.022 60.883 186.532 60.7857C185.754 60.6322 184.969 60.4736 184.174 60.3098C183.684 60.2075 183.215 60.5657 183.125 61.1081C183.035 61.6506 183.356 62.17 183.846 62.2698C184.643 62.4336 185.433 62.5922 186.216 62.7483C186.23 62.7508 186.244 62.7534 186.26 62.7559ZM212.465 66.182C212.497 66.1871 212.532 66.1897 212.566 66.1897C213.41 66.2051 214.23 66.2025 215.001 66.1846C215.498 66.1718 215.893 65.7164 215.881 65.1662C215.87 64.6161 215.459 64.1786 214.962 64.1914C214.214 64.2093 213.417 64.2118 212.596 64.1965C212.1 64.1863 211.691 64.6264 211.682 65.1765C211.672 65.6908 212.014 66.1206 212.465 66.182ZM181.536 61.7862C182.002 61.8527 182.444 61.5047 182.534 60.9853C182.628 60.4454 182.307 59.9235 181.82 59.8186C181.041 59.6523 180.258 59.4834 179.466 59.312C178.974 59.2045 178.505 59.5576 178.408 60.0975C178.311 60.6374 178.63 61.1619 179.117 61.2693C179.912 61.4433 180.7 61.6122 181.48 61.7785C181.497 61.7811 181.517 61.7836 181.536 61.7862ZM176.821 60.755C177.285 60.8216 177.722 60.4787 177.817 59.9644C177.916 59.4245 177.6 58.9 177.114 58.79C176.336 58.616 175.553 58.4369 174.765 58.2552C174.275 58.1426 173.802 58.4906 173.7 59.0279C173.599 59.5678 173.913 60.0949 174.398 60.2075C175.188 60.3892 175.976 60.5683 176.754 60.7448C176.777 60.7474 176.8 60.7525 176.821 60.755ZM172.118 59.6727C172.577 59.7367 173.014 59.4015 173.111 58.8898C173.215 58.3524 172.903 57.8228 172.418 57.7077C171.64 57.526 170.859 57.3392 170.073 57.1499C169.591 57.0322 169.108 57.375 169.004 57.9123C168.898 58.4497 169.207 58.9819 169.692 59.097C170.48 59.2864 171.265 59.4731 172.044 59.6548C172.069 59.665 172.095 59.6702 172.118 59.6727ZM217.26 66.0541C217.32 66.0618 217.381 66.0643 217.443 66.0592C218.314 65.9876 219.138 65.8878 219.896 65.7624C220.388 65.6805 220.725 65.1739 220.652 64.6289C220.578 64.0839 220.12 63.7078 219.628 63.7897C218.917 63.9074 218.136 64.002 217.309 64.0686C216.812 64.1095 216.44 64.588 216.477 65.1355C216.512 65.6191 216.847 65.9952 217.26 66.0541ZM167.424 58.5469C167.881 58.6109 168.315 58.2808 168.415 57.7742C168.521 57.2369 168.216 56.7046 167.731 56.5869C166.955 56.3976 166.174 56.2031 165.391 56.0087C164.904 55.8884 164.425 56.2262 164.315 56.7635C164.206 57.3008 164.511 57.833 164.996 57.9533C165.781 58.1503 166.564 58.3422 167.343 58.5315C167.368 58.5392 167.396 58.5418 167.424 58.5469ZM162.737 57.3801C163.192 57.4441 163.624 57.1166 163.728 56.6125C163.839 56.0752 163.536 55.5404 163.051 55.4176C162.275 55.2206 161.496 55.0236 160.713 54.8214C160.228 54.6961 159.745 55.0313 159.634 55.5686C159.521 56.1059 159.824 56.6407 160.309 56.7661C161.094 56.9682 161.875 57.1652 162.654 57.3622C162.679 57.3725 162.707 57.3776 162.737 57.3801ZM158.057 56.1801C158.507 56.2441 158.939 55.9217 159.045 55.4202C159.159 54.8854 158.858 54.3481 158.375 54.2227C157.599 54.0206 156.821 53.8159 156.04 53.6112C155.555 53.4833 155.072 53.8159 154.957 54.3507C154.841 54.8854 155.139 55.4227 155.624 55.5507C156.407 55.7579 157.188 55.9626 157.964 56.1648C157.994 56.1699 158.027 56.175 158.057 56.1801ZM221.996 65.2302C222.111 65.2456 222.229 65.2379 222.347 65.202C223.269 64.9206 224.082 64.5752 224.766 64.1735C225.205 63.915 225.371 63.3112 225.14 62.825C224.907 62.3389 224.361 62.1547 223.923 62.4105C223.354 62.7432 222.666 63.0349 221.871 63.2779C221.391 63.4238 221.109 63.9713 221.241 64.5035C221.342 64.9052 221.647 65.1816 221.996 65.2302ZM153.383 54.9468C153.834 55.0108 154.264 54.691 154.372 54.192C154.49 53.6572 154.192 53.1174 153.709 52.9894C152.935 52.7822 152.157 52.5724 151.376 52.3625C150.893 52.2321 150.406 52.5596 150.288 53.0943C150.17 53.6291 150.466 54.169 150.949 54.2995C151.729 54.5093 152.508 54.7191 153.284 54.9264C153.319 54.9366 153.351 54.9417 153.383 54.9468ZM148.717 53.6854C149.165 53.7494 149.593 53.4321 149.704 52.9357C149.824 52.4009 149.528 51.861 149.045 51.728C148.271 51.5156 147.495 51.3033 146.717 51.0883C146.236 50.9553 145.746 51.2802 145.626 51.815C145.506 52.3498 145.8 52.8896 146.282 53.0227C147.061 53.2376 147.839 53.4526 148.616 53.6649C148.65 53.6726 148.683 53.6803 148.717 53.6854ZM144.058 52.3984C144.504 52.4623 144.931 52.1476 145.044 51.6538C145.167 51.119 144.873 50.5791 144.39 50.4435C143.617 50.2286 142.84 50.0111 142.064 49.7911C141.581 49.6555 141.092 49.9779 140.969 50.5101C140.847 51.0448 141.138 51.5873 141.621 51.7229C142.399 51.9429 143.175 52.1604 143.952 52.3753C143.986 52.3856 144.021 52.3933 144.058 52.3984ZM139.401 51.0858C139.844 51.1497 140.272 50.8376 140.385 50.3437C140.507 49.8115 140.219 49.2665 139.736 49.1309C138.962 48.9109 138.188 48.6883 137.412 48.4682C136.931 48.3301 136.439 48.6499 136.315 49.1847C136.19 49.7169 136.479 50.2619 136.961 50.4C137.738 50.6226 138.514 50.8452 139.29 51.0653C139.329 51.073 139.366 51.0806 139.401 51.0858ZM134.76 49.7552C135.201 49.8192 135.629 49.5096 135.744 49.0183C135.869 48.4861 135.582 47.9411 135.1 47.803C134.328 47.5804 133.554 47.3552 132.783 47.13C132.302 46.9919 131.81 47.3091 131.683 47.8413C131.556 48.3736 131.845 48.9186 132.325 49.0593C133.099 49.2845 133.873 49.5096 134.647 49.7322C134.684 49.7425 134.721 49.7501 134.76 49.7552ZM226.064 62.6127C226.38 62.6562 226.706 62.5154 226.907 62.2084C226.96 62.1265 227.011 62.0446 227.06 61.9602C227.503 61.19 227.866 60.4122 228.141 59.6446C228.323 59.1328 228.097 58.5546 227.635 58.3524C227.173 58.1503 226.651 58.4011 226.468 58.9128C226.237 59.5602 225.925 60.2254 225.544 60.8855C225.514 60.9367 225.484 60.9853 225.452 61.034C225.161 61.4792 225.249 62.1035 225.653 62.4259C225.775 62.5308 225.918 62.5922 226.064 62.6127ZM130.119 48.4043C130.56 48.4657 130.985 48.1586 131.103 47.6699C131.23 47.1377 130.944 46.5927 130.463 46.452C129.689 46.2243 128.916 45.9965 128.142 45.7688C127.659 45.6255 127.169 45.9428 127.04 46.475C126.91 47.0072 127.197 47.5522 127.677 47.6955C128.451 47.9258 129.227 48.1535 130.001 48.3812C130.041 48.3889 130.08 48.3966 130.119 48.4043ZM125.471 47.0277C125.91 47.0891 126.335 46.7846 126.453 46.2985C126.582 45.7662 126.298 45.2187 125.818 45.0754C125.042 44.8451 124.268 44.6123 123.492 44.3794C123.009 44.2361 122.517 44.5509 122.387 45.0805C122.258 45.6127 122.542 46.1603 123.02 46.3036C123.797 46.5364 124.573 46.7693 125.349 46.9995C125.39 47.0149 125.432 47.0226 125.471 47.0277ZM120.828 45.6358C121.267 45.6972 121.69 45.3952 121.81 44.9091C121.942 44.3769 121.657 43.8293 121.179 43.686C120.408 43.4532 119.636 43.2204 118.865 42.985C118.386 42.8391 117.89 43.1513 117.758 43.6835C117.626 44.2157 117.908 44.7632 118.389 44.9091C119.16 45.1445 119.934 45.3773 120.706 45.6102C120.745 45.6204 120.787 45.6306 120.828 45.6358ZM116.194 44.2285C116.631 44.2899 117.054 43.988 117.176 43.5044C117.308 42.9747 117.028 42.4246 116.548 42.2788C115.776 42.0434 115.005 41.8054 114.235 41.57C113.757 41.4242 113.26 41.7338 113.127 42.2634C112.995 42.7931 113.274 43.3432 113.753 43.4916C114.524 43.7295 115.296 43.9649 116.067 44.2029C116.111 44.2131 116.153 44.2208 116.194 44.2285ZM111.567 42.8058C112.004 42.8673 112.427 42.5679 112.547 42.0843C112.681 41.5546 112.401 41.0045 111.921 40.8561C111.149 40.6182 110.378 40.3777 109.608 40.1397C109.13 39.9913 108.634 40.3009 108.5 40.8305C108.366 41.3602 108.645 41.9103 109.123 42.0587C109.892 42.2992 110.664 42.5372 111.438 42.7751C111.482 42.7879 111.523 42.7982 111.567 42.8058ZM106.943 41.3679C107.377 41.4293 107.8 41.1299 107.922 40.6489C108.056 40.1192 107.779 39.5691 107.301 39.4181C106.529 39.1776 105.76 38.9345 104.991 38.694C104.512 38.5431 104.016 38.8527 103.879 39.3798C103.743 39.9094 104.02 40.4595 104.499 40.6105C105.268 40.851 106.039 41.0941 106.811 41.3346C106.855 41.35 106.899 41.3602 106.943 41.3679ZM102.323 39.9145C102.757 39.9759 103.177 39.6791 103.302 39.1981C103.438 38.6684 103.161 38.1183 102.683 37.9648C101.911 37.7217 101.142 37.4786 100.375 37.233C99.8993 37.0821 99.398 37.3865 99.2617 37.9162C99.1254 38.4458 99.4003 38.9985 99.8785 39.1495C100.648 39.3925 101.417 39.6382 102.189 39.8813C102.232 39.8992 102.276 39.9094 102.323 39.9145ZM227.753 57.6949C227.764 57.6974 227.776 57.6974 227.785 57.7C228.279 57.7486 228.718 57.3469 228.762 56.7968C228.843 55.8168 228.783 54.8342 228.582 53.8696C228.471 53.3323 227.988 52.9971 227.503 53.1225C227.018 53.2453 226.715 53.7801 226.829 54.3174C226.986 55.0748 227.034 55.8475 226.972 56.6151C226.928 57.1524 227.277 57.6283 227.753 57.6949ZM97.7048 38.4484C98.1367 38.5098 98.5572 38.2156 98.6819 37.7345C98.8205 37.2049 98.5433 36.6522 98.0651 36.5012C97.2936 36.2556 96.5243 36.01 95.7597 35.7643C95.2792 35.6108 94.7826 35.9153 94.644 36.445C94.5054 36.9746 94.7802 37.5273 95.2584 37.6808C96.0253 37.9264 96.7946 38.1721 97.5661 38.4177C97.6146 38.433 97.6586 38.4407 97.7048 38.4484ZM93.0893 36.9695C93.5213 37.0309 93.9417 36.7366 94.0665 36.2582C94.2051 35.7285 93.9302 35.1758 93.4543 35.0223C92.6827 34.7741 91.9135 34.5259 91.1489 34.2777C90.6707 34.1242 90.1717 34.4261 90.0331 34.9558C89.8945 35.4854 90.1671 36.0381 90.6453 36.1916C91.4122 36.4398 92.1815 36.688 92.953 36.9362C92.9969 36.9516 93.0431 36.9644 93.0893 36.9695ZM88.4785 35.4778C88.9105 35.5392 89.3286 35.2449 89.4556 34.769C89.5942 34.2393 89.3216 33.6867 88.8458 33.5332C88.0742 33.2824 87.3073 33.0317 86.5427 32.7835C86.0645 32.6274 85.5655 32.9293 85.4246 33.4589C85.2837 33.9886 85.5563 34.5413 86.0345 34.6974C86.7991 34.9481 87.5683 35.1963 88.3399 35.4471C88.3861 35.4624 88.4323 35.4726 88.4785 35.4778ZM83.87 33.9758C84.2996 34.0372 84.7201 33.7455 84.8471 33.2696C84.988 32.7425 84.7154 32.1873 84.2396 32.0312C83.468 31.7779 82.7011 31.5271 81.9365 31.2764C81.4606 31.1203 80.9593 31.4197 80.8184 31.9493C80.6775 32.4764 80.9478 33.0316 81.4259 33.1877C82.1906 33.4385 82.9575 33.6918 83.7291 33.9451C83.7753 33.9579 83.8238 33.9681 83.87 33.9758ZM79.2661 32.4611C79.6957 32.5225 80.1138 32.2308 80.2409 31.7574C80.3818 31.2303 80.1115 30.6751 79.6357 30.5165C78.8641 30.2606 78.0972 30.0073 77.3349 29.754C76.859 29.5953 76.3578 29.8947 76.2145 30.4243C76.0713 30.9514 76.3416 31.5067 76.8198 31.6653C77.5821 31.9186 78.349 32.1719 79.1228 32.4278C79.1691 32.4432 79.2176 32.4534 79.2661 32.4611ZM226.738 52.6363C226.921 52.6619 227.11 52.6261 227.284 52.5212C227.72 52.2576 227.88 51.6512 227.642 51.1676C227.254 50.3821 226.764 49.5966 226.184 48.8316C225.865 48.4094 225.297 48.3556 224.916 48.7087C224.535 49.0618 224.486 49.6913 224.805 50.1135C225.309 50.7787 225.731 51.4542 226.062 52.122C226.205 52.4163 226.461 52.5979 226.738 52.6363ZM74.6622 30.9361C75.0919 30.9975 75.51 30.7084 75.637 30.235C75.7802 29.7079 75.51 29.1527 75.0341 28.994C74.2626 28.7382 73.4956 28.4823 72.7356 28.2264C72.2597 28.0678 71.7585 28.3646 71.6129 28.8917C71.4697 29.4188 71.74 29.9766 72.2159 30.1352C72.9782 30.3885 73.7451 30.6444 74.5167 30.9028C74.5652 30.9156 74.6137 30.9284 74.6622 30.9361ZM70.0629 29.3983C70.4903 29.4597 70.9084 29.1706 71.0377 28.6972C71.181 28.1701 70.913 27.6149 70.4371 27.4537C69.6633 27.1953 68.8986 26.9368 68.1386 26.681C67.6628 26.5223 67.1615 26.8192 67.016 27.3462C66.8704 27.8733 67.1407 28.4286 67.6143 28.5898C68.3743 28.8456 69.1412 29.1041 69.9151 29.3625C69.9659 29.3804 70.0144 29.3906 70.0629 29.3983ZM65.4659 27.8503C65.8933 27.9117 66.3091 27.6226 66.4408 27.1518C66.5863 26.6247 66.3183 26.0694 65.8425 25.9083C65.0686 25.6473 64.304 25.3888 63.5463 25.1304C63.0728 24.9692 62.5668 25.266 62.4213 25.7906C62.2758 26.3177 62.5438 26.8754 63.0173 27.0366C63.775 27.2951 64.5419 27.5535 65.3158 27.8145C65.3666 27.8324 65.4174 27.8426 65.4659 27.8503ZM60.8713 26.2921C61.2986 26.3535 61.7144 26.0669 61.8438 25.5961C61.9893 25.069 61.7237 24.5112 61.2478 24.35C60.474 24.0865 59.707 23.8255 58.9517 23.5671C58.4758 23.4059 57.9722 23.7001 57.8267 24.2246C57.6812 24.7517 57.9468 25.3095 58.4227 25.4707C59.178 25.7292 59.945 25.9901 60.7188 26.2537C60.772 26.2742 60.8228 26.2844 60.8713 26.2921ZM223.708 48.5629C223.99 48.6038 224.285 48.4938 224.491 48.2405C224.823 47.8311 224.793 47.2017 224.424 46.8332C223.842 46.2524 223.19 45.6665 222.49 45.0959C222.091 44.7684 221.527 44.863 221.231 45.3082C220.936 45.7509 221.021 46.3752 221.423 46.7027C222.075 47.2349 222.68 47.7774 223.218 48.3147C223.361 48.4554 223.532 48.5373 223.708 48.5629ZM56.2813 24.7236C56.7063 24.785 57.1221 24.4984 57.2538 24.0302C57.4016 23.5057 57.1337 22.9453 56.6601 22.7841C55.8839 22.518 55.1193 22.2544 54.3662 21.996C53.8927 21.8348 53.3868 22.1265 53.2389 22.651C53.0911 23.1781 53.3568 23.7359 53.8326 23.8997C54.5857 24.1581 55.3526 24.4217 56.1288 24.6878C56.1773 24.7031 56.2281 24.7159 56.2813 24.7236ZM51.6912 23.1449C52.1163 23.2063 52.5321 22.9223 52.6637 22.4515C52.8116 21.9269 52.5459 21.3666 52.0724 21.2028C51.2939 20.9342 50.5293 20.6706 49.7785 20.4096C49.3026 20.2459 48.7991 20.5376 48.6512 21.0621C48.5034 21.5866 48.7667 22.147 49.2426 22.3107C49.9934 22.5717 50.758 22.8353 51.5364 23.1039C51.5873 23.1244 51.6381 23.1372 51.6912 23.1449ZM47.1035 21.5559C47.5285 21.6173 47.942 21.3333 48.076 20.8651C48.2262 20.3406 47.9605 19.7802 47.487 19.6164C46.7039 19.3452 45.9393 19.0791 45.1954 18.8181C44.7219 18.6518 44.216 18.9435 44.0658 19.4706C43.9157 19.9951 44.179 20.5555 44.6549 20.7218C45.401 20.9828 46.1656 21.2489 46.9487 21.5201C46.9995 21.5355 47.0504 21.5483 47.1035 21.5559ZM219.857 45.3952C220.194 45.4439 220.541 45.2775 220.732 44.9372C220.998 44.4716 220.871 43.8549 220.451 43.5632C219.788 43.1026 219.076 42.637 218.335 42.1841C217.9 41.918 217.353 42.092 217.11 42.5756C216.87 43.0566 217.027 43.663 217.464 43.9291C218.175 44.3641 218.857 44.8093 219.492 45.2494C219.607 45.3287 219.732 45.3773 219.857 45.3952ZM42.5181 19.9542C42.9408 20.013 43.3566 19.7316 43.4883 19.2659C43.6385 18.7414 43.3751 18.181 42.9016 18.0147C42.1115 17.7384 41.3492 17.4697 40.61 17.2113C40.1365 17.045 39.6306 17.3341 39.4804 17.8586C39.3302 18.3832 39.5913 18.9435 40.0648 19.1098C40.8041 19.3708 41.5687 19.6395 42.3587 19.9158C42.4118 19.9337 42.465 19.9465 42.5181 19.9542ZM37.9327 18.3422C38.3554 18.4011 38.7689 18.1222 38.9029 17.6565C39.0531 17.1319 38.792 16.5716 38.3185 16.4027C37.5169 16.1187 36.7523 15.8501 36.0269 15.5916C35.5534 15.4228 35.0475 15.7119 34.895 16.2364C34.7425 16.7609 35.0036 17.3213 35.4771 17.4902C36.2025 17.7486 36.9671 18.0173 37.771 18.3013C37.8264 18.3217 37.8796 18.3345 37.9327 18.3422ZM215.655 42.811C216.025 42.8647 216.401 42.6549 216.577 42.2634C216.796 41.7696 216.614 41.1708 216.17 40.9278C215.468 40.5414 214.726 40.155 213.964 39.7764C213.511 39.5512 212.978 39.7738 212.774 40.2753C212.571 40.7768 212.772 41.3679 213.225 41.593C213.966 41.9615 214.687 42.3402 215.371 42.7137C215.461 42.7649 215.558 42.7982 215.655 42.811ZM33.3473 16.7149C33.77 16.7737 34.1835 16.4948 34.3175 16.0317C34.47 15.5072 34.2089 14.9468 33.7354 14.778C32.8991 14.4811 32.1345 14.2074 31.4438 13.9592C30.9702 13.7903 30.4644 14.0769 30.3096 14.6014C30.1571 15.1259 30.4158 15.6863 30.8894 15.8577C31.5801 16.1059 32.347 16.3797 33.1856 16.6765C33.2387 16.6944 33.2941 16.7072 33.3473 16.7149ZM28.7572 15.0722C29.1777 15.1311 29.5912 14.8547 29.7275 14.3916C29.8822 13.8671 29.6235 13.3041 29.1499 13.1353C27.7339 12.6261 26.9785 12.3498 26.9785 12.3498C26.5073 12.1783 25.9967 12.4623 25.842 12.9843C25.6872 13.5063 25.9436 14.0718 26.4149 14.2432C26.4149 14.2432 27.1726 14.5195 28.5932 15.0313C28.6463 15.0517 28.7018 15.0645 28.7572 15.0722ZM211.271 40.6207C211.663 40.677 212.058 40.4365 212.215 40.0118C212.405 39.5026 212.185 38.9192 211.728 38.7094C211.003 38.3768 210.243 38.0441 209.471 37.7166C209.007 37.5196 208.487 37.778 208.309 38.2923C208.131 38.8066 208.364 39.3823 208.829 39.5793C209.587 39.8992 210.33 40.2267 211.042 40.5542C211.116 40.5875 211.194 40.6105 211.271 40.6207ZM206.78 38.7145C207.191 38.7734 207.595 38.5098 207.741 38.0595C207.907 37.5401 207.665 36.972 207.196 36.7852C206.452 36.491 205.683 36.1968 204.904 35.9102C204.431 35.7336 203.922 36.0176 203.765 36.5396C203.608 37.0616 203.862 37.6271 204.333 37.8011C205.1 38.0851 205.86 38.3742 206.59 38.6633C206.653 38.6889 206.717 38.7043 206.78 38.7145ZM202.215 37.0258C202.64 37.0846 203.054 36.8032 203.188 36.3349C203.336 35.8104 203.072 35.25 202.599 35.0863C201.846 34.8253 201.067 34.5617 200.282 34.3059C199.806 34.1498 199.305 34.4517 199.164 34.9788C199.023 35.5059 199.295 36.0611 199.771 36.2172C200.545 36.4705 201.314 36.7315 202.058 36.9899C202.111 37.0053 202.164 37.0181 202.215 37.0258ZM197.602 35.5136C198.039 35.575 198.461 35.2756 198.582 34.792C198.715 34.2624 198.436 33.7123 197.958 33.5639C197.191 33.3259 196.405 33.0905 195.622 32.8602C195.142 32.7195 194.65 33.0368 194.523 33.569C194.396 34.1012 194.682 34.6462 195.163 34.7869C195.937 35.0146 196.713 35.2475 197.473 35.4829C197.517 35.4982 197.56 35.5085 197.602 35.5136ZM192.947 34.1498C193.393 34.2138 193.823 33.899 193.934 33.4027C194.054 32.8679 193.76 32.328 193.28 32.1924C192.508 31.9775 191.716 31.7651 190.931 31.5578C190.446 31.4325 189.963 31.7625 189.847 32.2973C189.732 32.8321 190.032 33.3694 190.515 33.4973C191.293 33.702 192.079 33.9144 192.843 34.1242C192.878 34.137 192.913 34.1447 192.947 34.1498ZM188.263 32.9191C188.718 32.983 189.152 32.6555 189.254 32.1489C189.362 31.6116 189.057 31.0794 188.572 30.9591C187.784 30.7621 186.987 30.5727 186.207 30.3885C185.719 30.2734 185.243 30.6188 185.139 31.1587C185.038 31.6986 185.347 32.2257 185.835 32.3408C186.609 32.5225 187.396 32.7118 188.179 32.9063C188.205 32.9114 188.235 32.9165 188.263 32.9191ZM183.543 31.8188C184.01 31.8854 184.449 31.5399 184.539 31.0231C184.634 30.4832 184.317 29.9587 183.83 29.8538C182.326 29.5263 181.46 29.3625 181.425 29.3548C180.942 29.2601 180.471 29.626 180.385 30.171C180.302 30.7135 180.63 31.2278 181.12 31.3224C181.129 31.325 182.002 31.4888 183.481 31.8112C183.504 31.8137 183.522 31.8163 183.543 31.8188Z" fill="#B7EE81"/>
<path d="M199.203 64.9897C199.642 65.0511 200.078 65.1125 200.508 65.1688C201.002 65.2353 201.451 64.8464 201.511 64.2988C201.571 63.7538 201.222 63.26 200.732 63.1909C200.73 63.1909 200.728 63.1909 200.725 63.1909C199.949 63.086 199.159 62.976 198.355 62.8557C198.353 62.8557 198.353 62.8557 198.351 62.8557C197.861 62.7867 197.41 63.1679 197.343 63.7129C197.279 64.2579 197.623 64.7594 198.117 64.8336C198.482 64.8873 198.845 64.9385 199.203 64.9897ZM195.742 64.4677C196.228 64.5368 196.676 64.1607 196.747 63.6208C196.819 63.0758 196.477 62.5717 195.985 62.4924C195.207 62.367 194.417 62.2365 193.617 62.1009C193.118 62.0139 192.666 62.3901 192.589 62.9351C192.513 63.4801 192.85 63.9892 193.34 64.0711C194.146 64.2093 194.941 64.3423 195.724 64.4677C195.733 64.4651 195.738 64.4651 195.742 64.4677ZM202.887 65.4707C202.894 65.4707 202.901 65.4733 202.906 65.4733C203.721 65.5705 204.53 65.6575 205.308 65.7343C205.803 65.7829 206.242 65.3786 206.285 64.8311C206.329 64.2835 205.962 63.805 205.47 63.7487C204.701 63.672 203.902 63.585 203.095 63.4903C202.601 63.4314 202.157 63.828 202.104 64.3756C202.056 64.9155 202.405 65.4016 202.887 65.4707ZM190.995 63.654C191.474 63.7231 191.919 63.3572 191.998 62.825C192.079 62.2826 191.746 61.7683 191.254 61.6813C190.476 61.5406 189.688 61.3947 188.891 61.2438C188.408 61.1491 187.935 61.515 187.851 62.0574C187.768 62.5999 188.096 63.1167 188.586 63.2088C189.388 63.3598 190.18 63.5082 190.963 63.6489C190.975 63.6515 190.984 63.654 190.995 63.654ZM207.669 65.9441C207.685 65.9466 207.704 65.9492 207.722 65.9492C208.552 66.0132 209.365 66.0669 210.139 66.1053C210.635 66.1309 211.056 65.7061 211.079 65.156C211.102 64.6059 210.718 64.1402 210.222 64.1146C209.462 64.0762 208.662 64.0251 207.847 63.9611C207.35 63.9227 206.921 64.3372 206.886 64.8848C206.854 65.4144 207.2 65.8775 207.669 65.9441ZM186.26 62.7559C186.733 62.8225 187.175 62.4668 187.26 61.9423C187.348 61.3998 187.022 60.883 186.532 60.7857C185.754 60.6322 184.969 60.4736 184.174 60.3098C183.684 60.2075 183.215 60.5657 183.125 61.1081C183.035 61.6506 183.356 62.17 183.846 62.2698C184.643 62.4336 185.433 62.5922 186.216 62.7483C186.23 62.7508 186.244 62.7534 186.26 62.7559ZM212.465 66.182C212.497 66.1871 212.532 66.1897 212.566 66.1897C213.41 66.2051 214.23 66.2025 215.001 66.1846C215.498 66.1718 215.893 65.7164 215.881 65.1662C215.87 64.6161 215.459 64.1786 214.962 64.1914C214.214 64.2093 213.417 64.2118 212.596 64.1965C212.1 64.1863 211.691 64.6264 211.682 65.1765C211.672 65.6908 212.014 66.1206 212.465 66.182ZM181.536 61.7862C182.002 61.8527 182.444 61.5047 182.534 60.9853C182.628 60.4454 182.307 59.9235 181.82 59.8186C181.041 59.6523 180.258 59.4834 179.466 59.312C178.974 59.2045 178.505 59.5576 178.408 60.0975C178.311 60.6374 178.63 61.1619 179.117 61.2693C179.912 61.4433 180.7 61.6122 181.48 61.7785C181.497 61.7811 181.517 61.7836 181.536 61.7862ZM176.821 60.755C177.285 60.8216 177.722 60.4787 177.817 59.9644C177.916 59.4245 177.6 58.9 177.114 58.79C176.336 58.616 175.553 58.4369 174.765 58.2552C174.275 58.1426 173.802 58.4906 173.7 59.0279C173.599 59.5678 173.913 60.0949 174.398 60.2075C175.188 60.3892 175.976 60.5683 176.754 60.7448C176.777 60.7474 176.8 60.7525 176.821 60.755ZM172.118 59.6727C172.577 59.7367 173.014 59.4015 173.111 58.8898C173.215 58.3524 172.903 57.8228 172.418 57.7077C171.64 57.526 170.859 57.3392 170.073 57.1499C169.591 57.0322 169.108 57.375 169.004 57.9123C168.898 58.4497 169.207 58.9819 169.692 59.097C170.48 59.2864 171.265 59.4731 172.044 59.6548C172.069 59.665 172.095 59.6702 172.118 59.6727ZM217.26 66.0541C217.32 66.0618 217.381 66.0643 217.443 66.0592C218.314 65.9876 219.138 65.8878 219.896 65.7624C220.388 65.6805 220.725 65.1739 220.652 64.6289C220.578 64.0839 220.12 63.7078 219.628 63.7897C218.917 63.9074 218.136 64.002 217.309 64.0686C216.812 64.1095 216.44 64.588 216.477 65.1355C216.512 65.6191 216.847 65.9952 217.26 66.0541ZM167.424 58.5469C167.881 58.6109 168.315 58.2808 168.415 57.7742C168.521 57.2369 168.216 56.7046 167.731 56.5869C166.955 56.3976 166.174 56.2031 165.391 56.0087C164.904 55.8884 164.425 56.2262 164.315 56.7635C164.206 57.3008 164.511 57.833 164.996 57.9533C165.781 58.1503 166.564 58.3422 167.343 58.5315C167.368 58.5392 167.396 58.5418 167.424 58.5469ZM162.737 57.3801C163.192 57.4441 163.624 57.1166 163.728 56.6125C163.839 56.0752 163.536 55.5404 163.051 55.4176C162.275 55.2206 161.496 55.0236 160.713 54.8214C160.228 54.6961 159.745 55.0313 159.634 55.5686C159.521 56.1059 159.824 56.6407 160.309 56.7661C161.094 56.9682 161.875 57.1652 162.654 57.3622C162.679 57.3725 162.707 57.3776 162.737 57.3801ZM158.057 56.1801C158.507 56.2441 158.939 55.9217 159.045 55.4202C159.159 54.8854 158.858 54.3481 158.375 54.2227C157.599 54.0206 156.821 53.8159 156.04 53.6112C155.555 53.4833 155.072 53.8159 154.957 54.3507C154.841 54.8854 155.139 55.4227 155.624 55.5507C156.407 55.7579 157.188 55.9626 157.964 56.1648C157.994 56.1699 158.027 56.175 158.057 56.1801ZM221.996 65.2302C222.111 65.2456 222.229 65.2379 222.347 65.202C223.269 64.9206 224.082 64.5752 224.766 64.1735C225.205 63.915 225.371 63.3112 225.14 62.825C224.907 62.3389 224.361 62.1547 223.923 62.4105C223.354 62.7432 222.666 63.0349 221.871 63.2779C221.391 63.4238 221.109 63.9713 221.241 64.5035C221.342 64.9052 221.647 65.1816 221.996 65.2302ZM153.383 54.9468C153.834 55.0108 154.264 54.691 154.372 54.192C154.49 53.6572 154.192 53.1174 153.709 52.9894C152.935 52.7822 152.157 52.5724 151.376 52.3625C150.893 52.2321 150.406 52.5596 150.288 53.0943C150.17 53.6291 150.466 54.169 150.949 54.2995C151.729 54.5093 152.508 54.7191 153.284 54.9264C153.319 54.9366 153.351 54.9417 153.383 54.9468ZM148.717 53.6854C149.165 53.7494 149.593 53.4321 149.704 52.9357C149.824 52.4009 149.528 51.861 149.045 51.728C148.271 51.5156 147.495 51.3033 146.717 51.0883C146.236 50.9553 145.746 51.2802 145.626 51.815C145.506 52.3498 145.8 52.8896 146.282 53.0227C147.061 53.2376 147.839 53.4526 148.616 53.6649C148.65 53.6726 148.683 53.6803 148.717 53.6854ZM144.058 52.3984C144.504 52.4623 144.931 52.1476 145.044 51.6538C145.167 51.119 144.873 50.5791 144.39 50.4435C143.617 50.2286 142.84 50.0111 142.064 49.7911C141.581 49.6555 141.092 49.9779 140.969 50.5101C140.847 51.0448 141.138 51.5873 141.621 51.7229C142.399 51.9429 143.175 52.1604 143.952 52.3753C143.986 52.3856 144.021 52.3933 144.058 52.3984ZM139.401 51.0858C139.844 51.1497 140.272 50.8376 140.385 50.3437C140.507 49.8115 140.219 49.2665 139.736 49.1309C138.962 48.9109 138.188 48.6883 137.412 48.4682C136.931 48.3301 136.439 48.6499 136.315 49.1847C136.19 49.7169 136.479 50.2619 136.961 50.4C137.738 50.6226 138.514 50.8452 139.29 51.0653C139.329 51.073 139.366 51.0806 139.401 51.0858ZM134.76 49.7552C135.201 49.8192 135.629 49.5096 135.744 49.0183C135.869 48.4861 135.582 47.9411 135.1 47.803C134.328 47.5804 133.554 47.3552 132.783 47.13C132.302 46.9919 131.81 47.3091 131.683 47.8413C131.556 48.3736 131.845 48.9186 132.325 49.0593C133.099 49.2845 133.873 49.5096 134.647 49.7322C134.684 49.7425 134.721 49.7501 134.76 49.7552ZM226.064 62.6127C226.38 62.6562 226.706 62.5154 226.907 62.2084C226.96 62.1265 227.011 62.0446 227.06 61.9602C227.503 61.19 227.866 60.4122 228.141 59.6446C228.323 59.1328 228.097 58.5546 227.635 58.3524C227.173 58.1503 226.651 58.4011 226.468 58.9128C226.237 59.5602 225.925 60.2254 225.544 60.8855C225.514 60.9367 225.484 60.9853 225.452 61.034C225.161 61.4792 225.249 62.1035 225.653 62.4259C225.775 62.5308 225.918 62.5922 226.064 62.6127ZM130.119 48.4043C130.56 48.4657 130.985 48.1586 131.103 47.6699C131.23 47.1377 130.944 46.5927 130.463 46.452C129.689 46.2243 128.916 45.9965 128.142 45.7688C127.659 45.6255 127.169 45.9428 127.04 46.475C126.91 47.0072 127.197 47.5522 127.677 47.6955C128.451 47.9258 129.227 48.1535 130.001 48.3812C130.041 48.3889 130.08 48.3966 130.119 48.4043ZM125.471 47.0277C125.91 47.0891 126.335 46.7846 126.453 46.2985C126.582 45.7662 126.298 45.2187 125.818 45.0754C125.042 44.8451 124.268 44.6123 123.492 44.3794C123.009 44.2361 122.517 44.5509 122.387 45.0805C122.258 45.6127 122.542 46.1603 123.02 46.3036C123.797 46.5364 124.573 46.7693 125.349 46.9995C125.39 47.0149 125.432 47.0226 125.471 47.0277ZM120.828 45.6358C121.267 45.6972 121.69 45.3952 121.81 44.9091C121.942 44.3769 121.657 43.8293 121.179 43.686C120.408 43.4532 119.636 43.2204 118.865 42.985C118.386 42.8391 117.89 43.1513 117.758 43.6835C117.626 44.2157 117.908 44.7632 118.389 44.9091C119.16 45.1445 119.934 45.3773 120.706 45.6102C120.745 45.6204 120.787 45.6306 120.828 45.6358ZM116.194 44.2285C116.631 44.2899 117.054 43.988 117.176 43.5044C117.308 42.9747 117.028 42.4246 116.548 42.2788C115.776 42.0434 115.005 41.8054 114.235 41.57C113.757 41.4242 113.26 41.7338 113.127 42.2634C112.995 42.7931 113.274 43.3432 113.753 43.4916C114.524 43.7295 115.296 43.9649 116.067 44.2029C116.111 44.2131 116.153 44.2208 116.194 44.2285ZM111.567 42.8058C112.004 42.8673 112.427 42.5679 112.547 42.0843C112.681 41.5546 112.401 41.0045 111.921 40.8561C111.149 40.6182 110.378 40.3777 109.608 40.1397C109.13 39.9913 108.634 40.3009 108.5 40.8305C108.366 41.3602 108.645 41.9103 109.123 42.0587C109.892 42.2992 110.664 42.5372 111.438 42.7751C111.482 42.7879 111.523 42.7982 111.567 42.8058ZM106.943 41.3679C107.377 41.4293 107.8 41.1299 107.922 40.6489C108.056 40.1192 107.779 39.5691 107.301 39.4181C106.529 39.1776 105.76 38.9345 104.991 38.694C104.512 38.5431 104.016 38.8527 103.879 39.3798C103.743 39.9094 104.02 40.4595 104.499 40.6105C105.268 40.851 106.039 41.0941 106.811 41.3346C106.855 41.35 106.899 41.3602 106.943 41.3679ZM102.323 39.9145C102.757 39.9759 103.177 39.6791 103.302 39.1981C103.438 38.6684 103.161 38.1183 102.683 37.9648C101.911 37.7217 101.142 37.4786 100.375 37.233C99.8993 37.0821 99.398 37.3865 99.2617 37.9162C99.1254 38.4458 99.4003 38.9985 99.8785 39.1495C100.648 39.3925 101.417 39.6382 102.189 39.8813C102.232 39.8992 102.276 39.9094 102.323 39.9145ZM227.753 57.6949C227.764 57.6974 227.776 57.6974 227.785 57.7C228.279 57.7486 228.718 57.3469 228.762 56.7968C228.843 55.8168 228.783 54.8342 228.582 53.8696C228.471 53.3323 227.988 52.9971 227.503 53.1225C227.018 53.2453 226.715 53.7801 226.829 54.3174C226.986 55.0748 227.034 55.8475 226.972 56.6151C226.928 57.1524 227.277 57.6283 227.753 57.6949ZM97.7048 38.4484C98.1367 38.5098 98.5572 38.2156 98.6819 37.7345C98.8205 37.2049 98.5433 36.6522 98.0651 36.5012C97.2936 36.2556 96.5243 36.01 95.7597 35.7643C95.2792 35.6108 94.7826 35.9153 94.644 36.445C94.5054 36.9746 94.7802 37.5273 95.2584 37.6808C96.0253 37.9264 96.7946 38.1721 97.5661 38.4177C97.6146 38.433 97.6586 38.4407 97.7048 38.4484ZM93.0893 36.9695C93.5213 37.0309 93.9417 36.7366 94.0665 36.2582C94.2051 35.7285 93.9302 35.1758 93.4543 35.0223C92.6827 34.7741 91.9135 34.5259 91.1489 34.2777C90.6707 34.1242 90.1717 34.4261 90.0331 34.9558C89.8945 35.4854 90.1671 36.0381 90.6453 36.1916C91.4122 36.4398 92.1815 36.688 92.953 36.9362C92.9969 36.9516 93.0431 36.9644 93.0893 36.9695ZM88.4785 35.4778C88.9105 35.5392 89.3286 35.2449 89.4556 34.769C89.5942 34.2393 89.3216 33.6867 88.8458 33.5332C88.0742 33.2824 87.3073 33.0317 86.5427 32.7835C86.0645 32.6274 85.5655 32.9293 85.4246 33.4589C85.2837 33.9886 85.5563 34.5413 86.0345 34.6974C86.7991 34.9481 87.5683 35.1963 88.3399 35.4471C88.3861 35.4624 88.4323 35.4726 88.4785 35.4778ZM83.87 33.9758C84.2996 34.0372 84.7201 33.7455 84.8471 33.2696C84.988 32.7425 84.7154 32.1873 84.2396 32.0312C83.468 31.7779 82.7011 31.5271 81.9365 31.2764C81.4606 31.1203 80.9593 31.4197 80.8184 31.9493C80.6775 32.4764 80.9478 33.0316 81.4259 33.1877C82.1906 33.4385 82.9575 33.6918 83.7291 33.9451C83.7753 33.9579 83.8238 33.9681 83.87 33.9758ZM79.2661 32.4611C79.6957 32.5225 80.1138 32.2308 80.2409 31.7574C80.3818 31.2303 80.1115 30.6751 79.6357 30.5165C78.8641 30.2606 78.0972 30.0073 77.3349 29.754C76.859 29.5953 76.3578 29.8947 76.2145 30.4243C76.0713 30.9514 76.3416 31.5067 76.8198 31.6653C77.5821 31.9186 78.349 32.1719 79.1228 32.4278C79.1691 32.4432 79.2176 32.4534 79.2661 32.4611ZM226.738 52.6363C226.921 52.6619 227.11 52.6261 227.284 52.5212C227.72 52.2576 227.88 51.6512 227.642 51.1676C227.254 50.3821 226.764 49.5966 226.184 48.8316C225.865 48.4094 225.297 48.3556 224.916 48.7087C224.535 49.0618 224.486 49.6913 224.805 50.1135C225.309 50.7787 225.731 51.4542 226.062 52.122C226.205 52.4163 226.461 52.5979 226.738 52.6363ZM74.6622 30.9361C75.0919 30.9975 75.51 30.7084 75.637 30.235C75.7802 29.7079 75.51 29.1527 75.0341 28.994C74.2626 28.7382 73.4956 28.4823 72.7356 28.2264C72.2597 28.0678 71.7585 28.3646 71.6129 28.8917C71.4697 29.4188 71.74 29.9766 72.2159 30.1352C72.9782 30.3885 73.7451 30.6444 74.5167 30.9028C74.5652 30.9156 74.6137 30.9284 74.6622 30.9361ZM70.0629 29.3983C70.4903 29.4597 70.9084 29.1706 71.0377 28.6972C71.181 28.1701 70.913 27.6149 70.4371 27.4537C69.6633 27.1953 68.8986 26.9368 68.1386 26.681C67.6628 26.5223 67.1615 26.8192 67.016 27.3462C66.8704 27.8733 67.1407 28.4286 67.6143 28.5898C68.3743 28.8456 69.1412 29.1041 69.9151 29.3625C69.9659 29.3804 70.0144 29.3906 70.0629 29.3983ZM65.4659 27.8503C65.8933 27.9117 66.3091 27.6226 66.4408 27.1518C66.5863 26.6247 66.3183 26.0694 65.8425 25.9083C65.0686 25.6473 64.304 25.3888 63.5463 25.1304C63.0728 24.9692 62.5668 25.266 62.4213 25.7906C62.2758 26.3177 62.5438 26.8754 63.0173 27.0366C63.775 27.2951 64.5419 27.5535 65.3158 27.8145C65.3666 27.8324 65.4174 27.8426 65.4659 27.8503ZM60.8713 26.2921C61.2986 26.3535 61.7144 26.0669 61.8438 25.5961C61.9893 25.069 61.7237 24.5112 61.2478 24.35C60.474 24.0865 59.707 23.8255 58.9517 23.5671C58.4758 23.4059 57.9722 23.7001 57.8267 24.2246C57.6812 24.7517 57.9468 25.3095 58.4227 25.4707C59.178 25.7292 59.945 25.9901 60.7188 26.2537C60.772 26.2742 60.8228 26.2844 60.8713 26.2921ZM223.708 48.5629C223.99 48.6038 224.285 48.4938 224.491 48.2405C224.823 47.8311 224.793 47.2017 224.424 46.8332C223.842 46.2524 223.19 45.6665 222.49 45.0959C222.091 44.7684 221.527 44.863 221.231 45.3082C220.936 45.7509 221.021 46.3752 221.423 46.7027C222.075 47.2349 222.68 47.7774 223.218 48.3147C223.361 48.4554 223.532 48.5373 223.708 48.5629ZM56.2813 24.7236C56.7063 24.785 57.1221 24.4984 57.2538 24.0302C57.4016 23.5057 57.1337 22.9453 56.6601 22.7841C55.8839 22.518 55.1193 22.2544 54.3662 21.996C53.8927 21.8348 53.3868 22.1265 53.2389 22.651C53.0911 23.1781 53.3568 23.7359 53.8326 23.8997C54.5857 24.1581 55.3526 24.4217 56.1288 24.6878C56.1773 24.7031 56.2281 24.7159 56.2813 24.7236ZM51.6912 23.1449C52.1163 23.2063 52.5321 22.9223 52.6637 22.4515C52.8116 21.9269 52.5459 21.3666 52.0724 21.2028C51.2939 20.9342 50.5293 20.6706 49.7785 20.4096C49.3026 20.2459 48.7991 20.5376 48.6512 21.0621C48.5034 21.5866 48.7667 22.147 49.2426 22.3107C49.9934 22.5717 50.758 22.8353 51.5364 23.1039C51.5873 23.1244 51.6381 23.1372 51.6912 23.1449ZM47.1035 21.5559C47.5285 21.6173 47.942 21.3333 48.076 20.8651C48.2262 20.3406 47.9605 19.7802 47.487 19.6164C46.7039 19.3452 45.9393 19.0791 45.1954 18.8181C44.7219 18.6518 44.216 18.9435 44.0658 19.4706C43.9157 19.9951 44.179 20.5555 44.6549 20.7218C45.401 20.9828 46.1656 21.2489 46.9487 21.5201C46.9995 21.5355 47.0504 21.5483 47.1035 21.5559ZM219.857 45.3952C220.194 45.4439 220.541 45.2775 220.732 44.9372C220.998 44.4716 220.871 43.8549 220.451 43.5632C219.788 43.1026 219.076 42.637 218.335 42.1841C217.9 41.918 217.353 42.092 217.11 42.5756C216.87 43.0566 217.027 43.663 217.464 43.9291C218.175 44.3641 218.857 44.8093 219.492 45.2494C219.607 45.3287 219.732 45.3773 219.857 45.3952ZM42.5181 19.9542C42.9408 20.013 43.3566 19.7316 43.4883 19.2659C43.6385 18.7414 43.3751 18.181 42.9016 18.0147C42.1115 17.7384 41.3492 17.4697 40.61 17.2113C40.1365 17.045 39.6306 17.3341 39.4804 17.8586C39.3302 18.3832 39.5913 18.9435 40.0648 19.1098C40.8041 19.3708 41.5687 19.6395 42.3587 19.9158C42.4118 19.9337 42.465 19.9465 42.5181 19.9542ZM37.9327 18.3422C38.3554 18.4011 38.7689 18.1222 38.9029 17.6565C39.0531 17.1319 38.792 16.5716 38.3185 16.4027C37.5169 16.1187 36.7523 15.8501 36.0269 15.5916C35.5534 15.4228 35.0475 15.7119 34.895 16.2364C34.7425 16.7609 35.0036 17.3213 35.4771 17.4902C36.2025 17.7486 36.9671 18.0173 37.771 18.3013C37.8264 18.3217 37.8796 18.3345 37.9327 18.3422ZM215.655 42.811C216.025 42.8647 216.401 42.6549 216.577 42.2634C216.796 41.7696 216.614 41.1708 216.17 40.9278C215.468 40.5414 214.726 40.155 213.964 39.7764C213.511 39.5512 212.978 39.7738 212.774 40.2753C212.571 40.7768 212.772 41.3679 213.225 41.593C213.966 41.9615 214.687 42.3402 215.371 42.7137C215.461 42.7649 215.558 42.7982 215.655 42.811ZM33.3473 16.7149C33.77 16.7737 34.1835 16.4948 34.3175 16.0317C34.47 15.5072 34.2089 14.9468 33.7354 14.778C32.8991 14.4811 32.1345 14.2074 31.4438 13.9592C30.9702 13.7903 30.4644 14.0769 30.3096 14.6014C30.1571 15.1259 30.4158 15.6863 30.8894 15.8577C31.5801 16.1059 32.347 16.3797 33.1856 16.6765C33.2387 16.6944 33.2941 16.7072 33.3473 16.7149ZM28.7572 15.0722C29.1777 15.1311 29.5912 14.8547 29.7275 14.3916C29.8822 13.8671 29.6235 13.3041 29.1499 13.1353C27.7339 12.6261 26.9785 12.3498 26.9785 12.3498C26.5073 12.1783 25.9967 12.4623 25.842 12.9843C25.6872 13.5063 25.9436 14.0718 26.4149 14.2432C26.4149 14.2432 27.1726 14.5195 28.5932 15.0313C28.6463 15.0517 28.7018 15.0645 28.7572 15.0722ZM211.271 40.6207C211.663 40.677 212.058 40.4365 212.215 40.0118C212.405 39.5026 212.185 38.9192 211.728 38.7094C211.003 38.3768 210.243 38.0441 209.471 37.7166C209.007 37.5196 208.487 37.778 208.309 38.2923C208.131 38.8066 208.364 39.3823 208.829 39.5793C209.587 39.8992 210.33 40.2267 211.042 40.5542C211.116 40.5875 211.194 40.6105 211.271 40.6207ZM206.78 38.7145C207.191 38.7734 207.595 38.5098 207.741 38.0595C207.907 37.5401 207.665 36.972 207.196 36.7852C206.452 36.491 205.683 36.1968 204.904 35.9102C204.431 35.7336 203.922 36.0176 203.765 36.5396C203.608 37.0616 203.862 37.6271 204.333 37.8011C205.1 38.0851 205.86 38.3742 206.59 38.6633C206.653 38.6889 206.717 38.7043 206.78 38.7145ZM202.215 37.0258C202.64 37.0846 203.054 36.8032 203.188 36.3349C203.336 35.8104 203.072 35.25 202.599 35.0863C201.846 34.8253 201.067 34.5617 200.282 34.3059C199.806 34.1498 199.305 34.4517 199.164 34.9788C199.023 35.5059 199.295 36.0611 199.771 36.2172C200.545 36.4705 201.314 36.7315 202.058 36.9899C202.111 37.0053 202.164 37.0181 202.215 37.0258ZM197.602 35.5136C198.039 35.575 198.461 35.2756 198.582 34.792C198.715 34.2624 198.436 33.7123 197.958 33.5639C197.191 33.3259 196.405 33.0905 195.622 32.8602C195.142 32.7195 194.65 33.0368 194.523 33.569C194.396 34.1012 194.682 34.6462 195.163 34.7869C195.937 35.0146 196.713 35.2475 197.473 35.4829C197.517 35.4982 197.56 35.5085 197.602 35.5136ZM192.947 34.1498C193.393 34.2138 193.823 33.899 193.934 33.4027C194.054 32.8679 193.76 32.328 193.28 32.1924C192.508 31.9775 191.716 31.7651 190.931 31.5578C190.446 31.4325 189.963 31.7625 189.847 32.2973C189.732 32.8321 190.032 33.3694 190.515 33.4973C191.293 33.702 192.079 33.9144 192.843 34.1242C192.878 34.137 192.913 34.1447 192.947 34.1498ZM188.263 32.9191C188.718 32.983 189.152 32.6555 189.254 32.1489C189.362 31.6116 189.057 31.0794 188.572 30.9591C187.784 30.7621 186.987 30.5727 186.207 30.3885C185.719 30.2734 185.243 30.6188 185.139 31.1587C185.038 31.6986 185.347 32.2257 185.835 32.3408C186.609 32.5225 187.396 32.7118 188.179 32.9063C188.205 32.9114 188.235 32.9165 188.263 32.9191ZM183.543 31.8188C184.01 31.8854 184.449 31.5399 184.539 31.0231C184.634 30.4832 184.317 29.9587 183.83 29.8538C182.326 29.5263 181.46 29.3625 181.425 29.3548C180.942 29.2601 180.471 29.626 180.385 30.171C180.302 30.7135 180.63 31.2278 181.12 31.3224C181.129 31.325 182.002 31.4888 183.481 31.8112C183.504 31.8137 183.522 31.8163 183.543 31.8188Z" fill="white" fill-opacity="0.5"/>
<path d="M42.7664 43.4415L-0.000244141 8.18896L41.7489 16.8505L37.5942 24.2122L45.05 36.0277L42.7664 43.4415Z" fill="#B7EE81"/>
<path d="M42.7664 43.4415L-0.000244141 8.18896L41.7489 16.8505L37.5942 24.2122L45.05 36.0277L42.7664 43.4415Z" fill="black" fill-opacity="0.2"/>
<path d="M-0.000244141 8.18896L47.1888 24.739L79.2551 56.5949L-0.000244141 8.18896Z" fill="#B7EE81"/>
<path d="M-0.000244141 8.18896L47.1888 24.739L79.2551 56.5949L-0.000244141 8.18896Z" fill="white" fill-opacity="0.5"/>
<path d="M41.7491 16.8506L3.8147e-06 8.18908L45.655 0.199951L41.7491 16.8506Z" fill="#B7EE81"/>
<path d="M41.7491 16.8506L3.8147e-06 8.18908L45.655 0.199951L41.7491 16.8506Z" fill="white" fill-opacity="0.5"/>
</svg>
