<svg width="68" height="68" viewBox="0 0 68 68" fill="none" xmlns="http://www.w3.org/2000/svg">
<g opacity="0.8">
<path fill-rule="evenodd" clip-rule="evenodd" d="M20.6762 11.5709L52.9391 36.4696C53.5655 35.8202 54.4682 35.4477 55.4374 35.5292C57.1476 35.673 58.4173 37.176 58.2734 38.8861C58.1296 40.5963 56.6266 41.866 54.9165 41.7221C53.7663 41.6254 52.8153 40.9138 52.3596 39.9379L13.0607 53.3148C13.1715 53.6803 13.2163 54.0724 13.1823 54.4762C13.0385 56.1863 11.5355 57.456 9.82537 57.3122C8.11523 57.1683 6.8455 55.6654 6.98935 53.9552C7.12797 52.3073 8.52863 51.0683 10.1606 51.1091L17.1895 12.9348C15.7813 12.5415 14.8054 11.1925 14.9325 9.68187C15.0763 7.97173 16.5793 6.702 18.2894 6.84585C19.9996 6.9897 21.2693 8.49266 21.1254 10.2028C21.0832 10.705 20.9237 11.1693 20.6762 11.5709ZM52.0805 38.3652C52.0702 38.4878 52.0671 38.6093 52.071 38.7293L28.9559 41.66C28.646 40.4005 27.5622 39.4212 26.1982 39.3065C25.9012 39.2815 25.6104 39.2991 25.3319 39.3543L19.0623 12.8737C19.5397 12.7051 19.9666 12.4224 20.3072 12.0557L52.5609 36.9475C52.2956 37.3603 52.1245 37.8421 52.0805 38.3652ZM24.7478 39.5317L18.4705 13.0189C18.2493 13.0504 18.0214 13.0585 17.7896 13.0405L10.7665 51.1833C11.3336 51.3099 11.8375 51.5894 12.2371 51.9733L23.1985 43.871C22.9236 43.3592 22.7889 42.7645 22.8412 42.1425C22.942 40.9447 23.7094 39.963 24.7478 39.5317ZM23.5383 44.3775L12.6342 52.4374C12.7044 52.5378 12.7687 52.6425 12.8267 52.7508L52.1574 39.3631C52.155 39.3532 52.1527 39.3433 52.1504 39.3334L29.0423 42.2632C29.0481 42.395 29.0455 42.5285 29.0342 42.6634C28.8903 44.3735 27.3874 45.6433 25.6772 45.4994C24.8078 45.4263 24.0522 45.0019 23.5383 44.3775Z" fill="#B7EE81"/>
<path fill-rule="evenodd" clip-rule="evenodd" d="M20.6762 11.5709L52.9391 36.4696C53.5655 35.8202 54.4682 35.4477 55.4374 35.5292C57.1476 35.673 58.4173 37.176 58.2734 38.8861C58.1296 40.5963 56.6266 41.866 54.9165 41.7221C53.7663 41.6254 52.8153 40.9138 52.3596 39.9379L13.0607 53.3148C13.1715 53.6803 13.2163 54.0724 13.1823 54.4762C13.0385 56.1863 11.5355 57.456 9.82537 57.3122C8.11523 57.1683 6.8455 55.6654 6.98935 53.9552C7.12797 52.3073 8.52863 51.0683 10.1606 51.1091L17.1895 12.9348C15.7813 12.5415 14.8054 11.1925 14.9325 9.68187C15.0763 7.97173 16.5793 6.702 18.2894 6.84585C19.9996 6.9897 21.2693 8.49266 21.1254 10.2028C21.0832 10.705 20.9237 11.1693 20.6762 11.5709ZM52.0805 38.3652C52.0702 38.4878 52.0671 38.6093 52.071 38.7293L28.9559 41.66C28.646 40.4005 27.5622 39.4212 26.1982 39.3065C25.9012 39.2815 25.6104 39.2991 25.3319 39.3543L19.0623 12.8737C19.5397 12.7051 19.9666 12.4224 20.3072 12.0557L52.5609 36.9475C52.2956 37.3603 52.1245 37.8421 52.0805 38.3652ZM24.7478 39.5317L18.4705 13.0189C18.2493 13.0504 18.0214 13.0585 17.7896 13.0405L10.7665 51.1833C11.3336 51.3099 11.8375 51.5894 12.2371 51.9733L23.1985 43.871C22.9236 43.3592 22.7889 42.7645 22.8412 42.1425C22.942 40.9447 23.7094 39.963 24.7478 39.5317ZM23.5383 44.3775L12.6342 52.4374C12.7044 52.5378 12.7687 52.6425 12.8267 52.7508L52.1574 39.3631C52.155 39.3532 52.1527 39.3433 52.1504 39.3334L29.0423 42.2632C29.0481 42.395 29.0455 42.5285 29.0342 42.6634C28.8903 44.3735 27.3874 45.6433 25.6772 45.4994C24.8078 45.4263 24.0522 45.0019 23.5383 44.3775Z" fill="white" fill-opacity="0.65"/>
</g>
</svg>
