<svg width="16" height="16" viewBox="0 0 16 16" fill="none" xmlns="http://www.w3.org/2000/svg">
<path d="M7.29553 12.0115L1.62709 6.34308C1.2353 5.95129 1.2353 5.31776 1.62709 4.93014L2.56905 3.98818C2.96084 3.59639 3.59438 3.59639 3.982 3.98818L7.99992 8.0061L12.0178 3.98818C12.4096 3.59639 13.0432 3.59639 13.4308 3.98818L14.3727 4.93014C14.7645 5.32193 14.7645 5.95546 14.3727 6.34308L8.70431 12.0115C8.32085 12.4033 7.68732 12.4033 7.29553 12.0115Z" fill="#1443BD"/>
<path d="M7.29553 12.0115L1.62709 6.34308C1.2353 5.95129 1.2353 5.31776 1.62709 4.93014L2.56905 3.98818C2.96084 3.59639 3.59438 3.59639 3.982 3.98818L7.99992 8.0061L12.0178 3.98818C12.4096 3.59639 13.0432 3.59639 13.4308 3.98818L14.3727 4.93014C14.7645 5.32193 14.7645 5.95546 14.3727 6.34308L8.70431 12.0115C8.32085 12.4033 7.68732 12.4033 7.29553 12.0115Z" fill="black" fill-opacity="0.5"/>
</svg>
