<svg width="372" height="354" viewBox="0 0 372 354" fill="none" xmlns="http://www.w3.org/2000/svg">
<ellipse rx="156.605" ry="152.336" transform="matrix(-1 0 0 1 189.543 152.336)" fill="#F1F380"/>
<ellipse rx="156.605" ry="152.336" transform="matrix(-1 0 0 1 189.543 152.336)" fill="white" fill-opacity="0.65"/>
<path fill-rule="evenodd" clip-rule="evenodd" d="M255.801 170.622C236.273 161.638 224.635 185.201 234.456 198.321C246.44 214.331 252.579 232.753 255.998 238.303C258.882 242.985 266.781 254.4 276.294 249.139C285.048 244.297 280.277 225.293 280.277 225.293C280.277 225.293 279.89 181.706 255.801 170.622Z" fill="#B7EE81"/>
<path fill-rule="evenodd" clip-rule="evenodd" d="M255.801 170.622C236.273 161.638 224.635 185.201 234.456 198.321C246.44 214.331 252.579 232.753 255.998 238.303C258.882 242.985 266.781 254.4 276.294 249.139C285.048 244.297 280.277 225.293 280.277 225.293C280.277 225.293 279.89 181.706 255.801 170.622Z" fill="white" fill-opacity="0.2"/>
<path fill-rule="evenodd" clip-rule="evenodd" d="M244.743 246.141C252.251 254.701 263.087 271.919 269.875 265.888C273.989 262.234 268.489 244.926 253.434 235.509C240.628 227.499 237.234 237.582 244.743 246.141Z" fill="#B7EE81"/>
<path fill-rule="evenodd" clip-rule="evenodd" d="M244.743 246.141C252.251 254.701 263.087 271.919 269.875 265.888C273.989 262.234 268.489 244.926 253.434 235.509C240.628 227.499 237.234 237.582 244.743 246.141Z" fill="white" fill-opacity="0.2"/>
<path fill-rule="evenodd" clip-rule="evenodd" d="M314.535 245.48C321.174 236.768 323.598 224.265 316.188 221.059C309.084 217.985 297.316 225.554 291.865 240.119C286.414 254.685 283.269 265.157 288.601 266.978C297.349 269.966 305.767 256.987 314.535 245.48Z" fill="#B7EE81"/>
<path fill-rule="evenodd" clip-rule="evenodd" d="M314.535 245.48C321.174 236.768 323.598 224.265 316.188 221.059C309.084 217.985 297.316 225.554 291.865 240.119C286.414 254.685 283.269 265.157 288.601 266.978C297.349 269.966 305.767 256.987 314.535 245.48Z" fill="white" fill-opacity="0.2"/>
<path fill-rule="evenodd" clip-rule="evenodd" d="M316.593 186.744C313.738 184.875 310.145 184.449 306.868 185.47C302.294 186.895 295.353 191.138 288.483 203.318C279.513 219.22 274.844 236.652 275.767 247.695C276.37 254.916 285.516 258.03 290.633 252.764C292.983 250.346 295.469 246.618 297.902 240.963C307.691 218.207 316.844 203.946 317.936 202.515C320.848 198.694 322.93 190.892 316.593 186.744Z" fill="#B7EE81"/>
<path fill-rule="evenodd" clip-rule="evenodd" d="M316.593 186.744C313.738 184.875 310.145 184.449 306.868 185.47C302.294 186.895 295.353 191.138 288.483 203.318C279.513 219.22 274.844 236.652 275.767 247.695C276.37 254.916 285.516 258.03 290.633 252.764C292.983 250.346 295.469 246.618 297.902 240.963C307.691 218.207 316.844 203.946 317.936 202.515C320.848 198.694 322.93 190.892 316.593 186.744Z" fill="black" fill-opacity="0.2"/>
<path d="M297.563 247.966C297.459 247.869 297.294 247.873 297.194 247.974L297.102 248.071L297.042 248.136C296.92 248.269 296.779 248.427 296.621 248.61C296.169 249.134 295.667 249.76 295.126 250.488C293.583 252.566 292.042 255.046 290.603 257.924C286.496 266.143 284.032 275.906 284.032 287.18C284.032 287.32 284.148 287.434 284.293 287.434C284.437 287.434 284.554 287.32 284.554 287.18C284.554 275.985 286.999 266.298 291.073 258.146C292.498 255.295 294.024 252.84 295.549 250.786C296.051 250.11 296.519 249.524 296.942 249.028L297.021 248.937C297.158 248.777 297.282 248.638 297.39 248.519L297.488 248.413L297.572 248.325C297.671 248.223 297.667 248.063 297.563 247.966Z" fill="#2A84C6"/>
<path d="M297.563 247.966C297.459 247.869 297.294 247.873 297.194 247.974L297.102 248.071L297.042 248.136C296.92 248.269 296.779 248.427 296.621 248.61C296.169 249.134 295.667 249.76 295.126 250.488C293.583 252.566 292.042 255.046 290.603 257.924C286.496 266.143 284.032 275.906 284.032 287.18C284.032 287.32 284.148 287.434 284.293 287.434C284.437 287.434 284.554 287.32 284.554 287.18C284.554 275.985 286.999 266.298 291.073 258.146C292.498 255.295 294.024 252.84 295.549 250.786C296.051 250.11 296.519 249.524 296.942 249.028L297.021 248.937C297.158 248.777 297.282 248.638 297.39 248.519L297.488 248.413L297.572 248.325C297.671 248.223 297.667 248.063 297.563 247.966Z" fill="black" fill-opacity="0.35"/>
<path d="M260.564 251.27C260.478 251.158 260.314 251.135 260.199 251.219C260.083 251.302 260.06 251.462 260.146 251.574C261.935 253.904 263.585 256.409 265.103 259.065C268.309 264.675 270.788 270.688 272.627 276.702C273.271 278.806 273.789 280.761 274.192 282.514L274.247 282.755C274.346 283.191 274.432 283.59 274.505 283.948L274.57 284.275C274.587 284.362 274.602 284.441 274.616 284.514L274.652 284.712C274.676 284.85 274.811 284.943 274.953 284.92C275.095 284.896 275.191 284.765 275.167 284.627L275.119 284.366C275.108 284.308 275.096 284.246 275.083 284.18L275.056 284.043C274.961 283.57 274.844 283.021 274.702 282.403C274.296 280.639 273.775 278.673 273.127 276.557C271.278 270.51 268.786 264.463 265.559 258.818C264.03 256.144 262.367 253.619 260.564 251.27Z" fill="#2A84C6"/>
<path d="M260.564 251.27C260.478 251.158 260.314 251.135 260.199 251.219C260.083 251.302 260.06 251.462 260.146 251.574C261.935 253.904 263.585 256.409 265.103 259.065C268.309 264.675 270.788 270.688 272.627 276.702C273.271 278.806 273.789 280.761 274.192 282.514L274.247 282.755C274.346 283.191 274.432 283.59 274.505 283.948L274.57 284.275C274.587 284.362 274.602 284.441 274.616 284.514L274.652 284.712C274.676 284.85 274.811 284.943 274.953 284.92C275.095 284.896 275.191 284.765 275.167 284.627L275.119 284.366C275.108 284.308 275.096 284.246 275.083 284.18L275.056 284.043C274.961 283.57 274.844 283.021 274.702 282.403C274.296 280.639 273.775 278.673 273.127 276.557C271.278 270.51 268.786 264.463 265.559 258.818C264.03 256.144 262.367 253.619 260.564 251.27Z" fill="black" fill-opacity="0.35"/>
<path d="M252.353 191.904C252.249 192.001 252.246 192.162 252.346 192.263L252.41 192.33C252.464 192.387 252.529 192.456 252.603 192.536L252.768 192.718C252.921 192.887 253.089 193.076 253.271 193.287L253.34 193.367C254.136 194.293 255.024 195.408 255.98 196.71C258.715 200.435 261.451 204.92 264.005 210.169C268.256 218.906 271.567 228.871 273.573 240.071C276.008 253.669 276.412 268.521 274.419 284.639C274.401 284.778 274.503 284.905 274.647 284.922C274.79 284.938 274.92 284.839 274.937 284.7C276.936 268.533 276.531 253.63 274.087 239.984C272.073 228.738 268.748 218.73 264.477 209.952C261.909 204.674 259.157 200.164 256.405 196.415L256.192 196.126C255.308 194.936 254.485 193.908 253.74 193.041L253.535 192.804C253.379 192.626 253.235 192.464 253.102 192.318L252.991 192.197C252.928 192.128 252.871 192.068 252.822 192.015L252.723 191.912C252.623 191.811 252.458 191.807 252.353 191.904Z" fill="#2A84C6"/>
<path d="M252.353 191.904C252.249 192.001 252.246 192.162 252.346 192.263L252.41 192.33C252.464 192.387 252.529 192.456 252.603 192.536L252.768 192.718C252.921 192.887 253.089 193.076 253.271 193.287L253.34 193.367C254.136 194.293 255.024 195.408 255.98 196.71C258.715 200.435 261.451 204.92 264.005 210.169C268.256 218.906 271.567 228.871 273.573 240.071C276.008 253.669 276.412 268.521 274.419 284.639C274.401 284.778 274.503 284.905 274.647 284.922C274.79 284.938 274.92 284.839 274.937 284.7C276.936 268.533 276.531 253.63 274.087 239.984C272.073 228.738 268.748 218.73 264.477 209.952C261.909 204.674 259.157 200.164 256.405 196.415L256.192 196.126C255.308 194.936 254.485 193.908 253.74 193.041L253.535 192.804C253.379 192.626 253.235 192.464 253.102 192.318L252.991 192.197C252.928 192.128 252.871 192.068 252.822 192.015L252.723 191.912C252.623 191.811 252.458 191.807 252.353 191.904Z" fill="black" fill-opacity="0.35"/>
<path d="M294.438 220.164C294.314 220.091 294.154 220.13 294.079 220.25L294.031 220.328C293.993 220.391 293.947 220.468 293.895 220.556L293.779 220.754C293.659 220.961 293.525 221.194 293.38 221.455L293.245 221.697C292.749 222.595 292.205 223.635 291.625 224.813L291.545 224.975C289.649 228.838 287.754 233.358 285.985 238.493C281.032 252.877 278.018 269.203 277.905 287.178C277.904 287.318 278.021 287.433 278.165 287.434C278.309 287.435 278.427 287.322 278.427 287.181C278.54 269.263 281.544 252.989 286.48 238.655C288.242 233.539 290.129 229.039 292.016 225.193L292.174 224.874C292.748 223.716 293.284 222.695 293.772 221.816L293.838 221.697C293.998 221.411 294.143 221.157 294.272 220.937L294.432 220.666L294.526 220.513C294.6 220.393 294.561 220.237 294.438 220.164Z" fill="#2A84C6"/>
<path d="M294.438 220.164C294.314 220.091 294.154 220.13 294.079 220.25L294.031 220.328C293.993 220.391 293.947 220.468 293.895 220.556L293.779 220.754C293.659 220.961 293.525 221.194 293.38 221.455L293.245 221.697C292.749 222.595 292.205 223.635 291.625 224.813L291.545 224.975C289.649 228.838 287.754 233.358 285.985 238.493C281.032 252.877 278.018 269.203 277.905 287.178C277.904 287.318 278.021 287.433 278.165 287.434C278.309 287.435 278.427 287.322 278.427 287.181C278.54 269.263 281.544 252.989 286.48 238.655C288.242 233.539 290.129 229.039 292.016 225.193L292.174 224.874C292.748 223.716 293.284 222.695 293.772 221.816L293.838 221.697C293.998 221.411 294.143 221.157 294.272 220.937L294.432 220.666L294.526 220.513C294.6 220.393 294.561 220.237 294.438 220.164Z" fill="black" fill-opacity="0.35"/>
<path fill-rule="evenodd" clip-rule="evenodd" d="M310.027 195.82C309.931 196.944 310.788 197.931 311.943 198.025C313.098 198.12 314.113 197.285 314.21 196.162C314.307 195.038 313.449 194.051 312.294 193.957C311.139 193.862 310.124 194.697 310.027 195.82Z" fill="white"/>
<path fill-rule="evenodd" clip-rule="evenodd" d="M292.2 204.538C292.103 205.661 292.961 206.648 294.116 206.743C295.272 206.837 296.286 206.002 296.383 204.879C296.48 203.755 295.622 202.768 294.467 202.674C293.312 202.58 292.297 203.414 292.2 204.538Z" fill="white"/>
<path fill-rule="evenodd" clip-rule="evenodd" d="M295.188 227.746C295.077 229.032 296.06 230.163 297.383 230.271C298.705 230.379 299.868 229.423 299.979 228.136C300.09 226.85 299.107 225.719 297.784 225.611C296.462 225.503 295.299 226.459 295.188 227.746Z" fill="white"/>
<path fill-rule="evenodd" clip-rule="evenodd" d="M240.433 193.061C240.433 194.888 241.955 196.368 243.832 196.368C245.71 196.368 247.231 194.888 247.231 193.061C247.231 191.235 245.71 189.755 243.832 189.755C241.955 189.755 240.433 191.235 240.433 193.061Z" fill="white"/>
<path fill-rule="evenodd" clip-rule="evenodd" d="M267.797 203.159C267.797 204.985 269.318 206.465 271.196 206.465C273.073 206.465 274.595 204.985 274.595 203.159C274.595 201.333 273.073 199.852 271.196 199.852C269.318 199.852 267.797 201.333 267.797 203.159Z" fill="white"/>
<path fill-rule="evenodd" clip-rule="evenodd" d="M258.934 225.602C258.934 226.366 259.571 226.984 260.355 226.984C261.14 226.984 261.776 226.366 261.776 225.602C261.776 224.839 261.14 224.22 260.355 224.22C259.571 224.22 258.934 224.839 258.934 225.602Z" fill="white"/>
<path fill-rule="evenodd" clip-rule="evenodd" d="M248.699 243.277C248.699 244.405 249.639 245.319 250.798 245.319C251.957 245.319 252.896 244.405 252.896 243.277C252.896 242.149 251.957 241.235 250.798 241.235C249.639 241.235 248.699 242.149 248.699 243.277Z" fill="white"/>
<path fill-rule="evenodd" clip-rule="evenodd" d="M267.88 310.793H288.326C291.318 309.942 292.809 309.098 294.514 306.749L303.777 276.729C303.777 274.504 301.906 272.685 299.619 272.685H257.317C255.03 272.685 253.159 274.504 253.159 276.729L262.341 306.749C263.832 309.942 264.898 310.363 267.88 310.793Z" fill="#2A84C6"/>
<path fill-rule="evenodd" clip-rule="evenodd" d="M267.88 310.793H288.326C291.318 309.942 292.809 309.098 294.514 306.749L303.777 276.729C303.777 274.504 301.906 272.685 299.619 272.685H257.317C255.03 272.685 253.159 274.504 253.159 276.729L262.341 306.749C263.832 309.942 264.898 310.363 267.88 310.793Z" fill="black" fill-opacity="0.35"/>
<mask id="mask0_357_1892" style="mask-type:alpha" maskUnits="userSpaceOnUse" x="-4" y="46" width="302" height="294">
<ellipse rx="150.374" ry="146.275" transform="matrix(-1 0 0 1 147.16 192.959)" fill="#C4C4C4"/>
</mask>
<g mask="url(#mask0_357_1892)">
<path fill-rule="evenodd" clip-rule="evenodd" d="M259.812 207.16C264.205 197.399 259.633 186.021 249.597 181.748L192.124 157.271C182.088 152.997 170.393 157.445 165.999 167.207C161.606 176.968 166.179 188.345 176.214 192.619L233.69 217.095C243.723 221.369 255.419 216.92 259.812 207.16Z" fill="#E4EBF7"/>
<path fill-rule="evenodd" clip-rule="evenodd" d="M19.4279 236.24C11.3418 229.05 10.7811 216.846 18.1727 208.983L64.3523 159.849C71.7439 151.986 84.29 151.439 92.3746 158.629C100.458 165.818 101.02 178.022 93.6298 185.886L47.4487 235.019C40.0572 242.884 27.5125 243.431 19.4279 236.24Z" fill="#E4EBF7"/>
<path fill-rule="evenodd" clip-rule="evenodd" d="M102.996 297.311C102.996 297.311 95.8232 282.747 102.535 275.816C108.611 269.538 115.781 274.679 115.781 274.679C115.781 274.679 123.74 278.693 130.154 286.111C134.381 290.999 141.449 301.088 139.108 303.595C136.058 306.862 128.742 294.993 125.888 296.605C122.957 298.261 124.282 300.822 125.324 307.611C125.976 311.854 128.334 315.786 128.18 319.487C127.881 326.717 111.881 320.031 102.996 297.311Z" fill="#FFC999"/>
<path d="M118.793 301.569C118.513 301.54 118.262 301.737 118.232 302.009L118.222 302.127C118.218 302.178 118.213 302.239 118.209 302.312C118.118 303.904 118.266 306.045 118.844 308.575C119.711 312.371 121.39 316.228 124.07 319.977C124.231 320.202 124.548 320.258 124.779 320.101C125.01 319.945 125.067 319.636 124.907 319.412C122.305 315.771 120.678 312.034 119.838 308.36C119.315 306.067 119.158 304.115 119.214 302.639L119.227 302.368C119.234 302.239 119.241 302.154 119.246 302.114C119.275 301.842 119.073 301.598 118.793 301.569Z" fill="#DD936F"/>
<path d="M112.738 301.582L112.655 301.584C112.375 301.61 112.17 301.852 112.197 302.125C112.537 305.539 113.553 308.871 115.035 312.019C115.682 313.393 116.375 314.639 117.068 315.737L117.351 316.176C117.443 316.316 117.531 316.447 117.616 316.571L117.872 316.937C117.929 317.016 117.973 317.076 118.003 317.115C118.171 317.335 118.49 317.381 118.716 317.218C118.942 317.055 118.989 316.744 118.822 316.525L118.583 316.194C118.388 315.916 118.171 315.589 117.936 315.218C117.263 314.153 116.59 312.942 115.962 311.607C114.524 308.552 113.539 305.324 113.211 302.029C113.187 301.784 112.983 301.598 112.738 301.582Z" fill="#DD936F"/>
<path d="M107.376 298.693C107.123 298.691 106.911 298.869 106.87 299.104L106.863 299.185C106.86 299.859 106.999 301.076 107.416 302.792C108.099 305.604 109.329 308.822 111.242 312.399C111.372 312.642 111.68 312.736 111.929 312.61C112.179 312.484 112.276 312.185 112.146 311.942C110.272 308.437 109.071 305.296 108.408 302.564C108.176 301.608 108.027 300.772 107.946 300.06L107.904 299.636C107.891 299.474 107.884 299.346 107.882 299.254L107.882 299.191L107.875 299.112C107.838 298.876 107.629 298.695 107.376 298.693Z" fill="#DD936F"/>
<path fill-rule="evenodd" clip-rule="evenodd" d="M116.707 265.179L95.8643 291.279L21.0377 238.246C12.3867 231.709 10.8227 219.588 17.5412 211.173C24.2625 202.758 36.7231 201.236 45.3727 207.772L116.707 265.179Z" fill="#E4EBF7"/>
<path d="M56.459 216.671C56.154 216.43 55.7058 216.475 55.4581 216.772C55.2328 217.041 55.2507 217.426 55.485 217.675L55.5617 217.745L116.114 265.588L95.698 291.154C95.4788 291.428 95.5053 291.813 95.7451 292.056L95.8234 292.125C96.1055 292.338 96.5006 292.313 96.7512 292.079L96.8218 292.003L117.665 265.903C117.88 265.633 117.858 265.255 117.627 265.011L117.551 264.942L56.459 216.671Z" fill="#1443BD"/>
<path d="M56.459 216.671C56.154 216.43 55.7058 216.475 55.4581 216.772C55.2328 217.041 55.2507 217.426 55.485 217.675L55.5617 217.745L116.114 265.588L95.698 291.154C95.4788 291.428 95.5053 291.813 95.7451 292.056L95.8234 292.125C96.1055 292.338 96.5006 292.313 96.7512 292.079L96.8218 292.003L117.665 265.903C117.88 265.633 117.858 265.255 117.627 265.011L117.551 264.942L56.459 216.671Z" fill="white" fill-opacity="0.2"/>
<path d="M104.249 258.109C103.967 257.896 103.572 257.922 103.321 258.155L103.25 258.231L85.5513 280.393C85.3103 280.695 85.3664 281.13 85.6767 281.364C85.9588 281.577 86.3539 281.551 86.6046 281.318L86.6752 281.242L104.374 259.081C104.615 258.779 104.559 258.344 104.249 258.109Z" fill="#1443BD"/>
<path d="M104.249 258.109C103.967 257.896 103.572 257.922 103.321 258.155L103.25 258.231L85.5513 280.393C85.3103 280.695 85.3664 281.13 85.6767 281.364C85.9588 281.577 86.3539 281.551 86.6046 281.318L86.6752 281.242L104.374 259.081C104.615 258.779 104.559 258.344 104.249 258.109Z" fill="white" fill-opacity="0.2"/>
<path fill-rule="evenodd" clip-rule="evenodd" d="M209.255 94.8027C209.255 94.8027 218.671 108.102 213.154 115.967C208.156 123.09 200.251 119.096 200.251 119.096C200.251 119.096 191.746 116.338 184.221 109.982C179.264 105.794 170.667 96.9 172.577 94.0704C175.066 90.3799 184.194 100.996 186.755 98.9695C189.385 96.8903 187.665 94.5618 185.549 88.0127C184.225 83.9207 181.267 80.3935 180.824 76.7168C179.962 69.5281 196.838 73.7087 209.255 94.8027Z" fill="#FFC999"/>
<path d="M184.773 75.6376C184.596 75.4578 184.303 75.4517 184.118 75.6239C183.933 75.796 183.927 76.0813 184.104 76.261C184.247 76.4065 184.389 76.5527 184.529 76.6997C187.833 80.1739 190.032 83.8931 191.339 87.6097C191.795 88.9078 192.108 90.1116 192.302 91.1899C192.353 91.4715 192.392 91.7288 192.423 91.9602L192.468 92.358C192.475 92.4322 192.479 92.486 192.48 92.5186C192.493 92.7671 192.711 92.9584 192.966 92.9459C193.222 92.9334 193.419 92.7217 193.406 92.4732L193.391 92.2816L193.371 92.0855C193.337 91.781 193.286 91.4293 193.214 91.0342C193.012 89.9111 192.688 88.6618 192.216 87.3181C190.869 83.4868 188.604 79.6581 185.209 76.0877C185.065 75.9369 184.92 75.7869 184.773 75.6376Z" fill="#1443BD"/>
<path d="M184.773 75.6376C184.596 75.4578 184.303 75.4517 184.118 75.6239C183.933 75.796 183.927 76.0813 184.104 76.261C184.247 76.4065 184.389 76.5527 184.529 76.6997C187.833 80.1739 190.032 83.8931 191.339 87.6097C191.795 88.9078 192.108 90.1116 192.302 91.1899C192.353 91.4715 192.392 91.7288 192.423 91.9602L192.468 92.358C192.475 92.4322 192.479 92.486 192.48 92.5186C192.493 92.7671 192.711 92.9584 192.966 92.9459C193.222 92.9334 193.419 92.7217 193.406 92.4732L193.391 92.2816L193.371 92.0855C193.337 91.781 193.286 91.4293 193.214 91.0342C193.012 89.9111 192.688 88.6618 192.216 87.3181C190.869 83.4868 188.604 79.6581 185.209 76.0877C185.065 75.9369 184.92 75.7869 184.773 75.6376Z" fill="white" fill-opacity="0.2"/>
<path d="M191.243 77.5305C191.051 77.3472 190.743 77.3499 190.554 77.5365C190.366 77.723 190.369 78.0227 190.561 78.206L190.765 78.41C190.812 78.4576 190.864 78.512 190.923 78.5731L191.292 78.9686C191.484 79.1793 191.688 79.4091 191.901 79.6574C192.916 80.8423 193.931 82.2002 194.879 83.7082C196.46 86.2235 197.689 88.898 198.43 91.6857C198.497 91.9389 198.762 92.0911 199.023 92.0257C199.283 91.9603 199.439 91.702 199.372 91.4489C198.606 88.5639 197.338 85.8049 195.71 83.2143C194.736 81.6648 193.692 80.27 192.648 79.0512C192.355 78.7093 192.079 78.4008 191.823 78.1271L191.468 77.7547C191.418 77.7036 191.374 77.6593 191.336 77.6218L191.243 77.5305Z" fill="#DD936F"/>
<path fill-rule="evenodd" clip-rule="evenodd" d="M188.09 124.141L219.07 110.569L259.663 191.508C264.162 201.225 259.712 212.648 249.725 217.023C239.736 221.398 227.992 217.07 223.494 207.353L188.09 124.141Z" fill="#E4EBF7"/>
<path d="M219.512 109.842C219.364 109.522 218.998 109.365 218.662 109.462L218.571 109.495L187.592 123.067C187.274 123.206 187.111 123.545 187.193 123.865L187.225 123.96L214.039 187.702C214.188 188.055 214.604 188.225 214.968 188.08C215.301 187.947 215.475 187.597 215.387 187.267L215.357 187.177L188.803 124.055L219.156 110.757C219.484 110.613 219.646 110.257 219.546 109.93L219.512 109.842Z" fill="#1443BD"/>
<path d="M219.512 109.842C219.364 109.522 218.998 109.365 218.662 109.462L218.571 109.495L187.592 123.067C187.274 123.206 187.111 123.545 187.193 123.865L187.225 123.96L214.039 187.702C214.188 188.055 214.604 188.225 214.968 188.08C215.301 187.947 215.475 187.597 215.387 187.267L215.357 187.177L188.803 124.055L219.156 110.757C219.484 110.613 219.646 110.257 219.546 109.93L219.512 109.842Z" fill="white" fill-opacity="0.2"/>
<path d="M224.174 122.092C224.04 121.766 223.681 121.594 223.341 121.677L223.249 121.706L195.201 132.62C194.836 132.762 194.659 133.165 194.805 133.52C194.939 133.845 195.298 134.017 195.638 133.934L195.73 133.905L223.778 122.991C224.143 122.85 224.32 122.447 224.174 122.092Z" fill="#1443BD"/>
<path d="M224.174 122.092C224.04 121.766 223.681 121.594 223.341 121.677L223.249 121.706L195.201 132.62C194.836 132.762 194.659 133.165 194.805 133.52C194.939 133.845 195.298 134.017 195.638 133.934L195.73 133.905L223.778 122.991C224.143 122.85 224.32 122.447 224.174 122.092Z" fill="white" fill-opacity="0.2"/>
<path fill-rule="evenodd" clip-rule="evenodd" d="M184.793 121.874L205.309 108.562C207.007 107.46 207.467 105.228 206.334 103.575L176.882 60.6258C175.75 58.9743 173.453 58.5286 171.756 59.6305L151.239 72.942C149.541 74.0439 149.081 76.2767 150.214 77.9282L179.665 120.878C180.798 122.531 183.095 122.976 184.793 121.874Z" fill="#1443BD"/>
<path fill-rule="evenodd" clip-rule="evenodd" d="M184.793 121.874L205.309 108.562C207.007 107.46 207.467 105.228 206.334 103.575L176.882 60.6258C175.75 58.9743 173.453 58.5286 171.756 59.6305L151.239 72.942C149.541 74.0439 149.081 76.2767 150.214 77.9282L179.665 120.878C180.798 122.531 183.095 122.976 184.793 121.874Z" fill="black" fill-opacity="0.5"/>
<path fill-rule="evenodd" clip-rule="evenodd" d="M132.082 411.033L145.298 335.497C147.826 319.842 135.564 305.62 119.278 305.311C105.181 305.044 93.2699 315.421 91.9948 329.08L84.8337 405.838C84.8337 405.838 81.5606 427.595 105.157 429.98C128.106 432.3 132.082 411.033 132.082 411.033Z" fill="#1443BD"/>
<path fill-rule="evenodd" clip-rule="evenodd" d="M132.082 411.033L145.298 335.497C147.826 319.842 135.564 305.62 119.278 305.311C105.181 305.044 93.2699 315.421 91.9948 329.08L84.8337 405.838C84.8337 405.838 81.5606 427.595 105.157 429.98C128.106 432.3 132.082 411.033 132.082 411.033Z" fill="black" fill-opacity="0.5"/>
<path fill-rule="evenodd" clip-rule="evenodd" d="M151.519 406.7L141.967 330.643C140.2 314.89 153.134 301.243 169.419 301.681C183.513 302.058 194.909 312.97 195.523 326.671L198.965 403.671C198.965 403.671 201.184 425.554 177.498 426.858C154.462 428.126 151.519 406.7 151.519 406.7Z" fill="#1443BD"/>
<path fill-rule="evenodd" clip-rule="evenodd" d="M151.519 406.7L141.967 330.643C140.2 314.89 153.134 301.243 169.419 301.681C183.513 302.058 194.909 312.97 195.523 326.671L198.965 403.671C198.965 403.671 201.184 425.554 177.498 426.858C154.462 428.126 151.519 406.7 151.519 406.7Z" fill="black" fill-opacity="0.5"/>
<path fill-rule="evenodd" clip-rule="evenodd" d="M138.005 344.883L96.7836 313.752C93.9203 311.59 92.4545 308.11 92.9355 304.614L98.4401 264.543L195.692 267.566L195.503 309.023C195.493 311.601 194.447 314.062 192.597 315.909C186.927 321.572 172.76 332.784 148.241 344.71C144.914 346.328 140.853 347.211 138.005 344.883Z" fill="#1443BD"/>
<path fill-rule="evenodd" clip-rule="evenodd" d="M138.005 344.883L96.7836 313.752C93.9203 311.59 92.4545 308.11 92.9355 304.614L98.4401 264.543L195.692 267.566L195.503 309.023C195.493 311.601 194.447 314.062 192.597 315.909C186.927 321.572 172.76 332.784 148.241 344.71C144.914 346.328 140.853 347.211 138.005 344.883Z" fill="black" fill-opacity="0.5"/>
<path d="M100.638 276.081C100.337 276.07 100.084 276.299 100.072 276.592C100.063 276.856 100.252 277.082 100.51 277.132L100.598 277.142L188.689 280.28C188.991 280.291 189.244 280.062 189.255 279.769C189.265 279.505 189.075 279.28 188.817 279.229L188.729 279.219L100.638 276.081Z" fill="#1443BD"/>
<path d="M100.638 276.081C100.337 276.07 100.084 276.299 100.072 276.592C100.063 276.856 100.252 277.082 100.51 277.132L100.598 277.142L188.689 280.28C188.991 280.291 189.244 280.062 189.255 279.769C189.265 279.505 189.075 279.28 188.817 279.229L188.729 279.219L100.638 276.081Z" fill="black" fill-opacity="0.5"/>
<path d="M151.531 266.193C151.26 266.183 151.028 266.367 150.976 266.618L150.965 266.704L150.526 278.389C150.515 278.682 150.75 278.928 151.051 278.939C151.322 278.948 151.554 278.764 151.606 278.513L151.617 278.427L152.056 266.743C152.067 266.45 151.832 266.203 151.531 266.193Z" fill="#1443BD"/>
<path d="M151.531 266.193C151.26 266.183 151.028 266.367 150.976 266.618L150.965 266.704L150.526 278.389C150.515 278.682 150.75 278.928 151.051 278.939C151.322 278.948 151.554 278.764 151.606 278.513L151.617 278.427L152.056 266.743C152.067 266.45 151.832 266.203 151.531 266.193Z" fill="black" fill-opacity="0.5"/>
<path fill-rule="evenodd" clip-rule="evenodd" d="M115.619 94.7583C115.619 94.7583 112.354 66.1087 149.273 68.3305C169.829 70.9219 168.551 104.223 168.551 104.223C168.551 104.223 169.824 111.25 166.949 118.387C163.731 126.381 155.802 128.902 145.423 129.575C126.194 128.479 118.683 118.009 118.683 118.009C118.683 118.009 105.407 118.674 106.907 102.48C108.403 87.4602 115.619 94.7583 115.619 94.7583Z" fill="#FFC999"/>
<path fill-rule="evenodd" clip-rule="evenodd" d="M119.16 75.1242C119.136 82.4832 112.985 88.4302 105.422 88.4081C97.855 88.3859 91.7414 82.4015 91.7641 75.0426C91.7884 67.6836 97.939 61.7366 105.504 61.7601C113.069 61.7823 119.183 67.7653 119.16 75.1242Z" fill="#1443BD"/>
<path fill-rule="evenodd" clip-rule="evenodd" d="M119.16 75.1242C119.136 82.4832 112.985 88.4302 105.422 88.4081C97.855 88.3859 91.7414 82.4015 91.7641 75.0426C91.7884 67.6836 97.939 61.7366 105.504 61.7601C113.069 61.7823 119.183 67.7653 119.16 75.1242Z" fill="black" fill-opacity="0.5"/>
<path fill-rule="evenodd" clip-rule="evenodd" d="M168.37 105.258C168.37 105.258 172.894 97.6845 175.622 88.6464C178.35 79.6083 160.708 61.4642 158.313 59.9982C155.916 58.5322 154.721 57.069 138.204 62.8568C89.2182 64.6176 100.7 108.305 100.7 108.305C100.7 108.305 94.9846 112.303 98.2506 123.11C102.114 133.917 117.448 134.34 117.448 134.34L118.035 117.451C118.035 117.451 112.85 117.815 108.969 111.968C105.087 106.121 108.48 99.0384 110.882 98.4611C113.024 96.9093 118.363 97.7039 118.345 103.94C118.335 107.08 124.501 100.061 126.943 88.1148C144.05 84.9558 148.369 73.3913 148.369 73.3913C148.369 73.3913 148.936 84.4824 146.222 89.1434C155.229 86.5436 160.043 81.8896 158.559 76.9241C168.745 81.3303 168.37 105.258 168.37 105.258Z" fill="#1443BD"/>
<path fill-rule="evenodd" clip-rule="evenodd" d="M168.37 105.258C168.37 105.258 172.894 97.6845 175.622 88.6464C178.35 79.6083 160.708 61.4642 158.313 59.9982C155.916 58.5322 154.721 57.069 138.204 62.8568C89.2182 64.6176 100.7 108.305 100.7 108.305C100.7 108.305 94.9846 112.303 98.2506 123.11C102.114 133.917 117.448 134.34 117.448 134.34L118.035 117.451C118.035 117.451 112.85 117.815 108.969 111.968C105.087 106.121 108.48 99.0384 110.882 98.4611C113.024 96.9093 118.363 97.7039 118.345 103.94C118.335 107.08 124.501 100.061 126.943 88.1148C144.05 84.9558 148.369 73.3913 148.369 73.3913C148.369 73.3913 148.936 84.4824 146.222 89.1434C155.229 86.5436 160.043 81.8896 158.559 76.9241C168.745 81.3303 168.37 105.258 168.37 105.258Z" fill="black" fill-opacity="0.5"/>
<path fill-rule="evenodd" clip-rule="evenodd" d="M117.441 136.418L117.953 111.236L151.705 112.095C151.705 112.095 151.522 129.289 152.168 136.266C174.105 148.087 124.393 156.773 112.948 143.487C109.412 139.383 117.441 136.418 117.441 136.418Z" fill="#FFC999"/>
<path fill-rule="evenodd" clip-rule="evenodd" d="M149.053 99.7887C148.4 106.169 143.268 110.896 137.586 110.347C131.906 109.797 127.831 104.18 128.482 97.7995C129.136 91.4178 134.269 86.6904 139.95 87.24C145.629 87.7896 149.705 93.4085 149.053 99.7887Z" fill="white"/>
<path d="M140.02 86.5515C146.115 87.1413 150.45 93.1169 149.762 99.8575C149.071 106.599 143.613 111.626 137.516 111.036C131.421 110.446 127.086 104.472 127.775 97.7314C128.454 91.0899 133.762 86.1122 139.748 86.5289L140.02 86.5515ZM129.191 97.8684C128.576 103.888 132.393 109.149 137.657 109.658C142.923 110.168 147.729 105.742 148.346 99.7204C148.961 93.7002 145.143 88.4384 139.88 87.9291C134.614 87.4197 129.807 91.8465 129.191 97.8684Z" fill="#1443BD"/>
<path d="M140.02 86.5515C146.115 87.1413 150.45 93.1169 149.762 99.8575C149.071 106.599 143.613 111.626 137.516 111.036C131.421 110.446 127.086 104.472 127.775 97.7314C128.454 91.0899 133.762 86.1122 139.748 86.5289L140.02 86.5515ZM129.191 97.8684C128.576 103.888 132.393 109.149 137.657 109.658C142.923 110.168 147.729 105.742 148.346 99.7204C148.961 93.7002 145.143 88.4384 139.88 87.9291C134.614 87.4197 129.807 91.8465 129.191 97.8684Z" fill="black" fill-opacity="0.5"/>
<path fill-rule="evenodd" clip-rule="evenodd" d="M172.032 98.9988C171.38 105.379 166.54 110.134 161.222 109.621C155.904 109.106 152.121 103.516 152.773 97.1355C153.426 90.7553 158.265 85.9988 163.583 86.5138C168.902 87.0287 172.685 92.6185 172.032 98.9988Z" fill="white"/>
<path d="M163.653 85.8254C169.4 86.3817 173.429 92.3351 172.74 99.0677C172.052 105.8 166.898 110.865 161.152 110.31C155.406 109.753 151.377 103.8 152.065 97.0674C152.744 90.436 157.753 85.4229 163.393 85.8039L163.653 85.8254ZM153.481 97.2045C152.865 103.232 156.402 108.459 161.292 108.932C166.183 109.404 170.708 104.958 171.324 98.9307C171.941 92.9026 168.404 87.6764 163.512 87.2028C158.623 86.7294 154.098 91.1756 153.481 97.2045Z" fill="#1443BD"/>
<path d="M163.653 85.8254C169.4 86.3817 173.429 92.3351 172.74 99.0677C172.052 105.8 166.898 110.865 161.152 110.31C155.406 109.753 151.377 103.8 152.065 97.0674C152.744 90.436 157.753 85.4229 163.393 85.8039L163.653 85.8254ZM153.481 97.2045C152.865 103.232 156.402 108.459 161.292 108.932C166.183 109.404 170.708 104.958 171.324 98.9307C171.941 92.9026 168.404 87.6764 163.512 87.2028C158.623 86.7294 154.098 91.1756 153.481 97.2045Z" fill="black" fill-opacity="0.5"/>
<path d="M151.565 101.377C151.382 101.185 151.074 101.174 150.877 101.352C150.702 101.51 150.673 101.764 150.797 101.953L150.851 102.021L154.237 105.572L150.538 108.708C150.358 108.86 150.321 109.114 150.439 109.306L150.491 109.376C150.648 109.551 150.908 109.586 151.106 109.472L151.178 109.421L155.255 105.965C155.439 105.809 155.472 105.549 155.347 105.355L155.292 105.286L151.565 101.377Z" fill="#DD936F"/>
<path d="M142.606 111.305C142.5 111.673 142.721 112.055 143.099 112.159L143.785 112.333C144.316 112.463 144.895 112.592 145.501 112.712C146.449 112.901 147.377 113.051 148.252 113.148C149.737 113.313 150.986 113.317 151.943 113.113C152.327 113.031 152.571 112.662 152.487 112.289C152.403 111.915 152.023 111.679 151.639 111.76C150.866 111.925 149.756 111.922 148.413 111.773C147.583 111.681 146.696 111.538 145.786 111.356C145.348 111.269 144.924 111.177 144.523 111.084L143.484 110.826C143.105 110.723 142.713 110.937 142.606 111.305Z" fill="#F56D7E"/>
<path fill-rule="evenodd" clip-rule="evenodd" d="M149.22 96.7559C149.22 96.7559 151.027 95.5917 152.625 96.7656L149.22 96.7559Z" fill="white"/>
<path d="M149.22 96.7559C149.22 96.7559 151.027 95.5917 152.625 96.7656" stroke="#1443BD" stroke-width="1.5" stroke-linecap="round" stroke-linejoin="round"/>
<path d="M149.22 96.7559C149.22 96.7559 151.027 95.5917 152.625 96.7656" stroke="black" stroke-opacity="0.5" stroke-width="1.5" stroke-linecap="round" stroke-linejoin="round"/>
<path d="M134.146 127.173C133.884 127.111 133.621 127.267 133.558 127.521C133.494 127.775 133.654 128.031 133.915 128.093C135.409 128.447 137.113 128.727 138.989 128.942C142.541 129.348 146.219 129.485 149.32 129.467L150.333 129.455C150.602 129.448 150.814 129.231 150.807 128.97C150.801 128.708 150.577 128.502 150.309 128.508L149.963 128.514C146.771 128.555 142.859 128.431 139.103 128.002C137.264 127.791 135.597 127.517 134.146 127.173Z" fill="#DD936F"/>
<path fill-rule="evenodd" clip-rule="evenodd" d="M143.206 98.1236C143.2 99.7017 142.479 100.979 141.593 100.978C140.708 100.975 139.995 99.6921 139.999 98.1139C140.005 96.5358 140.727 95.2581 141.612 95.2609C142.497 95.2636 143.21 96.5455 143.206 98.1236Z" fill="#1443BD"/>
<path fill-rule="evenodd" clip-rule="evenodd" d="M143.206 98.1236C143.2 99.7017 142.479 100.979 141.593 100.978C140.708 100.975 139.995 99.6921 139.999 98.1139C140.005 96.5358 140.727 95.2581 141.612 95.2609C142.497 95.2636 143.21 96.5455 143.206 98.1236Z" fill="black" fill-opacity="0.5"/>
<path fill-rule="evenodd" clip-rule="evenodd" d="M164.041 98.4447C164.035 100.023 163.314 101.3 162.428 101.299C161.543 101.296 160.83 100.013 160.834 98.435C160.84 96.8569 161.562 95.5791 162.447 95.5819C163.332 95.5847 164.045 96.8666 164.041 98.4447Z" fill="#1443BD"/>
<path fill-rule="evenodd" clip-rule="evenodd" d="M164.041 98.4447C164.035 100.023 163.314 101.3 162.428 101.299C161.543 101.296 160.83 100.013 160.834 98.435C160.84 96.8569 161.562 95.5791 162.447 95.5819C163.332 95.5847 164.045 96.8666 164.041 98.4447Z" fill="black" fill-opacity="0.5"/>
<path d="M128.47 97.1068L119.151 97.2743C118.758 97.2814 118.446 97.597 118.453 97.9792C118.46 98.3295 118.733 98.6142 119.081 98.6538L119.178 98.6584L128.496 98.4909C128.889 98.4838 129.201 98.1683 129.194 97.7861C129.188 97.4357 128.914 97.151 128.566 97.1114L128.47 97.1068Z" fill="#1443BD"/>
<path d="M128.47 97.1068L119.151 97.2743C118.758 97.2814 118.446 97.597 118.453 97.9792C118.46 98.3295 118.733 98.6142 119.081 98.6538L119.178 98.6584L128.496 98.4909C128.889 98.4838 129.201 98.1683 129.194 97.7861C129.188 97.4357 128.914 97.151 128.566 97.1114L128.47 97.1068Z" fill="black" fill-opacity="0.5"/>
<path fill-rule="evenodd" clip-rule="evenodd" d="M158.204 141.372L156.596 141.336C157.782 150.732 121.351 152.102 115.723 141.196C115.58 140.918 115.468 140.657 115.373 140.408L110.935 140.309L109.047 304.011C109.047 304.011 140.798 317.201 171.255 306.1C184.515 175.402 158.204 141.372 158.204 141.372Z" fill="#B8C8FF"/>
<path d="M153.804 153.715C153.675 153.45 153.35 153.336 153.078 153.461C152.331 153.804 151.574 154.118 150.807 154.405C142.498 157.512 133.606 157.311 125.196 155.1C123.847 154.745 122.63 154.366 121.567 153.986L121.045 153.795L120.594 153.622C120.43 153.556 120.32 153.511 120.266 153.487C119.991 153.368 119.668 153.488 119.546 153.756C119.423 154.024 119.546 154.337 119.822 154.457L120.182 154.605L120.651 154.786C120.819 154.849 120.999 154.915 121.191 154.983C122.284 155.373 123.531 155.762 124.911 156.125C133.525 158.39 142.642 158.596 151.199 155.396C151.991 155.1 152.772 154.775 153.543 154.422C153.816 154.297 153.932 153.98 153.804 153.715Z" fill="#1443BD"/>
<path d="M153.804 153.715C153.675 153.45 153.35 153.336 153.078 153.461C152.331 153.804 151.574 154.118 150.807 154.405C142.498 157.512 133.606 157.311 125.196 155.1C123.847 154.745 122.63 154.366 121.567 153.986L121.045 153.795L120.594 153.622C120.43 153.556 120.32 153.511 120.266 153.487C119.991 153.368 119.668 153.488 119.546 153.756C119.423 154.024 119.546 154.337 119.822 154.457L120.182 154.605L120.651 154.786C120.819 154.849 120.999 154.915 121.191 154.983C122.284 155.373 123.531 155.762 124.911 156.125C133.525 158.39 142.642 158.596 151.199 155.396C151.991 155.1 152.772 154.775 153.543 154.422C153.816 154.297 153.932 153.98 153.804 153.715Z" fill="white" fill-opacity="0.2"/>
<path fill-rule="evenodd" clip-rule="evenodd" d="M152.725 135.6C152.725 135.6 160.996 157.889 163.088 239.192C164.756 303.947 167.417 414.672 167.417 414.672C167.417 414.672 199.184 413.659 201.876 399.633C203.479 391.287 201.99 176.389 195.443 159.607C188.151 155.659 176.618 149.866 165.35 144.115C162.612 142.719 157.834 138.92 156.094 138.02C151.366 135.573 152.725 135.6 152.725 135.6Z" fill="#E4EBF7"/>
<path d="M199.456 180.12C199.096 180.129 198.805 180.396 198.765 180.734L198.761 180.85L199.279 204.175L199.69 223.497C199.917 234.376 200.14 245.461 200.356 256.568L200.743 277.105C200.846 282.744 200.945 288.282 201.038 293.705L201.332 311.419C201.995 353.158 202.247 383.259 201.967 397.509C201.96 397.891 202.272 398.207 202.665 398.214C203.058 398.221 203.382 397.917 203.39 397.535L203.425 395.491C203.679 378.362 203.305 342.611 202.461 293.682L202.21 279.491C202.093 273.079 201.971 266.533 201.843 259.874L201.45 239.92C201.317 233.296 201.181 226.714 201.045 220.211L200.184 180.797C200.175 180.415 199.849 180.112 199.456 180.12Z" fill="#1443BD"/>
<path d="M199.456 180.12C199.096 180.129 198.805 180.396 198.765 180.734L198.761 180.85L199.279 204.175L199.69 223.497C199.917 234.376 200.14 245.461 200.356 256.568L200.743 277.105C200.846 282.744 200.945 288.282 201.038 293.705L201.332 311.419C201.995 353.158 202.247 383.259 201.967 397.509C201.96 397.891 202.272 398.207 202.665 398.214C203.058 398.221 203.382 397.917 203.39 397.535L203.425 395.491C203.679 378.362 203.305 342.611 202.461 293.682L202.21 279.491C202.093 273.079 201.971 266.533 201.843 259.874L201.45 239.92C201.317 233.296 201.181 226.714 201.045 220.211L200.184 180.797C200.175 180.415 199.849 180.112 199.456 180.12Z" fill="white" fill-opacity="0.2"/>
<path fill-rule="evenodd" clip-rule="evenodd" d="M73.739 153.749C85.0854 148.547 97.4977 146.477 104.683 142.58C109.287 140.085 112.991 136.711 116.607 135.572C139.892 237.111 125.533 359.964 120.938 418.341C93.6055 421.625 73.6565 392.845 73.6565 392.845C73.6565 392.845 74.674 312.157 77.6468 259.102C80.1202 214.973 70.8387 155.079 73.739 153.749Z" fill="#E4EBF7"/>
<path d="M116.891 134.831C116.691 134.543 116.306 134.45 115.994 134.596L115.903 134.648L104.636 142.102C104.48 142.205 104.373 142.365 104.337 142.545L104.277 142.906L104.256 143.042C104.197 143.441 104.139 143.917 104.085 144.47C103.158 153.921 104.429 167.851 109.607 186.206L110.121 187.994C111.997 194.399 119.572 219.648 121.388 226.567C124.249 237.464 126.139 247.28 127.45 258.756C127.494 259.136 127.846 259.41 128.236 259.367C128.627 259.325 128.908 258.983 128.865 258.603C127.599 247.522 125.795 237.975 123.107 227.534L122.767 226.224C120.866 218.984 112.707 191.826 111.284 186.909L111.205 186.636C105.959 168.312 104.616 154.422 105.463 145.008L105.502 144.601C105.543 144.176 105.587 143.8 105.632 143.474L105.689 143.079L116.703 135.792C116.999 135.597 117.095 135.223 116.944 134.92L116.891 134.831Z" fill="#1443BD"/>
<path d="M116.891 134.831C116.691 134.543 116.306 134.45 115.994 134.596L115.903 134.648L104.636 142.102C104.48 142.205 104.373 142.365 104.337 142.545L104.277 142.906L104.256 143.042C104.197 143.441 104.139 143.917 104.085 144.47C103.158 153.921 104.429 167.851 109.607 186.206L110.121 187.994C111.997 194.399 119.572 219.648 121.388 226.567C124.249 237.464 126.139 247.28 127.45 258.756C127.494 259.136 127.846 259.41 128.236 259.367C128.627 259.325 128.908 258.983 128.865 258.603C127.599 247.522 125.795 237.975 123.107 227.534L122.767 226.224C120.866 218.984 112.707 191.826 111.284 186.909L111.205 186.636C105.959 168.312 104.616 154.422 105.463 145.008L105.502 144.601C105.543 144.176 105.587 143.8 105.632 143.474L105.689 143.079L116.703 135.792C116.999 135.597 117.095 135.223 116.944 134.92L116.891 134.831Z" fill="white" fill-opacity="0.2"/>
<path d="M153.115 135.021C152.786 134.812 152.345 134.902 152.13 135.222C151.935 135.513 151.993 135.894 152.253 136.118L152.336 136.18L165.509 144.551L165.572 144.911C165.641 145.302 165.715 145.754 165.794 146.268L165.891 146.914C166.223 149.17 166.555 151.94 166.866 155.244L166.996 156.673C169.076 180.225 168.914 214.169 165.046 259.82C165.014 260.201 165.305 260.535 165.697 260.567C166.089 260.598 166.432 260.315 166.465 259.934L166.697 257.149C170.421 211.9 170.462 178.328 168.283 155.118L168.165 153.895C167.907 151.3 167.635 149.056 167.363 147.151L167.201 146.061C167.153 145.748 167.107 145.457 167.062 145.187L166.928 144.415C166.892 144.219 166.866 144.08 166.849 143.998C166.819 143.852 166.742 143.721 166.63 143.622L166.54 143.554L153.115 135.021Z" fill="#1443BD"/>
<path d="M153.115 135.021C152.786 134.812 152.345 134.902 152.13 135.222C151.935 135.513 151.993 135.894 152.253 136.118L152.336 136.18L165.509 144.551L165.572 144.911C165.641 145.302 165.715 145.754 165.794 146.268L165.891 146.914C166.223 149.17 166.555 151.94 166.866 155.244L166.996 156.673C169.076 180.225 168.914 214.169 165.046 259.82C165.014 260.201 165.305 260.535 165.697 260.567C166.089 260.598 166.432 260.315 166.465 259.934L166.697 257.149C170.421 211.9 170.462 178.328 168.283 155.118L168.165 153.895C167.907 151.3 167.635 149.056 167.363 147.151L167.201 146.061C167.153 145.748 167.107 145.457 167.062 145.187L166.928 144.415C166.892 144.219 166.866 144.08 166.849 143.998C166.819 143.852 166.742 143.721 166.63 143.622L166.54 143.554L153.115 135.021Z" fill="white" fill-opacity="0.2"/>
<path d="M76.9612 293.665C76.5732 293.605 76.208 293.861 76.1454 294.239C76.088 294.584 76.3049 294.912 76.6403 295.011L76.7345 295.032L100.619 298.779L99.4526 347.779C99.3619 351.562 95.9309 354.419 92.1036 353.958L91.8865 353.928L74.7865 351.317C74.3983 351.258 74.0342 351.516 73.9733 351.894C73.9174 352.24 74.1357 352.566 74.4715 352.664L74.5659 352.685L91.6658 355.296C96.349 356.011 100.616 352.62 100.866 348.049L100.875 347.811L102.055 298.209C102.063 297.895 101.852 297.619 101.55 297.531L101.457 297.51L76.9612 293.665Z" fill="#1443BD"/>
<path d="M76.9612 293.665C76.5732 293.605 76.208 293.861 76.1454 294.239C76.088 294.584 76.3049 294.912 76.6403 295.011L76.7345 295.032L100.619 298.779L99.4526 347.779C99.3619 351.562 95.9309 354.419 92.1036 353.958L91.8865 353.928L74.7865 351.317C74.3983 351.258 74.0342 351.516 73.9733 351.894C73.9174 352.24 74.1357 352.566 74.4715 352.664L74.5659 352.685L91.6658 355.296C96.349 356.011 100.616 352.62 100.866 348.049L100.875 347.811L102.055 298.209C102.063 297.895 101.852 297.619 101.55 297.531L101.457 297.51L76.9612 293.665Z" fill="white" fill-opacity="0.2"/>
<path d="M200.877 294.167C200.768 293.833 200.423 293.635 200.078 293.694L199.984 293.716L187.416 297.592C187.155 297.673 186.968 297.891 186.928 298.149L186.92 298.247L186.544 351.172C186.528 353.444 188.874 354.991 191.019 354.183L191.176 354.119L202.906 349.033C203.265 348.878 203.427 348.469 203.267 348.119C203.12 347.799 202.754 347.641 202.418 347.737L202.327 347.769L190.597 352.855C189.398 353.374 188.054 352.562 187.971 351.317L187.967 351.182L188.34 298.759L200.414 295.036C200.757 294.93 200.96 294.594 200.9 294.258L200.877 294.167Z" fill="#1443BD"/>
<path d="M200.877 294.167C200.768 293.833 200.423 293.635 200.078 293.694L199.984 293.716L187.416 297.592C187.155 297.673 186.968 297.891 186.928 298.149L186.92 298.247L186.544 351.172C186.528 353.444 188.874 354.991 191.019 354.183L191.176 354.119L202.906 349.033C203.265 348.878 203.427 348.469 203.267 348.119C203.12 347.799 202.754 347.641 202.418 347.737L202.327 347.769L190.597 352.855C189.398 353.374 188.054 352.562 187.971 351.317L187.967 351.182L188.34 298.759L200.414 295.036C200.757 294.93 200.96 294.594 200.9 294.258L200.877 294.167Z" fill="white" fill-opacity="0.2"/>
<path d="M77.6763 200.389C77.3161 200.383 77.0137 200.638 76.9603 200.975L76.952 201.068L75.0821 301.919C75.075 302.302 75.3878 302.617 75.7807 302.624C76.1409 302.63 76.4433 302.375 76.4967 302.038L76.505 301.944L78.3749 201.093C78.382 200.711 78.0692 200.396 77.6763 200.389Z" fill="#1443BD"/>
<path d="M77.6763 200.389C77.3161 200.383 77.0137 200.638 76.9603 200.975L76.952 201.068L75.0821 301.919C75.075 302.302 75.3878 302.617 75.7807 302.624C76.1409 302.63 76.4433 302.375 76.4967 302.038L76.505 301.944L78.3749 201.093C78.382 200.711 78.0692 200.396 77.6763 200.389Z" fill="white" fill-opacity="0.2"/>
<rect width="8.52271" height="4.62341" rx="2.3117" transform="matrix(-0.966613 0.25624 0.269769 0.962925 143.541 116.822)" fill="#1443BD"/>
<rect width="8.52271" height="4.62341" rx="2.3117" transform="matrix(-0.966613 0.25624 0.269769 0.962925 143.541 116.822)" fill="black" fill-opacity="0.65"/>
<path d="M136.724 121.437C131.822 123.436 119.077 123.744 116.8 118.207" stroke="#1443BD" stroke-linecap="round" stroke-linejoin="round"/>
<path d="M136.724 121.437C131.822 123.436 119.077 123.744 116.8 118.207" stroke="black" stroke-opacity="0.65" stroke-linecap="round" stroke-linejoin="round"/>
<path d="M138.147 62.8341C124.865 62.8341 110.539 74.0008 112.057 98.3646" stroke="#1443BD" stroke-width="2" stroke-linecap="round" stroke-linejoin="round"/>
<path d="M138.147 62.8341C124.865 62.8341 110.539 74.0008 112.057 98.3646" stroke="white" stroke-opacity="0.85" stroke-width="2" stroke-linecap="round" stroke-linejoin="round"/>
<rect width="11.3848" height="15.6888" rx="5.6924" transform="matrix(-1 0 0 1 119.172 97.4418)" fill="#2A84C6"/>
<rect width="11.3848" height="15.6888" rx="5.6924" transform="matrix(-1 0 0 1 117.275 97.4418)" fill="#2A84C6"/>
<rect width="11.3848" height="15.6888" rx="5.6924" transform="matrix(-1 0 0 1 117.275 97.4418)" fill="white" fill-opacity="0.65"/>
</g>
<g clip-path="url(#clip0_357_1892)">
<path fill-rule="evenodd" clip-rule="evenodd" d="M309.188 76.2462C296.647 76.2462 286.48 86.1357 286.48 98.3349V98.3913C286.48 110.591 296.647 120.48 309.188 120.48H342.675C343.926 120.48 345.153 120.382 346.349 120.192L352.837 126.288C353.013 126.454 353.249 126.547 353.494 126.547C354.017 126.547 354.44 126.134 354.44 125.626L354.441 117.287C361 113.414 365.383 106.401 365.383 98.3913V98.3349C365.383 86.1357 355.216 76.2462 342.675 76.2462H309.188Z" fill="#1443BD"/>
<path fill-rule="evenodd" clip-rule="evenodd" d="M309.188 76.2462C296.647 76.2462 286.48 86.1357 286.48 98.3349V98.3913C286.48 110.591 296.647 120.48 309.188 120.48H342.675C343.926 120.48 345.153 120.382 346.349 120.192L352.837 126.288C353.013 126.454 353.249 126.547 353.494 126.547C354.017 126.547 354.44 126.134 354.44 125.626L354.441 117.287C361 113.414 365.383 106.401 365.383 98.3913V98.3349C365.383 86.1357 355.216 76.2462 342.675 76.2462H309.188Z" fill="white" fill-opacity="0.65"/>
<g filter="url(#filter0_ddddd_357_1892)">
<path d="M314.696 23.3257H266.881C248.965 23.3257 234.441 37.4535 234.441 54.881C234.441 72.3085 248.965 86.4363 266.881 86.4363H314.696C332.612 86.4363 347.135 72.3085 347.135 54.881C347.135 37.4535 332.612 23.3257 314.696 23.3257Z" fill="white"/>
</g>
<g filter="url(#filter1_ddddd_357_1892)">
<path fill-rule="evenodd" clip-rule="evenodd" d="M250.07 77.257V93.7765C250.07 94.5026 250.675 95.0913 251.421 95.0913C251.772 95.0913 252.108 94.9591 252.36 94.7227L264.84 83.0097L250.07 77.257Z" fill="white"/>
</g>
<path d="M269.077 58.8251C271.97 58.8251 274.315 56.5441 274.315 53.7302C274.315 50.9164 271.97 48.6354 269.077 48.6354C266.185 48.6354 263.84 50.9164 263.84 53.7302C263.84 56.5441 266.185 58.8251 269.077 58.8251Z" fill="#1443BD"/>
<path d="M269.077 58.8251C271.97 58.8251 274.315 56.5441 274.315 53.7302C274.315 50.9164 271.97 48.6354 269.077 48.6354C266.185 48.6354 263.84 50.9164 263.84 53.7302C263.84 56.5441 266.185 58.8251 269.077 58.8251Z" fill="black" fill-opacity="0.5"/>
<path d="M290.535 58.8251C293.428 58.8251 295.773 56.5441 295.773 53.7302C295.773 50.9164 293.428 48.6354 290.535 48.6354C287.642 48.6354 285.297 50.9164 285.297 53.7302C285.297 56.5441 287.642 58.8251 290.535 58.8251Z" fill="#1443BD"/>
<path d="M290.535 58.8251C293.428 58.8251 295.773 56.5441 295.773 53.7302C295.773 50.9164 293.428 48.6354 290.535 48.6354C287.642 48.6354 285.297 50.9164 285.297 53.7302C285.297 56.5441 287.642 58.8251 290.535 58.8251Z" fill="black" fill-opacity="0.5"/>
<path d="M312.499 58.8251C315.392 58.8251 317.737 56.5441 317.737 53.7302C317.737 50.9164 315.392 48.6354 312.499 48.6354C309.607 48.6354 307.262 50.9164 307.262 53.7302C307.262 56.5441 309.607 58.8251 312.499 58.8251Z" fill="#1443BD"/>
<path d="M312.499 58.8251C315.392 58.8251 317.737 56.5441 317.737 53.7302C317.737 50.9164 315.392 48.6354 312.499 48.6354C309.607 48.6354 307.262 50.9164 307.262 53.7302C307.262 56.5441 309.607 58.8251 312.499 58.8251Z" fill="black" fill-opacity="0.5"/>
</g>
<defs>
<filter id="filter0_ddddd_357_1892" x="164.441" y="-6.67432" width="252.694" height="203.111" filterUnits="userSpaceOnUse" color-interpolation-filters="sRGB">
<feFlood flood-opacity="0" result="BackgroundImageFix"/>
<feColorMatrix in="SourceAlpha" type="matrix" values="0 0 0 0 0 0 0 0 0 0 0 0 0 0 0 0 0 0 127 0" result="hardAlpha"/>
<feOffset dy="6"/>
<feGaussianBlur stdDeviation="4"/>
<feColorMatrix type="matrix" values="0 0 0 0 0.705882 0 0 0 0 0.831373 0 0 0 0 0.921569 0 0 0 0.12 0"/>
<feBlend mode="normal" in2="BackgroundImageFix" result="effect1_dropShadow_357_1892"/>
<feColorMatrix in="SourceAlpha" type="matrix" values="0 0 0 0 0 0 0 0 0 0 0 0 0 0 0 0 0 0 127 0" result="hardAlpha"/>
<feOffset dy="8"/>
<feGaussianBlur stdDeviation="12"/>
<feColorMatrix type="matrix" values="0 0 0 0 0.705882 0 0 0 0 0.831373 0 0 0 0 0.921569 0 0 0 0.08 0"/>
<feBlend mode="normal" in2="effect1_dropShadow_357_1892" result="effect2_dropShadow_357_1892"/>
<feColorMatrix in="SourceAlpha" type="matrix" values="0 0 0 0 0 0 0 0 0 0 0 0 0 0 0 0 0 0 127 0" result="hardAlpha"/>
<feOffset dy="16"/>
<feGaussianBlur stdDeviation="18"/>
<feColorMatrix type="matrix" values="0 0 0 0 0.705882 0 0 0 0 0.831373 0 0 0 0 0.921569 0 0 0 0.04 0"/>
<feBlend mode="normal" in2="effect2_dropShadow_357_1892" result="effect3_dropShadow_357_1892"/>
<feColorMatrix in="SourceAlpha" type="matrix" values="0 0 0 0 0 0 0 0 0 0 0 0 0 0 0 0 0 0 127 0" result="hardAlpha"/>
<feOffset dy="40"/>
<feGaussianBlur stdDeviation="35"/>
<feColorMatrix type="matrix" values="0 0 0 0 0.705882 0 0 0 0 0.831373 0 0 0 0 0.921569 0 0 0 0.04 0"/>
<feBlend mode="normal" in2="effect3_dropShadow_357_1892" result="effect4_dropShadow_357_1892"/>
<feColorMatrix in="SourceAlpha" type="matrix" values="0 0 0 0 0 0 0 0 0 0 0 0 0 0 0 0 0 0 127 0" result="hardAlpha"/>
<feOffset dy="2"/>
<feGaussianBlur stdDeviation="2"/>
<feColorMatrix type="matrix" values="0 0 0 0 0.87451 0 0 0 0 0.929412 0 0 0 0 0.964706 0 0 0 0.4 0"/>
<feBlend mode="normal" in2="effect4_dropShadow_357_1892" result="effect5_dropShadow_357_1892"/>
<feBlend mode="normal" in="SourceGraphic" in2="effect5_dropShadow_357_1892" result="shape"/>
</filter>
<filter id="filter1_ddddd_357_1892" x="180.07" y="47.257" width="154.77" height="157.834" filterUnits="userSpaceOnUse" color-interpolation-filters="sRGB">
<feFlood flood-opacity="0" result="BackgroundImageFix"/>
<feColorMatrix in="SourceAlpha" type="matrix" values="0 0 0 0 0 0 0 0 0 0 0 0 0 0 0 0 0 0 127 0" result="hardAlpha"/>
<feOffset dy="6"/>
<feGaussianBlur stdDeviation="4"/>
<feColorMatrix type="matrix" values="0 0 0 0 0.705882 0 0 0 0 0.831373 0 0 0 0 0.921569 0 0 0 0.12 0"/>
<feBlend mode="normal" in2="BackgroundImageFix" result="effect1_dropShadow_357_1892"/>
<feColorMatrix in="SourceAlpha" type="matrix" values="0 0 0 0 0 0 0 0 0 0 0 0 0 0 0 0 0 0 127 0" result="hardAlpha"/>
<feOffset dy="8"/>
<feGaussianBlur stdDeviation="12"/>
<feColorMatrix type="matrix" values="0 0 0 0 0.705882 0 0 0 0 0.831373 0 0 0 0 0.921569 0 0 0 0.08 0"/>
<feBlend mode="normal" in2="effect1_dropShadow_357_1892" result="effect2_dropShadow_357_1892"/>
<feColorMatrix in="SourceAlpha" type="matrix" values="0 0 0 0 0 0 0 0 0 0 0 0 0 0 0 0 0 0 127 0" result="hardAlpha"/>
<feOffset dy="16"/>
<feGaussianBlur stdDeviation="18"/>
<feColorMatrix type="matrix" values="0 0 0 0 0.705882 0 0 0 0 0.831373 0 0 0 0 0.921569 0 0 0 0.04 0"/>
<feBlend mode="normal" in2="effect2_dropShadow_357_1892" result="effect3_dropShadow_357_1892"/>
<feColorMatrix in="SourceAlpha" type="matrix" values="0 0 0 0 0 0 0 0 0 0 0 0 0 0 0 0 0 0 127 0" result="hardAlpha"/>
<feOffset dy="40"/>
<feGaussianBlur stdDeviation="35"/>
<feColorMatrix type="matrix" values="0 0 0 0 0.705882 0 0 0 0 0.831373 0 0 0 0 0.921569 0 0 0 0.04 0"/>
<feBlend mode="normal" in2="effect3_dropShadow_357_1892" result="effect4_dropShadow_357_1892"/>
<feColorMatrix in="SourceAlpha" type="matrix" values="0 0 0 0 0 0 0 0 0 0 0 0 0 0 0 0 0 0 127 0" result="hardAlpha"/>
<feOffset dy="2"/>
<feGaussianBlur stdDeviation="2"/>
<feColorMatrix type="matrix" values="0 0 0 0 0.87451 0 0 0 0 0.929412 0 0 0 0 0.964706 0 0 0 0.4 0"/>
<feBlend mode="normal" in2="effect4_dropShadow_357_1892" result="effect5_dropShadow_357_1892"/>
<feBlend mode="normal" in="SourceGraphic" in2="effect5_dropShadow_357_1892" result="shape"/>
</filter>
<clipPath id="clip0_357_1892">
<rect width="144.176" height="140.246" fill="white" transform="translate(227.824 4.83606)"/>
</clipPath>
</defs>
</svg>
