<svg width="240" height="249" viewBox="0 0 240 249" fill="none" xmlns="http://www.w3.org/2000/svg">
<path d="M152.872 57.7983H0.631348V123.352H152.872V57.7983Z" fill="#1443BD"/>
<path d="M152.872 57.7983H0.631348V123.352H152.872V57.7983Z" fill="black" fill-opacity="0.35"/>
<path d="M70.9715 2.05271L0.699707 57.792L148.885 61.626C149.203 61.6254 149.521 61.5898 149.831 61.5199C151.691 61.0536 152.987 59.7074 152.966 57.792L80.4543 1.87013C77.5719 -0.0049789 73.8539 0.177595 70.9715 2.05271Z" fill="#1443BD"/>
<path d="M70.9715 2.05271L0.699707 57.792L148.885 61.626C149.203 61.6254 149.521 61.5898 149.831 61.5199C151.691 61.0536 152.987 59.7074 152.966 57.792L80.4543 1.87013C77.5719 -0.0049789 73.8539 0.177595 70.9715 2.05271Z" fill="black" fill-opacity="0.35"/>
<path fill-rule="evenodd" clip-rule="evenodd" d="M43.5044 60.694L57.2737 48.344L66.6196 64.5123L43.5044 60.694Z" fill="#FFD666"/>
<path fill-rule="evenodd" clip-rule="evenodd" d="M110.502 71.7609L101.42 55.6363L88.1203 68.0638L110.502 71.7609Z" fill="#FFA940"/>
<path fill-rule="evenodd" clip-rule="evenodd" d="M43.5044 60.6938L70.3722 106.141L66.6301 64.5139L43.5044 60.6938Z" fill="#FFC53D"/>
<path fill-rule="evenodd" clip-rule="evenodd" d="M110.355 71.7368L70.3723 106.141L88.0532 68.0529L110.355 71.7368Z" fill="#FA8C16"/>
<path fill-rule="evenodd" clip-rule="evenodd" d="M57.1567 48.3247L79.3913 51.9975L65.9225 64.3971L57.1567 48.3247Z" fill="#FFC53D"/>
<path fill-rule="evenodd" clip-rule="evenodd" d="M79.2446 51.9731L101.479 55.646L88.0909 68.0589L79.2446 51.9731Z" fill="#FFC53D"/>
<path fill-rule="evenodd" clip-rule="evenodd" d="M65.8889 64.372L79.3405 51.9894L88.1235 68.0448L86.1392 72.1091L66.5118 68.677L65.8889 64.372Z" fill="#FFA940"/>
<path fill-rule="evenodd" clip-rule="evenodd" d="M65.9592 64.4033L70.3908 106.144L88.1204 68.064L65.9592 64.4033Z" fill="#FAAD14"/>
<g clip-path="url(#clip0_152_1992)">
<path d="M65.6004 131.057C80.1389 137.645 97.2963 131.131 103.922 116.508C110.549 101.885 104.134 84.6908 89.5957 78.1028C75.0571 71.5149 57.8997 78.0285 51.2736 92.6513C44.6475 107.274 51.0618 124.469 65.6004 131.057Z" fill="#FFD666"/>
<path d="M67.7103 125.513C79.5211 130.865 93.4343 125.629 98.7862 113.818C104.138 102.007 98.9021 88.0941 87.0912 82.7422C75.2804 77.3903 61.3672 82.6263 56.0153 94.4372C50.6634 106.248 55.8994 120.161 67.7103 125.513Z" fill="#FFC53D"/>
<path d="M71.2573 118.105C70.6301 117.821 70.1514 117.546 69.8212 117.28L71.2805 114.059C70.1508 113.344 69.1663 112.549 68.3269 111.674C67.4875 110.799 66.8498 110.009 66.4139 109.302C66.661 108.789 67.0692 108.305 67.6385 107.851C68.2079 107.397 68.7342 107.134 69.2174 107.062C69.7971 107.964 70.5308 108.864 71.4185 109.76C72.3061 110.657 73.2719 111.349 74.3158 111.836C75.3411 112.301 76.2838 112.466 77.1439 112.333C78.0096 112.187 78.6315 111.713 79.0097 110.91C79.3224 110.252 79.3885 109.577 79.2079 108.885C79.0329 108.18 78.5641 107.466 77.8015 106.743L74.8573 103.904C73.7502 102.85 72.9987 101.717 72.6028 100.505C72.2243 99.287 72.333 98.0205 72.9288 96.7058C73.612 95.198 74.6973 94.1343 76.1849 93.5144C77.6845 92.9 79.3212 92.8493 81.0951 93.3624L82.5298 90.1961C82.7567 90.2408 83.0083 90.3112 83.2846 90.4073C83.5729 90.5089 83.8438 90.6171 84.0971 90.7319C84.6881 90.9997 85.1608 91.272 85.5151 91.5489L84.0722 94.7332C85.0362 95.3008 85.8808 95.9234 86.606 96.601C87.3432 97.284 87.9703 97.9534 88.4873 98.6093C88.2468 99.14 87.8769 99.6194 87.3777 100.047C86.8905 100.481 86.3747 100.785 85.8302 100.96C85.1936 100.119 84.4891 99.3636 83.7168 98.6938C82.9565 98.0294 82.1482 97.5032 81.2918 97.1152C80.3027 96.667 79.4143 96.5261 78.6265 96.6925C77.8387 96.8589 77.2782 97.31 76.9447 98.0458C76.6277 98.7454 76.6164 99.3799 76.9108 99.9495C77.2107 100.507 77.6744 101.088 78.302 101.692L81.0817 104.413C82.2634 105.559 83.0517 106.803 83.4467 108.145C83.8417 109.487 83.6922 110.924 82.998 112.456C82.2984 114 81.1593 115.054 79.5808 115.618C78.0076 116.17 76.2278 116.119 74.2412 115.466L72.8064 118.632C72.4009 118.565 71.8845 118.389 71.2573 118.105Z" fill="white"/>
</g>
<g clip-path="url(#clip1_152_1992)">
<path d="M102.554 101.035C111.088 104.902 121.159 101.079 125.048 92.4956C128.937 83.9126 125.172 73.82 116.639 69.9532C108.105 66.0864 98.0344 69.9096 94.1451 78.4925C90.2559 87.0755 94.0208 97.1681 102.554 101.035Z" fill="#FFD666"/>
<path d="M103.793 97.7804C110.725 100.922 118.892 97.8485 122.033 90.916C125.174 83.9835 122.101 75.8171 115.169 72.6757C108.236 69.5344 100.07 72.6077 96.9283 79.5402C93.7869 86.4726 96.8603 94.6391 103.793 97.7804Z" fill="#FFC53D"/>
<path d="M105.875 93.4328C105.507 93.2659 105.226 93.1045 105.032 92.9484L105.888 91.0581C105.225 90.6382 104.648 90.1715 104.155 89.6581C103.662 89.1447 103.288 88.6807 103.032 88.2661C103.177 87.9649 103.417 87.6809 103.751 87.4142C104.085 87.1475 104.394 86.9931 104.678 86.9509C105.018 87.4806 105.448 88.0085 105.969 88.5348C106.49 89.061 107.057 89.4672 107.67 89.7534C108.272 90.0261 108.825 90.1232 109.33 90.0448C109.838 89.9593 110.203 89.681 110.425 89.2098C110.609 88.8236 110.648 88.4273 110.542 88.0209C110.439 87.6074 110.164 87.1883 109.716 86.7636L107.988 85.0973C107.338 84.4786 106.897 83.8137 106.665 83.1025C106.442 82.3874 106.506 81.6441 106.856 80.8724C107.257 79.9874 107.894 79.363 108.767 78.9992C109.647 78.6386 110.608 78.6088 111.649 78.9099L112.491 77.0515C112.625 77.0777 112.772 77.119 112.934 77.1755C113.104 77.2351 113.263 77.2986 113.411 77.3659C113.758 77.5231 114.036 77.683 114.244 77.8455L113.397 79.7145C113.962 80.0477 114.458 80.4132 114.884 80.8109C115.317 81.2118 115.685 81.6047 115.988 81.9897C115.847 82.3012 115.63 82.5825 115.337 82.8338C115.051 83.0882 114.748 83.2667 114.429 83.3694C114.055 82.8758 113.641 82.4324 113.188 82.0393C112.742 81.6493 112.267 81.3405 111.765 81.1127C111.184 80.8496 110.663 80.7669 110.2 80.8646C109.738 80.9623 109.409 81.227 109.213 81.6589C109.027 82.0695 109.02 82.442 109.193 82.7763C109.369 83.1035 109.641 83.4444 110.01 83.7991L111.641 85.396C112.335 86.0687 112.798 86.799 113.03 87.5867C113.261 88.3744 113.174 89.2179 112.766 90.117C112.356 91.0232 111.687 91.6418 110.76 91.9729C109.837 92.2969 108.792 92.2673 107.626 91.884L106.784 93.7424C106.546 93.7028 106.243 93.5996 105.875 93.4328Z" fill="white"/>
</g>
<g clip-path="url(#clip2_152_1992)">
<path d="M46.5225 100.426C55.7123 98.6042 61.6764 89.634 59.8437 80.3909C58.011 71.1478 49.0754 65.1319 39.8855 66.9541C30.6957 68.7763 24.7316 77.7464 26.5643 86.9896C28.397 96.2327 37.3326 102.249 46.5225 100.426Z" fill="#FFD666"/>
<path d="M45.6355 97.0588C53.1011 95.5785 57.9532 88.3264 56.4729 80.8608C54.9926 73.3951 47.7405 68.543 40.2748 70.0233C32.8092 71.5036 27.9571 78.7557 29.4374 86.2214C30.9177 93.687 38.1698 98.5391 45.6355 97.0588Z" fill="#FFC53D"/>
<path d="M44.7976 92.3115C44.4012 92.3901 44.0787 92.4223 43.8303 92.4082L43.4266 90.3725C42.643 90.417 41.9015 90.3738 41.2021 90.2431C40.5026 90.1124 39.9282 89.9529 39.4788 89.7647C39.4214 89.4353 39.451 89.0649 39.5675 88.6536C39.6841 88.2422 39.8454 87.9368 40.0515 87.7375C40.6365 87.9701 41.2939 88.1488 42.0239 88.2735C42.7539 88.3982 43.4512 88.3986 44.1161 88.2747C44.7641 88.1462 45.2706 87.9031 45.6355 87.5455C45.9989 87.1802 46.1338 86.7414 46.0401 86.2291C45.9646 85.8083 45.7655 85.4634 45.4428 85.1946C45.1185 84.9182 44.6509 84.7375 44.0397 84.6527L41.6646 84.3035C40.7761 84.1785 40.0304 83.8945 39.4275 83.4515C38.8307 82.9993 38.4499 82.3577 38.2852 81.5266C38.0962 80.5736 38.2508 79.6951 38.7491 78.891C39.255 78.0855 40.0189 77.5022 41.0408 77.1411L40.644 75.1397C40.7675 75.0835 40.9117 75.0312 41.0764 74.9826C41.2487 74.9326 41.4149 74.8917 41.5751 74.86C41.9486 74.7859 42.2673 74.7544 42.531 74.7655L42.9301 76.7783C43.5841 76.72 44.1999 76.7286 44.7775 76.8043C45.3628 76.8784 45.8908 76.9837 46.3616 77.1201C46.4281 77.4556 46.4153 77.8108 46.3232 78.1856C46.2388 78.5589 46.0965 78.8803 45.8963 79.1498C45.3052 78.9659 44.7109 78.846 44.1134 78.7902C43.5236 78.7328 42.958 78.7578 42.4167 78.8651C41.7915 78.9891 41.3194 79.2253 41.0002 79.5739C40.681 79.9224 40.5676 80.3292 40.6598 80.7943C40.7475 81.2365 40.9588 81.5432 41.2939 81.7145C41.6275 81.8782 42.0472 81.997 42.5532 82.071L44.8094 82.42C45.7649 82.5634 46.5662 82.8878 47.2132 83.3935C47.8602 83.8991 48.2797 84.6361 48.4717 85.6043C48.6652 86.5802 48.4816 87.4724 47.9208 88.2809C47.3585 89.0818 46.4917 89.6657 45.3204 90.0327L45.7173 92.0341C45.5006 92.1404 45.1941 92.2329 44.7976 92.3115Z" fill="white"/>
</g>
<path d="M80.84 116.064C78.3254 116.904 75.5649 116.549 73.3446 115.101L0.517334 57.792V154.337C0.517334 156.474 2.62342 158.208 4.87514 158.208H148.883C151.138 158.208 152.967 156.474 152.967 154.337V57.792L83.4214 114.643C82.6505 115.264 81.7768 115.745 80.84 116.064Z" fill="#2A84C6"/>
<path d="M80.84 116.064C78.3254 116.904 75.5649 116.549 73.3446 115.101L0.517334 57.792V154.337C0.517334 156.474 2.62342 158.208 4.87514 158.208H148.883C151.138 158.208 152.967 156.474 152.967 154.337V57.792L83.4214 114.643C82.6505 115.264 81.7768 115.745 80.84 116.064Z" fill="white" fill-opacity="0.85"/>
<path fill-rule="evenodd" clip-rule="evenodd" d="M80.84 116.064C78.3254 116.904 75.5649 116.549 73.3446 115.101L72.7626 114.643L0.517334 154.337C0.517334 156.474 2.62342 158.208 4.87514 158.208H148.883C151.138 158.208 152.967 156.474 152.967 154.337L83.4214 114.643C82.6505 115.264 81.7768 115.745 80.84 116.064Z" fill="#1443BD"/>
<path fill-rule="evenodd" clip-rule="evenodd" d="M80.84 116.064C78.3254 116.904 75.5649 116.549 73.3446 115.101L72.7626 114.643L0.517334 154.337C0.517334 156.474 2.62342 158.208 4.87514 158.208H148.883C151.138 158.208 152.967 156.474 152.967 154.337L83.4214 114.643C82.6505 115.264 81.7768 115.745 80.84 116.064Z" fill="white" fill-opacity="0.85"/>
<g clip-path="url(#clip3_152_1992)" filter="url(#filter0_ddddd_152_1992)">
<path fill-rule="evenodd" clip-rule="evenodd" d="M98.9041 60.3681L98.3973 57.0504L96.1805 54.5305L96.1804 54.5303L99.4983 54.0233L102.018 51.8065L102.525 55.1244L104.742 57.6445L104.742 57.6446L101.424 58.1515L98.9044 60.3682L98.9042 60.3683L98.9041 60.3681Z" fill="white"/>
</g>
<g filter="url(#filter1_ddddd_152_1992)">
<ellipse cx="152.689" cy="121.846" rx="16.7941" ry="16.7941" fill="white"/>
<path d="M159.825 114.724C159.398 114.285 158.764 114.121 158.174 114.293L144.407 118.297C143.784 118.47 143.343 118.966 143.224 119.598C143.103 120.24 143.527 121.055 144.081 121.396L148.386 124.042C148.827 124.313 149.397 124.245 149.763 123.876L154.692 118.917C154.94 118.658 155.351 118.658 155.599 118.917C155.847 119.166 155.847 119.571 155.599 119.829L150.661 124.79C150.295 125.157 150.226 125.73 150.496 126.174L153.126 130.522C153.434 131.038 153.964 131.331 154.546 131.331C154.615 131.331 154.692 131.331 154.76 131.323C155.428 131.237 155.958 130.78 156.155 130.135L160.236 116.385C160.416 115.8 160.253 115.163 159.825 114.724Z" fill="#1443BD"/>
</g>
<defs>
<filter id="filter0_ddddd_152_1992" x="22.9128" y="18.5391" width="155.097" height="155.097" filterUnits="userSpaceOnUse" color-interpolation-filters="sRGB">
<feFlood flood-opacity="0" result="BackgroundImageFix"/>
<feColorMatrix in="SourceAlpha" type="matrix" values="0 0 0 0 0 0 0 0 0 0 0 0 0 0 0 0 0 0 127 0" result="hardAlpha"/>
<feOffset dy="6"/>
<feGaussianBlur stdDeviation="4"/>
<feColorMatrix type="matrix" values="0 0 0 0 0.705882 0 0 0 0 0.831373 0 0 0 0 0.921569 0 0 0 0.12 0"/>
<feBlend mode="normal" in2="BackgroundImageFix" result="effect1_dropShadow_152_1992"/>
<feColorMatrix in="SourceAlpha" type="matrix" values="0 0 0 0 0 0 0 0 0 0 0 0 0 0 0 0 0 0 127 0" result="hardAlpha"/>
<feOffset dy="8"/>
<feGaussianBlur stdDeviation="12"/>
<feColorMatrix type="matrix" values="0 0 0 0 0.705882 0 0 0 0 0.831373 0 0 0 0 0.921569 0 0 0 0.08 0"/>
<feBlend mode="normal" in2="effect1_dropShadow_152_1992" result="effect2_dropShadow_152_1992"/>
<feColorMatrix in="SourceAlpha" type="matrix" values="0 0 0 0 0 0 0 0 0 0 0 0 0 0 0 0 0 0 127 0" result="hardAlpha"/>
<feOffset dy="16"/>
<feGaussianBlur stdDeviation="18"/>
<feColorMatrix type="matrix" values="0 0 0 0 0.705882 0 0 0 0 0.831373 0 0 0 0 0.921569 0 0 0 0.04 0"/>
<feBlend mode="normal" in2="effect2_dropShadow_152_1992" result="effect3_dropShadow_152_1992"/>
<feColorMatrix in="SourceAlpha" type="matrix" values="0 0 0 0 0 0 0 0 0 0 0 0 0 0 0 0 0 0 127 0" result="hardAlpha"/>
<feOffset dy="40"/>
<feGaussianBlur stdDeviation="35"/>
<feColorMatrix type="matrix" values="0 0 0 0 0.705882 0 0 0 0 0.831373 0 0 0 0 0.921569 0 0 0 0.04 0"/>
<feBlend mode="normal" in2="effect3_dropShadow_152_1992" result="effect4_dropShadow_152_1992"/>
<feColorMatrix in="SourceAlpha" type="matrix" values="0 0 0 0 0 0 0 0 0 0 0 0 0 0 0 0 0 0 127 0" result="hardAlpha"/>
<feOffset dy="2"/>
<feGaussianBlur stdDeviation="2"/>
<feColorMatrix type="matrix" values="0 0 0 0 0.87451 0 0 0 0 0.929412 0 0 0 0 0.964706 0 0 0 0.4 0"/>
<feBlend mode="normal" in2="effect4_dropShadow_152_1992" result="effect5_dropShadow_152_1992"/>
<feBlend mode="normal" in="SourceGraphic" in2="effect5_dropShadow_152_1992" result="shape"/>
</filter>
<filter id="filter1_ddddd_152_1992" x="65.8945" y="75.0518" width="173.588" height="173.588" filterUnits="userSpaceOnUse" color-interpolation-filters="sRGB">
<feFlood flood-opacity="0" result="BackgroundImageFix"/>
<feColorMatrix in="SourceAlpha" type="matrix" values="0 0 0 0 0 0 0 0 0 0 0 0 0 0 0 0 0 0 127 0" result="hardAlpha"/>
<feOffset dy="6"/>
<feGaussianBlur stdDeviation="4"/>
<feColorMatrix type="matrix" values="0 0 0 0 0.0392157 0 0 0 0 0.129412 0 0 0 0 0.372549 0 0 0 0.12 0"/>
<feBlend mode="normal" in2="BackgroundImageFix" result="effect1_dropShadow_152_1992"/>
<feColorMatrix in="SourceAlpha" type="matrix" values="0 0 0 0 0 0 0 0 0 0 0 0 0 0 0 0 0 0 127 0" result="hardAlpha"/>
<feOffset dy="8"/>
<feGaussianBlur stdDeviation="12"/>
<feColorMatrix type="matrix" values="0 0 0 0 0.0392157 0 0 0 0 0.129412 0 0 0 0 0.372549 0 0 0 0.08 0"/>
<feBlend mode="normal" in2="effect1_dropShadow_152_1992" result="effect2_dropShadow_152_1992"/>
<feColorMatrix in="SourceAlpha" type="matrix" values="0 0 0 0 0 0 0 0 0 0 0 0 0 0 0 0 0 0 127 0" result="hardAlpha"/>
<feOffset dy="16"/>
<feGaussianBlur stdDeviation="18"/>
<feColorMatrix type="matrix" values="0 0 0 0 0.0392157 0 0 0 0 0.129412 0 0 0 0 0.372549 0 0 0 0.04 0"/>
<feBlend mode="normal" in2="effect2_dropShadow_152_1992" result="effect3_dropShadow_152_1992"/>
<feColorMatrix in="SourceAlpha" type="matrix" values="0 0 0 0 0 0 0 0 0 0 0 0 0 0 0 0 0 0 127 0" result="hardAlpha"/>
<feOffset dy="40"/>
<feGaussianBlur stdDeviation="35"/>
<feColorMatrix type="matrix" values="0 0 0 0 0.0392157 0 0 0 0 0.129412 0 0 0 0 0.372549 0 0 0 0.04 0"/>
<feBlend mode="normal" in2="effect3_dropShadow_152_1992" result="effect4_dropShadow_152_1992"/>
<feColorMatrix in="SourceAlpha" type="matrix" values="0 0 0 0 0 0 0 0 0 0 0 0 0 0 0 0 0 0 127 0" result="hardAlpha"/>
<feOffset dy="2"/>
<feGaussianBlur stdDeviation="2"/>
<feColorMatrix type="matrix" values="0 0 0 0 0.537255 0 0 0 0 0.631373 0 0 0 0 0.870588 0 0 0 0.4 0"/>
<feBlend mode="normal" in2="effect4_dropShadow_152_1992" result="effect5_dropShadow_152_1992"/>
<feBlend mode="normal" in="SourceGraphic" in2="effect5_dropShadow_152_1992" result="shape"/>
</filter>
<clipPath id="clip0_152_1992">
<rect width="68.1032" height="68.1032" fill="white" transform="translate(60.0513 58.0278) rotate(24.3769)"/>
</clipPath>
<clipPath id="clip1_152_1992">
<rect width="39.9738" height="39.9738" fill="white" transform="translate(99.2974 58.1699) rotate(24.3769)"/>
</clipPath>
<clipPath id="clip2_152_1992">
<rect width="39.9737" height="39.9737" fill="white" transform="translate(18.9258 67.4648) rotate(-11.2152)"/>
</clipPath>
<clipPath id="clip3_152_1992">
<rect width="11.78" height="11.78" fill="white" transform="matrix(0.939764 0.341825 0.341824 -0.939764 92.9128 59.6094)"/>
</clipPath>
</defs>
</svg>
